<?xml version="1.0" encoding="UTF-8" standalone="no"?>
<!-- Created with Inkscape (http://www.inkscape.org/) -->

<svg
   xmlns:dc="http://purl.org/dc/elements/1.1/"
   xmlns:cc="http://creativecommons.org/ns#"
   xmlns:rdf="http://www.w3.org/1999/02/22-rdf-syntax-ns#"
   xmlns:svg="http://www.w3.org/2000/svg"
   xmlns="http://www.w3.org/2000/svg"
   xmlns:sodipodi="http://sodipodi.sourceforge.net/DTD/sodipodi-0.dtd"
   xmlns:inkscape="http://www.inkscape.org/namespaces/inkscape"
   width="1162.3513"
   height="1098.9951"
   id="svg2"
   version="1.1"
   inkscape:version="0.48.4 r9939"
   sodipodi:docname="angleBend.svg">
  <defs
     id="defs4">
    <clipPath
       clipPathUnits="userSpaceOnUse"
       id="clipPath3221">
      <path
         inkscape:connector-curvature="0"
         d="m 146.805,2568.223 725.176,0 0,-784.992 -725.176,0 0,784.992 z"
         id="path3223" />
    </clipPath>
    <clipPath
       clipPathUnits="userSpaceOnUse"
       id="clipPath3231">
      <path
         inkscape:connector-curvature="0"
         d="m 144,1781 302,0 0,1679 -302,0 0,-1679 z"
         id="path3233" />
    </clipPath>
    <clipPath
       clipPathUnits="userSpaceOnUse"
       id="clipPath3073">
      <path
         inkscape:connector-curvature="0"
         d="m 1370.344,2296.07 c 0,-6.863 -1.328,-13.722 -3.891,-20.062 -2.562,-6.34 -6.355,-12.156 -11.09,-17.008 -4.734,-4.855 -10.406,-8.738 -16.593,-11.367 -6.184,-2.625 -12.875,-3.988 -19.571,-3.988 -6.695,0 -13.387,1.363 -19.574,3.988 -6.184,2.629 -11.859,6.512 -16.594,11.367 -4.734,4.852 -8.523,10.668 -11.086,17.008 -2.562,6.34 -3.894,13.199 -3.894,20.062 0,6.86 1.332,13.719 3.894,20.063 2.563,6.34 6.352,12.152 11.086,17.008 4.735,4.851 10.41,8.738 16.594,11.363 6.187,2.625 12.879,3.988 19.574,3.988 6.696,0 13.387,-1.363 19.571,-3.988 6.187,-2.625 11.859,-6.512 16.593,-11.363 4.735,-4.856 8.528,-10.668 11.09,-17.008 2.563,-6.344 3.891,-13.203 3.891,-20.063 z"
         clip-rule="evenodd"
         id="path3075" />
    </clipPath>
    <radialGradient
       fx="171.2081"
       fy="196.85463"
       cx="171.2081"
       cy="196.85463"
       r="200"
       gradientUnits="userSpaceOnUse"
       gradientTransform="matrix(0.266069,-0.203622,-0.208299,-0.272181,1294.5001,2399.752)"
       spreadMethod="pad"
       id="radialGradient3079">
      <stop
         style="stop-opacity:1;stop-color:#ffffff"
         offset="0"
         id="stop3081" />
      <stop
         style="stop-opacity:1;stop-color:#000000"
         offset="1"
         id="stop3083" />
    </radialGradient>
    <clipPath
       clipPathUnits="userSpaceOnUse"
       id="clipPath3055">
      <path
         inkscape:connector-curvature="0"
         d="m 1592.977,2052.855 c 0,-6.863 -1.332,-13.722 -3.891,-20.062 -2.563,-6.34 -6.356,-12.156 -11.09,-17.008 -4.734,-4.855 -10.406,-8.738 -16.594,-11.367 -6.183,-2.625 -12.875,-3.988 -19.57,-3.988 -6.695,0 -13.387,1.363 -19.574,3.988 -6.184,2.629 -11.86,6.512 -16.594,11.367 -4.734,4.852 -8.523,10.668 -11.086,17.008 -2.562,6.34 -3.894,13.199 -3.894,20.062 0,6.86 1.332,13.723 3.894,20.063 2.563,6.34 6.352,12.152 11.086,17.008 4.734,4.851 10.41,8.738 16.594,11.363 6.187,2.625 12.879,3.992 19.574,3.992 6.695,0 13.387,-1.367 19.57,-3.992 6.188,-2.625 11.86,-6.512 16.594,-11.363 4.734,-4.856 8.527,-10.668 11.09,-17.008 2.559,-6.34 3.891,-13.203 3.891,-20.063 z"
         clip-rule="evenodd"
         id="path3057" />
    </clipPath>
    <radialGradient
       fx="171.2081"
       fy="196.85463"
       cx="171.2081"
       cy="196.85463"
       r="200"
       gradientUnits="userSpaceOnUse"
       gradientTransform="matrix(0.266069,-0.203622,-0.208299,-0.272181,1517.1328,2156.5375)"
       spreadMethod="pad"
       id="radialGradient3061">
      <stop
         style="stop-opacity:1;stop-color:#ffffff"
         offset="0"
         id="stop3063" />
      <stop
         style="stop-opacity:1;stop-color:#000000"
         offset="1"
         id="stop3065" />
    </radialGradient>
    <clipPath
       clipPathUnits="userSpaceOnUse"
       id="clipPath3037">
      <path
         inkscape:connector-curvature="0"
         d="m 1813.961,2296.07 c 0,-6.863 -1.332,-13.722 -3.895,-20.062 -2.562,-6.34 -6.351,-12.156 -11.086,-17.008 -4.734,-4.855 -10.406,-8.738 -16.593,-11.367 -6.184,-2.625 -12.879,-3.988 -19.575,-3.988 -6.695,0 -13.386,1.363 -19.57,3.988 -6.187,2.629 -11.859,6.512 -16.594,11.367 -4.734,4.852 -8.527,10.668 -11.086,17.008 -2.562,6.34 -3.894,13.199 -3.894,20.062 0,6.86 1.332,13.719 3.894,20.063 2.559,6.34 6.352,12.152 11.086,17.008 4.735,4.851 10.407,8.738 16.594,11.363 6.184,2.625 12.875,3.988 19.57,3.988 6.696,0 13.391,-1.363 19.575,-3.988 6.187,-2.625 11.859,-6.512 16.593,-11.363 4.735,-4.856 8.524,-10.668 11.086,-17.008 2.563,-6.344 3.895,-13.203 3.895,-20.063 z"
         clip-rule="evenodd"
         id="path3039" />
    </clipPath>
    <radialGradient
       fx="171.2081"
       fy="196.85463"
       cx="171.2081"
       cy="196.85463"
       r="200"
       gradientUnits="userSpaceOnUse"
       gradientTransform="matrix(0.266069,-0.203622,-0.208299,-0.272181,1738.1158,2399.752)"
       spreadMethod="pad"
       id="radialGradient3043">
      <stop
         style="stop-opacity:1;stop-color:#ffffff"
         offset="0"
         id="stop3045" />
      <stop
         style="stop-opacity:1;stop-color:#000000"
         offset="1"
         id="stop3047" />
    </radialGradient>
  </defs>
  <sodipodi:namedview
     id="base"
     pagecolor="#ffffff"
     bordercolor="#666666"
     borderopacity="1.0"
     inkscape:pageopacity="0.0"
     inkscape:pageshadow="2"
     inkscape:zoom="0.35"
     inkscape:cx="1163.3185"
     inkscape:cy="595.92828"
     inkscape:document-units="px"
     inkscape:current-layer="layer1"
     showgrid="false"
     fit-margin-top="0"
     fit-margin-left="0"
     fit-margin-right="0"
     fit-margin-bottom="0"
     inkscape:window-width="1855"
     inkscape:window-height="1176"
     inkscape:window-x="65"
     inkscape:window-y="24"
     inkscape:window-maximized="1" />
  <metadata
     id="metadata7">
    <rdf:RDF>
      <cc:Work
         rdf:about="">
        <dc:format>image/svg+xml</dc:format>
        <dc:type
           rdf:resource="http://purl.org/dc/dcmitype/StillImage" />
        <dc:title />
      </cc:Work>
    </rdf:RDF>
  </metadata>
  <g
     inkscape:label="Layer 1"
     inkscape:groupmode="layer"
     id="layer1"
     transform="translate(788.31847,-29.29574)">
    <g
       transform="matrix(1.0563522,0,0,-1.0563522,-1542.1489,2937.5527)"
       id="g3033">
      <g
         clip-path="url(#clipPath3037)"
         id="g3035">
        <g
           id="g3041">
          <path
             inkscape:connector-curvature="0"
             id="path3049"
             style="fill:url(#radialGradient3043);fill-rule:evenodd;stroke:none"
             d="m 1813.961,2296.07 c 0,-6.863 -1.332,-13.722 -3.895,-20.062 -2.562,-6.34 -6.351,-12.156 -11.086,-17.008 -4.734,-4.855 -10.406,-8.738 -16.593,-11.367 -6.184,-2.625 -12.879,-3.988 -19.575,-3.988 -6.695,0 -13.386,1.363 -19.57,3.988 -6.187,2.629 -11.859,6.512 -16.594,11.367 -4.734,4.852 -8.527,10.668 -11.086,17.008 -2.562,6.34 -3.894,13.199 -3.894,20.062 0,6.86 1.332,13.719 3.894,20.063 2.559,6.34 6.352,12.152 11.086,17.008 4.735,4.851 10.407,8.738 16.594,11.363 6.184,2.625 12.875,3.988 19.57,3.988 6.696,0 13.391,-1.363 19.575,-3.988 6.187,-2.625 11.859,-6.512 16.593,-11.363 4.735,-4.856 8.524,-10.668 11.086,-17.008 2.563,-6.344 3.895,-13.203 3.895,-20.063 z" />
        </g>
      </g>
    </g>
    <g
       transform="matrix(1.0563522,0,0,-1.0563522,-1542.1489,2937.5527)"
       id="g3051">
      <g
         clip-path="url(#clipPath3055)"
         id="g3053">
        <g
           id="g3059">
          <path
             inkscape:connector-curvature="0"
             id="path3067"
             style="fill:url(#radialGradient3061);fill-rule:evenodd;stroke:none"
             d="m 1592.977,2052.855 c 0,-6.863 -1.332,-13.722 -3.891,-20.062 -2.563,-6.34 -6.356,-12.156 -11.09,-17.008 -4.734,-4.855 -10.406,-8.738 -16.594,-11.367 -6.183,-2.625 -12.875,-3.988 -19.57,-3.988 -6.695,0 -13.387,1.363 -19.574,3.988 -6.184,2.629 -11.86,6.512 -16.594,11.367 -4.734,4.852 -8.523,10.668 -11.086,17.008 -2.562,6.34 -3.894,13.199 -3.894,20.062 0,6.86 1.332,13.723 3.894,20.063 2.563,6.34 6.352,12.152 11.086,17.008 4.734,4.851 10.41,8.738 16.594,11.363 6.187,2.625 12.879,3.992 19.574,3.992 6.695,0 13.387,-1.367 19.57,-3.992 6.188,-2.625 11.86,-6.512 16.594,-11.363 4.734,-4.856 8.527,-10.668 11.09,-17.008 2.559,-6.34 3.891,-13.203 3.891,-20.063 z" />
        </g>
      </g>
    </g>
    <g
       transform="matrix(1.0563522,0,0,-1.0563522,-1542.1489,2937.5527)"
       id="g3069">
      <g
         clip-path="url(#clipPath3073)"
         id="g3071">
        <g
           id="g3077">
          <path
             inkscape:connector-curvature="0"
             id="path3085"
             style="fill:url(#radialGradient3079);fill-rule:evenodd;stroke:none"
             d="m 1370.344,2296.07 c 0,-6.863 -1.328,-13.722 -3.891,-20.062 -2.562,-6.34 -6.355,-12.156 -11.09,-17.008 -4.734,-4.855 -10.406,-8.738 -16.593,-11.367 -6.184,-2.625 -12.875,-3.988 -19.571,-3.988 -6.695,0 -13.387,1.363 -19.574,3.988 -6.184,2.629 -11.859,6.512 -16.594,11.367 -4.734,4.852 -8.523,10.668 -11.086,17.008 -2.562,6.34 -3.894,13.199 -3.894,20.062 0,6.86 1.332,13.719 3.894,20.063 2.563,6.34 6.352,12.152 11.086,17.008 4.735,4.851 10.41,8.738 16.594,11.363 6.187,2.625 12.879,3.988 19.574,3.988 6.696,0 13.387,-1.363 19.571,-3.988 6.187,-2.625 11.859,-6.512 16.593,-11.363 4.735,-4.856 8.528,-10.668 11.09,-17.008 2.563,-6.344 3.891,-13.203 3.891,-20.063 z" />
        </g>
      </g>
    </g>
    <path
       sodipodi:nodetypes="cccsssssssssssscc"
       inkscape:connector-curvature="0"
       id="path3125"
       style="fill:none;stroke:#000000;stroke-width:4.22540855;stroke-linecap:butt;stroke-linejoin:miter;stroke-miterlimit:4;stroke-opacity:1;stroke-dasharray:none"
       d="m -16.334818,673.07168 1.298468,-39.74473 c 0,0 0.446626,-25.92235 11.4559115,-24.71283 20.3063005,2.22785 25.2119995,57.56275 10.3491245,57.56275 -20.425609,0 -5.5627506,-70.59391 14.862875,-70.59391 20.425626,0 29.722539,59.44833 14.859664,59.44833 -20.425626,0 -5.562751,-68.73683 14.862875,-68.73683 20.425623,0 34.794125,59.44833 19.930236,59.44833 -20.425623,0 -5.561736,-68.73684 14.863889,-68.73684 20.425625,0 32.037045,69.42664 17.177385,69.42664 -20.425626,0 -4.976517,-60.47616 15.44911,-60.47616 20.42562,0 28.84374,69.07486 13.98509,69.07486 -20.42563,0 -4.56454,-58.87473 15.86108,-58.87473 20.42563,0 30.58461,70.56538 15.72173,70.56538 -20.42562,0 -10.44842,-56.07328 9.85788,-58.30219 11.00931,-1.20846 11.11029,23.06429 11.11029,23.06429 l 1.5416,40.37917" />
    <path
       inkscape:connector-curvature="0"
       id="path3127"
       style="fill:none;stroke:#000000;stroke-width:4.22540855;stroke-linecap:butt;stroke-linejoin:miter;stroke-miterlimit:4;stroke-opacity:1;stroke-dasharray:none"
       d="M 289.45799,557.77718 129.51571,737.21655" />
    <path
       inkscape:connector-curvature="0"
       id="path3129"
       style="fill:none;stroke:#000000;stroke-width:4.22540855;stroke-linecap:butt;stroke-linejoin:miter;stroke-miterlimit:4;stroke-opacity:1;stroke-dasharray:none"
       d="M -118.4872,557.77718 41.459291,737.21655" />
    <path
       inkscape:connector-curvature="0"
       id="path3153"
       style="fill:#000000;fill-opacity:1;fill-rule:nonzero;stroke:none"
       d="m -437.91009,1061.347 0,-0.625 -0.02,-0.6887 -0.0437,-0.7325 -0.0388,-0.7463 -0.0587,-0.7912 -0.0825,-0.7913 -0.0838,-0.83 -0.12125,-0.83 -0.1425,-0.85 -0.14125,-0.8687 -0.18,-0.855 -0.20125,-0.8688 -0.4875,-1.6987 -0.28375,-0.835 -0.3225,-0.83 -0.34625,-0.8113 -0.36625,-0.7662 -0.405,-0.7525 -0.445,-0.7275 -0.46375,-0.6888 -0.5075,-0.6487 -0.56625,-0.605 -0.58625,-0.5475 -0.63,-0.5075 -0.32125,-0.245 -0.3475,-0.2 -0.34125,-0.205 -0.36625,-0.2 -0.36625,-0.1613 -0.38625,-0.1662 -0.38,-0.1413 -0.40625,-0.1175 -0.425,-0.1025 -0.42875,-0.1025 -0.445,-0.059 -0.44375,-0.044 -0.46375,-0.039 -0.46875,0 -0.1025,2.2075 c 4.94625,0 5.53125,6.46 5.53125,12.2162 0,4.9413 -0.79,10.1075 -3.2225,20.0925 l -21.08375,0 c 1.72375,-6.4837 3.745,-14.545 7.75875,-21.7137 2.75375,-4.9213 6.46,-10.595 11.01625,-10.595 l 0.1025,-2.2075 c -14.01375,0 -29.57125,28.4375 -29.57125,51.5475 0,9.5025 2.915,20.7037 12.13,20.7037 l 0,-2.2312 c -3.36,0 -5.48875,-2.935 -5.48875,-12.29 0,-4.2588 0.61,-10.1075 3.2425,-19.9763 l 21.005,0 c -1.09375,4.6188 -3.2225,13.1888 -7.09,20.4788 -3.505,6.865 -7.33375,11.7875 -11.66875,11.7875 l 0,2.2312 c 14.19875,0 29.555,-28.965 29.555,-51.5725 z" />
    <path
       inkscape:connector-curvature="0"
       id="path3155"
       style="fill:#000000;fill-opacity:1;fill-rule:nonzero;stroke:none"
       d="m -399.99509,1104.3695 -0.0188,-1.435 -0.04,-1.3775 -0.0637,-1.3375 -0.0775,-1.2987 -0.1225,-1.255 -0.14125,-1.2163 -0.185,-1.1525 -0.22,-1.1325 -0.26375,-1.1187 -0.3025,-1.0688 -0.3275,-1.035 -0.405,-1.0112 -0.425,-0.9963 -0.48375,-0.9712 -0.5275,-0.9525 -0.2825,-0.4638 -0.3025,-0.4687 c -2.16875,-3.2563 -6.54375,-6.0738 -12.2175,-6.0738 l 0,1.9825 c 3.82875,0 7.515,2.3088 8.77,6.42 1.1375,3.8088 1.19625,8.8975 1.19625,15.0538 0,5.205 0,10.43 -0.91375,14.8637 -1.415,6.4213 -6.19625,7.9838 -9.0525,7.9838 -3.2175,0 -7.53375,-1.905 -8.95,-7.7 -0.97125,-4.1513 -0.97125,-9.9425 -0.97125,-15.1475 0,-5.165 0,-10.5563 1.03,-14.4038 1.49875,-5.5712 6.015,-7.07 8.89125,-7.07 l 0,-1.9825 c -16.3675,0 -16.3675,19.2625 -16.3675,24.365 0,5.0638 0,23.9213 16.3675,23.9213 16.40625,0 16.40625,-18.8575 16.40625,-23.9213 z" />
    <text
       style="font-size:15px"
       id="text3157"
       transform="matrix(0,-1,1,0,0,0)"
       x="-749.14771"
       y="-709.35028">
      <tspan
         id="tspan3159"
         y="-709.35028"
         x="-749.14771"
         style="font-size:115.60174561px;font-variant:normal;font-weight:normal;writing-mode:lr-tb;fill:#000000;fill-opacity:1;fill-rule:nonzero;stroke:none;font-family:cmmi10;-inkscape-font-specification:Cmmi10">V</tspan>
    </text>
    <text
       style="font-size:15px"
       id="text3161"
       transform="matrix(0,-1,1,0,0,0)"
       x="-681.75104"
       y="-679.86102">
      <tspan
         id="tspan3163"
         sodipodi:role="line"
         y="-679.86102"
         x="-681.75104 -641.29053 -596.37903 -555.91852 -533.58423 -470.7894 -425.8782 -390.03012 -345.11859"
         style="font-size:80.92121887px;font-variant:normal;font-weight:normal;writing-mode:lr-tb;fill:#000000;fill-opacity:1;fill-rule:nonzero;stroke:none;font-family:cmr10;-inkscape-font-specification:Cmr10">anglebend</tspan>
    </text>
    <g
       transform="matrix(1.25,0,0,-1.25,-810.56134,3242.0745)"
       clip-path="url(#clipPath3221)"
       id="g3219">
      <g
         transform="translate(0,-0.339844)"
         id="g3225">
        <g
           id="g3227">
          <g
             clip-path="url(#clipPath3231)"
             id="g3229">
            <g
               id="g3235">
              <g
                 transform="translate(0,3460)"
                 id="g3237">
                <path
                   inkscape:connector-curvature="0"
                   id="path3239"
                   style="fill:none;stroke:#000000;stroke-width:4;stroke-linecap:square;stroke-linejoin:round;stroke-miterlimit:10;stroke-opacity:1;stroke-dasharray:none"
                   d="m 146.805,-106.441 7.257,-153.223 7.262,-145.359 7.258,-137.493 7.258,-129.625 5.808,-98.039 5.809,-93.004 5.805,-87.968 5.808,-82.934 5.809,-77.902 5.805,-72.867 5.808,-67.833 5.809,-62.8 4.351,-43.797 4.356,-40.965 4.355,-38.133 4.356,-35.301 4.355,-32.468 4.356,-29.637 4.355,-26.809 4.356,-23.972 2.906,-14.41 2.902,-13.153 2.903,-11.89 2.906,-10.637 2.902,-9.375 2.902,-8.117 2.907,-6.86 2.902,-5.601 2.902,-4.34 1.454,-1.699 1.453,-1.387 1.449,-1.066 1.453,-0.758 1.453,-0.438 1.449,-0.129 1.454,0.192 1.453,0.5 1.449,0.82 1.453,1.133 1.453,1.445 1.449,1.762 2.907,4.469 2.902,5.726 2.902,6.985 2.906,8.242 2.903,9.504 2.902,10.757 2.903,12.02 2.906,13.277 2.902,14.536 4.356,24.164 4.355,26.996 4.356,29.824 4.355,32.66 4.355,35.488 4.356,38.325 4.355,41.152 4.356,43.984 5.808,63.051 5.805,68.086 5.809,73.117 5.808,78.156 5.805,83.188 5.809,88.219 5.804,93.257 5.809,98.29 7.258,129.937 7.261,137.809 7.258,145.671 7.258,153.54 6.551,145.285" />
              </g>
            </g>
          </g>
        </g>
      </g>
    </g>
    <path
       inkscape:connector-curvature="0"
       id="path3243"
       style="fill:none;stroke:#000000;stroke-width:5;stroke-linecap:square;stroke-linejoin:round;stroke-miterlimit:10;stroke-opacity:1;stroke-dasharray:none"
       d="m -627.05509,1013.037 906.46871,0" />
    <path
       inkscape:connector-curvature="0"
       id="path3245"
       style="fill:none;stroke:#000000;stroke-width:5;stroke-linecap:square;stroke-linejoin:round;stroke-miterlimit:10;stroke-opacity:1;stroke-dasharray:none"
       d="m -627.05509,1013.037 0,-981.24126" />
    <path
       inkscape:connector-curvature="0"
       id="path3365"
       style="fill:#000000;fill-opacity:1;fill-rule:nonzero;stroke:none"
       d="m -87.96496,303.12975 -0.04986,-0.0951 -0.03296,-0.0982 -0.02873,-0.0951 -0.03296,-0.0824 -0.0338,-0.0951 -0.03296,-0.0782 -0.02873,-0.0824 -0.03296,-0.0624 -0.04986,-0.0824 -0.0338,-0.0623 -0.02873,-0.0824 -0.03296,-0.0613 -0.04986,-0.0497 -0.03296,-0.0666 -0.04564,-0.0455 -0.04986,-0.0655 -0.09507,-0.0951 -0.04986,-0.0327 -0.06592,-0.0497 -0.06254,-0.0338 -0.06592,-0.0285 -0.06254,-0.0327 -0.06676,-0.0328 -0.07775,-0.0169 -0.08282,-0.0169 -0.09507,-0.0285 -0.09507,0 -0.09828,-0.0169 -0.09507,-0.0158 -0.227074,0 c -1.28351,0 -1.539147,0.47853 -1.939462,1.6046 l -16.555154,47.84536 c -1.42717,4.06062 -4.64161,5.26592 -8.95787,5.33141 l 0,2.48877 c 1.8275,-0.0834 5.26487,-0.2567 8.15293,-0.2567 2.49299,0 6.64759,0.17324 9.218745,0.2567 l 0,-2.48877 c -3.998245,0 -6.004305,-2.00918 -6.004305,-4.06484 0,-0.23874 0.0794,-1.04368 0.16166,-1.20002 l 3.67611,-10.48535 0.88311,-2.48771 8.95888,-25.97993 9.020234,25.97993 -17.979114,0 -0.88311,2.48771 19.745334,0 4.241212,12.25157 c 0.09507,0.31691 0.255637,0.79966 0.255637,1.0891 0,2.40954 -4.496849,2.40954 -6.646568,2.40954 l 0,2.48877 c 2.875391,-0.2567 8.479381,-0.2567 11.529028,-0.2567 3.433144,0 7.096574,0.11198 10.46845,0.2567 l 0,-2.48877 -1.432414,0 c -4.814853,0 -5.920811,-0.54825 -6.803922,-3.18173 l -17.277696,-49.99504 z" />
    <path
       inkscape:connector-curvature="0"
       id="path3367"
       style="fill:#000000;fill-opacity:1;fill-rule:nonzero;stroke:none"
       d="m -51.08348,331.27626 0,21.44817 c 0,3.58209 -0.882096,3.58209 -6.247267,3.58209 l 0,2.48877 c 2.810911,-0.0834 6.870515,-0.2567 9.024374,-0.2567 2.088451,0 6.259943,0.17324 8.958965,0.2567 l 0,-2.48877 c -5.348353,0 -6.214562,0 -6.214562,-3.58209 l 0,-14.72238 c 0,-8.33145 5.669485,-12.79559 10.79068,-12.79559 5.041927,0 5.909234,4.32048 5.909234,8.87969 l 0,18.63828 c 0,3.58209 -0.867307,3.58209 -6.247267,3.58209 l 0,2.48877 c 2.809897,-0.0834 6.903219,-0.2567 9.057164,-0.2567 2.083126,0 6.22614,0.17324 8.957866,0.2567 l 0,-2.48877 c -4.1589,0 -6.164871,0 -6.247267,-2.40954 l 0,-15.26746 c 0,-6.87474 0,-9.3635 -2.487751,-12.21882 -1.093282,-1.38171 -3.75529,-2.95462 -8.364197,-2.95462 -5.84374,0 -9.619142,3.43737 -11.851172,8.3642 l 0,-8.3642 -11.286067,0.86727 0,2.4877 c 5.587004,0 6.247267,0.54508 6.247267,4.46521 z" />
    <path
       inkscape:connector-curvature="0"
       id="path3369"
       style="fill:#000000;fill-opacity:1;fill-rule:nonzero;stroke:none"
       d="m -6.8973843,348.16521 0,-0.4162 0.011831,-0.0951 0,-0.0824 0.016902,-0.11197 0.016902,-0.0951 0.016056,-0.11514 0.016902,-0.11198 0.032958,-0.12782 0.016902,-0.12781 0.028733,-0.12782 0.032958,-0.12782 0.04986,-0.13205 0.032958,-0.14472 0.045634,-0.14366 0.04986,-0.14472 0.066762,-0.14472 0.060846,-0.14472 0.066761,-0.16057 0.078593,-0.14472 0.081973,-0.16056 0.077748,-0.14472 0.095072,-0.15634 0.099297,-0.14472 0.1108747,-0.16057 0.1119733,-0.14472 0.1278609,-0.16056 c 3.1320419,2.23207 6.39194473,2.48771 7.9353175,2.48771 l 0,-1.83172 c -6.9867133,0 -6.9867133,-8.00926 -6.9867133,-9.85788 0,-2.16658 0.1119734,-4.72084 1.2834257,-6.69304 0.6602623,-0.98241 2.48876569,-3.21448 5.7032876,-3.21448 6.9486846,0 6.9486846,7.99658 6.9486846,9.82935 0,2.14968 -0.078593,4.71978 -1.2835102,6.7258 -0.6274731,0.9486 -2.4876671,3.21025 -5.6651744,3.21025 l 0,1.83172 c 7.4144936,0 12.9403149,-5.52473 12.9403149,-11.6896 0,-2.97152 -1.287736,-5.92613 -3.259903,-7.75362 2.855277,-2.71483 5.74757,-3.11518 7.191645,-3.11518 0.16158,0 0.56198,0 0.800715,0.0782 -0.894772,0.32218 -1.266608,1.20529 -1.266608,2.1539 0,1.36586 1.027873,2.3113 2.298622,2.3113 0.800715,0 2.310285,-0.54508 2.310285,-2.3768 0,-1.36586 -0.948605,-3.91589 -4.06383,-3.91589 -1.605655,0 -5.121195,0.48275 -8.476169,3.73843 -3.3707782,-2.63349 -6.7257527,-2.85638 -8.4750719,-2.85638 -7.4526068,0 -12.9741171,5.50465 -12.9741171,11.6579 0,3.51554 1.750333,6.56418 3.7552894,8.25223 -1.0267743,1.18839 -2.471864,3.83772 -2.471864,6.63072 0,2.47186 1.0447745,5.50465 3.5324416,7.1103 -4.815867,1.36587 -7.369096,4.80324 -7.369096,8.01349 0,5.74761 7.9141737,10.16317 17.6769805,10.16317 l 0.077748,-1.83172 c -8.074756,0 -13.5962665,-4.09336 -13.5962665,-8.33145 0,-3.693 3.0327448,-6.64762 6.5651865,-6.87051 l 4.7208801,0 c 6.8694159,0 15.8326064,0 15.8326064,6.87051 0,4.32048 -5.669485,8.33145 -13.5224065,8.33145 l -0.077748,1.83172 c 9.4406615,0 17.7551675,-4.09337 17.7551675,-10.32373 0,-2.81096 -1.121846,-6.88742 -5.182464,-9.11949 -4.241211,-2.23313 -8.8796963,-2.23313 -13.7779591,-2.23313 -2.0049564,0 -5.4423263,0 -5.9874041,-0.0782 -2.5701471,-0.32113 -4.2370708,-2.8099 -4.2370708,-5.36416 z" />
    <path
       inkscape:connector-curvature="0"
       id="path3371"
       style="fill:#000000;fill-opacity:1;fill-rule:nonzero;stroke:none"
       d="m 38.826862,303.27447 -11.513225,0.88311 0,2.48771 c 5.603991,0 6.247267,0.54508 6.247267,4.4821 l 0,41.59704 c 0,3.58209 -0.866209,3.58209 -6.247267,3.58209 l 0,2.48877 c 2.63243,-0.0834 6.87474,-0.2567 8.880795,-0.2567 2.004957,0 5.925037,0.17324 8.895499,0.2567 l 0,-2.48877 c -5.379959,0 -6.263069,0 -6.263069,-3.58209 l 0,-49.44996 z" />
    <path
       inkscape:connector-curvature="0"
       id="path3373"
       style="fill:#000000;fill-opacity:1;fill-rule:nonzero;stroke:none"
       d="m 55.715818,340.31229 0.08282,-1.68277 c 0.466907,-11.91354 7.192659,-13.90582 9.920161,-13.90582 8.240645,0 9.040262,10.79064 9.040262,13.90582 l -18.960423,0 -0.08282,1.68277 22.336524,0 c 1.749319,0 1.972252,0 1.972252,-1.68277 0,-7.90257 -4.316255,-15.65619 -14.30622,-15.65619 -9.280011,0 -16.65022,8.22053 -16.65022,18.23897 0,10.71247 8.396983,18.4661 17.615726,18.4661 9.762807,0 13.340714,-8.88076 13.340714,-10.39028 0,-0.80072 -0.623248,-0.97819 -1.027873,-0.97819 -0.722545,0 -0.88311,0.48276 -1.060578,1.12185 -2.777107,8.2406 -9.968753,8.2406 -10.769468,8.2406 -4.015237,0 -7.208547,-2.39369 -9.04136,-5.34725 -2.409497,-3.83773 -2.409497,-9.13639 -2.409497,-12.01284 z" />
    <path
       inkscape:connector-curvature="0"
       id="path3375"
       style="fill:#000000;fill-opacity:1;fill-rule:nonzero;stroke:none"
       d="m 145.69167,330.24842 0.72567,-0.16056 0.70565,-0.16162 0.68984,-0.21022 0.68874,-0.20599 0.66017,-0.22711 0.64337,-0.25564 0.62324,-0.27254 0.62748,-0.28838 0.59367,-0.30529 0.57778,-0.32218 0.54508,-0.33804 0.54829,-0.33486 0.51228,-0.37078 0.4986,-0.38451 0.46691,-0.40036 0.46167,-0.40353 0.42144,-0.41726 0.4162,-0.4331 0.36761,-0.45001 0.37184,-0.45 0.32113,-0.46585 0.31801,-0.47853 0.27676,-0.48275 0.25564,-0.49966 0.22284,-0.51127 0.19336,-0.5155 0.17747,-0.51233 0.12887,-0.53241 0.11088,-0.54402 0.082,-0.52817 0.0456,-0.54931 0.0169,-0.56092 c 0,-6.95291 -7.37022,-13.51814 -17.75627,-13.51814 l -0.57778,2.48771 c 7.77052,0 10.56352,6.79235 10.56352,11.03043 0,5.12014 -3.91594,11.85122 -12.79564,11.85122 l -11.59131,0 0,1.74932 15.02446,0 c 7.93531,0 11.28928,7.44833 11.28928,12.79559 0,5.69902 -4.15891,12.23467 -12.39524,12.23467 l -10.00264,0 c -3.77118,0 -3.91586,-0.54825 -3.91586,-3.18173 l 0,-43.26924 c 0,-2.66518 0.14468,-3.21026 3.91586,-3.21026 l 9.90757,0 0.57778,-2.48771 -29.28521,0 0,2.48771 1.9109,0 c 6.18177,0 6.32544,0.86727 6.32544,3.75533 l 0,42.1474 c 0,2.89229 -0.14367,3.7585 -6.32544,3.7585 l -1.9109,0 0,2.48877 31.37366,0 c 10.62479,0 17.82168,-7.13038 17.82168,-14.64527 0,-6.94869 -6.56942,-12.95616 -15.44911,-13.9016 z" />
    <path
       inkscape:connector-curvature="0"
       id="path3377"
       style="fill:#000000;fill-opacity:1;fill-rule:nonzero;stroke:none"
       d="m 174.59237,340.31229 0.0668,-1.68277 c 0.47848,-11.91354 7.20855,-13.90582 9.93605,-13.90582 8.21943,0 9.02437,10.79064 9.02437,13.90582 l -18.96042,0 -0.0668,1.68277 22.3197,0 c 1.76623,0 1.98907,0 1.98907,-1.68277 0,-7.90257 -4.32048,-15.65619 -14.30613,-15.65619 -9.2801,0 -16.66611,8.22053 -16.66611,18.23897 0,10.71247 8.41279,18.4661 17.61471,18.4661 9.76382,0 13.35753,-8.88076 13.35753,-10.39028 0,-0.80072 -0.64437,-0.97819 -1.02779,-0.97819 -0.73843,0 -0.88311,0.48276 -1.06057,1.12185 -2.793,8.2406 -9.98574,8.2406 -10.78646,8.2406 -4.01414,0 -7.19587,-2.39369 -9.02437,-5.34725 -2.40958,-3.83773 -2.40958,-9.13639 -2.40958,-12.01284 z" />
    <path
       inkscape:connector-curvature="0"
       id="path3379"
       style="fill:#000000;fill-opacity:1;fill-rule:nonzero;stroke:none"
       d="m 209.96436,331.27626 0,21.44817 c 0,3.58209 -0.88311,3.58209 -6.24836,3.58209 l 0,2.48877 c 2.81099,-0.0834 6.87474,-0.2567 9.02446,-0.2567 2.08836,0 6.24828,0.17324 8.95888,0.2567 l 0,-2.48877 c -5.34405,0 -6.22716,0 -6.22716,-3.58209 l 0,-14.72238 c 0,-8.33145 5.68208,-12.79559 10.78637,-12.79559 5.04303,0 5.92614,4.32048 5.92614,8.87969 l 0,18.63828 c 0,3.58209 -0.88311,3.58209 -6.24304,3.58209 l 0,2.48877 c 2.80567,-0.0834 6.9033,-0.2567 9.05293,-0.2567 2.08736,0 6.23037,0.17324 8.95787,0.2567 l 0,-2.48877 c -4.17149,0 -6.18067,0 -6.24304,-2.40954 l 0,-15.26746 c 0,-6.87474 0,-9.3635 -2.48767,-12.21882 -1.11027,-1.38171 -3.7596,-2.95462 -8.38532,-2.95462 -5.84273,0 -9.59802,3.43737 -11.83013,8.3642 l 0,-8.3642 -11.29029,0.86727 0,2.4877 c 5.5881,0 6.24836,0.54508 6.24836,4.46521 z" />
    <path
       inkscape:connector-curvature="0"
       id="path3381"
       style="fill:#000000;fill-opacity:1;fill-rule:nonzero;stroke:none"
       d="m 276.06454,354.41248 0,5.26592 11.7392,-0.88311 0,-2.48877 c -5.59123,0 -6.21448,-0.54825 -6.21448,-4.46414 l 0,-48.56791 -11.52902,0.88311 0,2.48771 c 5.6039,0 6.23138,0.54508 6.23138,4.4821 l 0,17.25657 c -2.31553,-2.85637 -5.74867,-4.92788 -10.08496,-4.92788 l 0.32114,1.75038 c 2.81091,0 6.16487,1.20424 8.65363,4.7821 0.88311,1.36587 0.88311,1.54333 0.88311,2.97152 l 0,16.41043 c 0,1.42713 0,1.6046 -0.88311,2.95462 -2.40637,3.83667 -6.02019,5.58705 -9.45756,5.58705 -3.57782,0 -6.47012,-2.07151 -8.3811,-5.1043 -2.08735,-3.2937 -2.3271,-7.85292 -2.3271,-11.12972 0,-2.95357 0.14468,-7.76948 2.48767,-11.35157 1.67115,-2.4877 4.70499,-5.12013 9.02446,-5.12013 l -0.32114,-1.75038 c -9.44167,0 -17.83866,7.82018 -17.83866,18.12806 0,10.16316 7.85292,18.09426 16.95555,18.09426 5.1201,0 8.73494,-2.71589 10.74099,-5.26592 z" />
    <path
       inkscape:connector-curvature="0"
       id="path3425"
       style="fill:#000000;fill-opacity:1;fill-rule:nonzero;stroke:none"
       d="m 355.85992,1004.9745 0,-0.595 -0.02,-0.655 -0.039,-0.6925 -0.039,-0.7137 -0.059,-0.7513 -0.079,-0.7525 -0.073,-0.7862 -0.1175,-0.79134 -0.1363,-0.805 -0.1325,-0.83 -0.1762,-0.8062 -0.19,-0.83 -0.23,-0.805 -0.2338,-0.8113 -0.2687,-0.7862 -0.3075,-0.79 -0.3275,-0.7675 -0.3463,-0.7325 -0.3862,-0.7125 -0.42,-0.6938 -0.4438,-0.6537 -0.4787,-0.615 -0.5413,-0.5763 -0.5575,-0.5175 -0.595,-0.4837 -0.3075,-0.23 -0.3275,-0.195 -0.3275,-0.19 -0.3462,-0.195 -0.3475,-0.1513 -0.3663,-0.1575 -0.365,-0.1312 -0.3862,-0.1175 -0.4,-0.098 -0.4063,-0.092 -0.4237,-0.059 -0.425,-0.039 -0.44,-0.039 -0.4438,0 -0.097,2.0988 c 4.6963,0 5.2538,6.1375 5.2538,11.6012 0,4.69754 -0.7475,9.60004 -3.0575,19.08754 l -20.0338,0 c 1.6363,-6.1575 3.56,-13.8137 7.3725,-20.62504 2.6175,-4.6775 6.1388,-10.0637 10.465,-10.0637 l 0.097,-2.0988 c -13.3162,0 -28.0912,27.01634 -28.0912,48.96884 0,9.0287 2.7687,19.6687 11.5237,19.6687 l 0,-2.12 c -3.1937,0 -5.215,-2.7875 -5.215,-11.6787 0,-4.0388 0.5763,-9.6 3.0813,-18.97 l 19.9512,0 c -1.04,4.385 -3.0575,12.5237 -6.7337,19.4525 -3.33,6.5237 -6.9675,11.1962 -11.0838,11.1962 l 0,2.12 c 13.4913,0 28.0763,-27.515 28.0763,-48.99 z" />
  </g>
</svg>
