<?xml version="1.0" encoding="UTF-8" standalone="no"?>
<!-- Created with Inkscape (http://www.inkscape.org/) -->

<svg
   xmlns:dc="http://purl.org/dc/elements/1.1/"
   xmlns:cc="http://creativecommons.org/ns#"
   xmlns:rdf="http://www.w3.org/1999/02/22-rdf-syntax-ns#"
   xmlns:svg="http://www.w3.org/2000/svg"
   xmlns="http://www.w3.org/2000/svg"
   xmlns:sodipodi="http://sodipodi.sourceforge.net/DTD/sodipodi-0.dtd"
   xmlns:inkscape="http://www.inkscape.org/namespaces/inkscape"
   width="1197.9362"
   height="1093.9132"
   id="svg2"
   version="1.1"
   inkscape:version="0.48.4 r9939"
   sodipodi:docname="bondStrech.svg">
  <defs
     id="defs4">
    <clipPath
       clipPathUnits="userSpaceOnUse"
       id="clipPath3193">
      <path
         inkscape:connector-curvature="0"
         d="m 146.805,3458.84 725.176,0 0,-784.996 -725.176,0 0,784.996 z"
         id="path3195" />
    </clipPath>
    <clipPath
       clipPathUnits="userSpaceOnUse"
       id="clipPath3203">
      <path
         inkscape:connector-curvature="0"
         d="m 184,2672 216,0 0,788 -216,0 0,-788 z"
         id="path3205" />
    </clipPath>
    <clipPath
       clipPathUnits="userSpaceOnUse"
       id="clipPath3109">
      <path
         inkscape:connector-curvature="0"
         d="m 1393.598,3064.977 c 0,-6.864 -1.332,-13.723 -3.895,-20.063 -2.558,-6.34 -6.351,-12.156 -11.086,-17.008 -4.734,-4.851 -10.406,-8.738 -16.594,-11.363 -6.183,-2.625 -12.875,-3.992 -19.57,-3.992 -6.695,0 -13.391,1.367 -19.574,3.992 -6.188,2.625 -11.859,6.512 -16.594,11.363 -4.734,4.852 -8.523,10.668 -11.086,17.008 -2.562,6.34 -3.894,13.199 -3.894,20.063 0,6.863 1.332,13.722 3.894,20.062 2.563,6.34 6.352,12.156 11.086,17.008 4.735,4.851 10.406,8.738 16.594,11.363 6.183,2.629 12.879,3.992 19.574,3.992 6.695,0 13.387,-1.363 19.57,-3.992 6.188,-2.625 11.86,-6.512 16.594,-11.363 4.735,-4.852 8.528,-10.668 11.086,-17.008 2.563,-6.34 3.895,-13.199 3.895,-20.062 z"
         clip-rule="evenodd"
         id="path3111" />
    </clipPath>
    <radialGradient
       fx="171.2081"
       fy="196.85463"
       cx="171.2081"
       cy="196.85463"
       r="200"
       gradientUnits="userSpaceOnUse"
       gradientTransform="matrix(0.266069,-0.203622,-0.208299,-0.272181,1317.7534,3168.6603)"
       spreadMethod="pad"
       id="radialGradient3115">
      <stop
         style="stop-opacity:1;stop-color:#ffffff"
         offset="0"
         id="stop3117" />
      <stop
         style="stop-opacity:1;stop-color:#000000"
         offset="1"
         id="stop3119" />
    </radialGradient>
    <clipPath
       clipPathUnits="userSpaceOnUse"
       id="clipPath3091">
      <path
         inkscape:connector-curvature="0"
         d="m 1790.645,3066.309 c 0,-6.864 -1.329,-13.723 -3.891,-20.063 -2.563,-6.34 -6.356,-12.156 -11.09,-17.008 -4.734,-4.851 -10.406,-8.738 -16.594,-11.363 -6.183,-2.625 -12.875,-3.992 -19.57,-3.992 -6.695,0 -13.387,1.367 -19.574,3.992 -6.184,2.625 -11.86,6.512 -16.594,11.363 -4.734,4.852 -8.523,10.668 -11.086,17.008 -2.562,6.34 -3.894,13.199 -3.894,20.063 0,6.863 1.332,13.722 3.894,20.062 2.563,6.34 6.352,12.156 11.086,17.008 4.734,4.851 10.41,8.738 16.594,11.363 6.187,2.629 12.879,3.992 19.574,3.992 6.695,0 13.387,-1.363 19.57,-3.992 6.188,-2.625 11.86,-6.512 16.594,-11.363 4.734,-4.852 8.527,-10.668 11.09,-17.008 2.562,-6.34 3.891,-13.199 3.891,-20.062 z"
         clip-rule="evenodd"
         id="path3093" />
    </clipPath>
    <radialGradient
       fx="171.2081"
       fy="196.85463"
       cx="171.2081"
       cy="196.85463"
       r="200"
       gradientUnits="userSpaceOnUse"
       gradientTransform="matrix(0.266069,-0.203622,-0.208299,-0.272181,1714.801,3169.9923)"
       spreadMethod="pad"
       id="radialGradient3097">
      <stop
         style="stop-opacity:1;stop-color:#ffffff"
         offset="0"
         id="stop3099" />
      <stop
         style="stop-opacity:1;stop-color:#000000"
         offset="1"
         id="stop3101" />
    </radialGradient>
  </defs>
  <sodipodi:namedview
     id="base"
     pagecolor="#ffffff"
     bordercolor="#666666"
     borderopacity="1.0"
     inkscape:pageopacity="0.0"
     inkscape:pageshadow="2"
     inkscape:zoom="0.24748737"
     inkscape:cx="1979.9845"
     inkscape:cy="249.4897"
     inkscape:document-units="px"
     inkscape:current-layer="layer1"
     showgrid="false"
     fit-margin-top="0"
     fit-margin-left="0"
     fit-margin-right="0"
     fit-margin-bottom="0"
     inkscape:window-width="1855"
     inkscape:window-height="1176"
     inkscape:window-x="65"
     inkscape:window-y="24"
     inkscape:window-maximized="1" />
  <metadata
     id="metadata7">
    <rdf:RDF>
      <cc:Work
         rdf:about="">
        <dc:format>image/svg+xml</dc:format>
        <dc:type
           rdf:resource="http://purl.org/dc/dcmitype/StillImage" />
        <dc:title />
      </cc:Work>
    </rdf:RDF>
  </metadata>
  <g
     inkscape:label="Layer 1"
     inkscape:groupmode="layer"
     id="layer1"
     transform="translate(875.71806,214.59444)">
    <g
       transform="matrix(1.25,0,0,-1.25,-1916.0881,4116.1212)"
       id="g3087">
      <g
         id="g3089"
         clip-path="url(#clipPath3091)">
        <g
           id="g3095">
          <path
             inkscape:connector-curvature="0"
             d="m 1790.645,3066.309 c 0,-6.864 -1.329,-13.723 -3.891,-20.063 -2.563,-6.34 -6.356,-12.156 -11.09,-17.008 -4.734,-4.851 -10.406,-8.738 -16.594,-11.363 -6.183,-2.625 -12.875,-3.992 -19.57,-3.992 -6.695,0 -13.387,1.367 -19.574,3.992 -6.184,2.625 -11.86,6.512 -16.594,11.363 -4.734,4.852 -8.523,10.668 -11.086,17.008 -2.562,6.34 -3.894,13.199 -3.894,20.063 0,6.863 1.332,13.722 3.894,20.062 2.563,6.34 6.352,12.156 11.086,17.008 4.734,4.851 10.41,8.738 16.594,11.363 6.187,2.629 12.879,3.992 19.574,3.992 6.695,0 13.387,-1.363 19.57,-3.992 6.188,-2.625 11.86,-6.512 16.594,-11.363 4.734,-4.852 8.527,-10.668 11.09,-17.008 2.562,-6.34 3.891,-13.199 3.891,-20.062 z"
             style="fill:url(#radialGradient3097);fill-rule:evenodd;stroke:none"
             id="path3103" />
        </g>
      </g>
    </g>
    <g
       transform="matrix(1.25,0,0,-1.25,-1916.0881,4116.1212)"
       id="g3105">
      <g
         id="g3107"
         clip-path="url(#clipPath3109)">
        <g
           id="g3113">
          <path
             inkscape:connector-curvature="0"
             d="m 1393.598,3064.977 c 0,-6.864 -1.332,-13.723 -3.895,-20.063 -2.558,-6.34 -6.351,-12.156 -11.086,-17.008 -4.734,-4.851 -10.406,-8.738 -16.594,-11.363 -6.183,-2.625 -12.875,-3.992 -19.57,-3.992 -6.695,0 -13.391,1.367 -19.574,3.992 -6.188,2.625 -11.859,6.512 -16.594,11.363 -4.734,4.852 -8.523,10.668 -11.086,17.008 -2.562,6.34 -3.894,13.199 -3.894,20.063 0,6.863 1.332,13.722 3.894,20.062 2.563,6.34 6.352,12.156 11.086,17.008 4.735,4.851 10.406,8.738 16.594,11.363 6.183,2.629 12.879,3.992 19.574,3.992 6.695,0 13.387,-1.363 19.57,-3.992 6.188,-2.625 11.86,-6.512 16.594,-11.363 4.735,-4.852 8.528,-10.668 11.086,-17.008 2.563,-6.34 3.895,-13.199 3.895,-20.062 z"
             style="fill:url(#radialGradient3115);fill-rule:evenodd;stroke:none"
             id="path3121" />
        </g>
      </g>
    </g>
    <path
       inkscape:connector-curvature="0"
       d="m -174.98432,283.21617 52.7587,0 c 0,0 4.555,-36.60625 17.5875,-35.17625 24.023802,2.6375 35.171302,70.34625 17.587502,70.34625 -24.168702,0 -6.5862,-70.34625 17.5838,-70.34625 24.17,0 35.1762,70.34625 17.5875,70.34625 -24.17,0 -6.5813,-70.34625 17.5887,-70.34625 24.1688,0 35.16997998,70.34625 17.5825,70.34625 -24.17,0 -6.5825,-70.34625 17.58747998,-70.34625 24.17000002,0 35.17130002,70.34625 17.58380002,70.34625 -24.16998,0 -6.5825,-70.34625 17.5875,-70.34625 24.17,0 35.1712,70.34625 17.5875,70.34625 -24.17,0 -6.5863,-70.34625 17.5837,-70.34625 24.17,0 35.174998,70.34625 17.5875,70.34625 -24.17,0 -6.44,-67.70875 17.587498,-70.34625 13.0275,-1.43 17.5838,35.17625 17.5838,35.17625 l 70.3462,0"
       style="fill:none;stroke:#000000;stroke-width:5;stroke-linecap:butt;stroke-linejoin:miter;stroke-miterlimit:4;stroke-opacity:1;stroke-dasharray:none"
       id="path3123" />
    <text
       style="font-size:15px"
       y="849.99115"
       x="-585.3349"
       id="text3131">
      <tspan
         style="font-size:108.43062592px;font-variant:normal;font-weight:normal;writing-mode:lr-tb;fill:#000000;fill-opacity:1;fill-rule:nonzero;stroke:none;font-family:cmmi10;-inkscape-font-specification:Cmmi10"
         x="-585.3349"
         y="849.99115"
         id="tspan3133">r</tspan>
    </text>
    <text
       style="font-size:15px"
       y="877.65106"
       x="-536.41406"
       id="text3135">
      <tspan
         style="font-size:75.90144348px;font-variant:normal;font-weight:normal;writing-mode:lr-tb;fill:#000000;fill-opacity:1;fill-rule:nonzero;stroke:none;font-family:cmr10;-inkscape-font-specification:Cmr10"
         x="-536.41406"
         y="877.65106"
         id="tspan3137">0</tspan>
    </text>
    <text
       style="font-size:15px"
       y="794.6665"
       x="205.66681"
       id="text3139">
      <tspan
         style="font-size:115.60174561px;font-variant:normal;font-weight:normal;writing-mode:lr-tb;fill:#000000;fill-opacity:1;fill-rule:nonzero;stroke:none;font-family:cmmi10;-inkscape-font-specification:Cmmi10"
         x="205.66681"
         y="794.6665"
         id="tspan3141">r</tspan>
    </text>
    <text
       style="font-size:15px"
       y="-796.74988"
       x="-537.96906"
       transform="matrix(0,-1,1,0,0,0)"
       id="text3143">
      <tspan
         style="font-size:115.60174561px;font-variant:normal;font-weight:normal;writing-mode:lr-tb;fill:#000000;fill-opacity:1;fill-rule:nonzero;stroke:none;font-family:cmmi10;-inkscape-font-specification:Cmmi10"
         x="-537.96906"
         y="-796.74988"
         id="tspan3145">V</tspan>
    </text>
    <text
       style="font-size:15px"
       y="-767.26062"
       x="-470.5723"
       transform="matrix(0,-1,1,0,0,0)"
       id="text3147">
      <tspan
         style="font-size:80.92121887px;font-variant:normal;font-weight:normal;writing-mode:lr-tb;fill:#000000;fill-opacity:1;fill-rule:nonzero;stroke:none;font-family:cmr10;-inkscape-font-specification:Cmr10"
         x="-470.5723 -425.66104 -385.20041 -340.28915 -268.43106 -236.54814 -205.15068 -173.51048 -137.6624 -106.26494 -70.416855"
         y="-767.26062"
         sodipodi:role="line"
         id="tspan3149">bondstretch</tspan>
    </text>
    <path
       inkscape:connector-curvature="0"
       d="m -730.51048,769.77556 0,-981.245"
       style="fill:none;stroke:#000000;stroke-width:6.25;stroke-linecap:square;stroke-linejoin:round;stroke-miterlimit:10;stroke-opacity:1;stroke-dasharray:none"
       id="path3151" />
    <g
       transform="matrix(1.25,0,0,-1.25,-914.01674,4112.0806)"
       id="g3189">
      <g
         id="g3191"
         clip-path="url(#clipPath3193)">
        <g
           id="g3197"
           transform="translate(0,-0.339844)">
          <g
             id="g3199">
            <g
               id="g3201"
               clip-path="url(#clipPath3203)">
              <g
                 id="g3207">
                <g
                   id="g3209"
                   transform="translate(0,3460)">
                  <path
                     inkscape:connector-curvature="0"
                     d="m 186.328,45.141 5.484,-84.157 5.805,-84.195 5.809,-79.16 5.808,-74.125 5.805,-69.09 5.809,-64.059 5.804,-59.023 4.356,-40.965 4.355,-38.133 4.356,-35.3 4.355,-32.473 4.356,-29.637 4.355,-26.804 4.356,-23.977 2.906,-14.41 2.902,-13.149 2.903,-11.894 2.906,-10.633 2.902,-9.379 2.902,-8.117 2.907,-6.859 2.902,-5.598 2.902,-4.344 1.454,-1.699 1.453,-1.383 1.449,-1.07 1.453,-0.754 1.453,-0.442 1.449,-0.124 1.454,0.187 1.453,0.504 1.449,0.816 1.453,1.133 1.453,1.449 1.449,1.762 2.907,4.465 2.902,5.726 2.902,6.989 2.906,8.242 2.903,9.5 2.902,10.762 2.903,12.019 2.906,13.278 2.902,14.535 4.356,24.164 4.355,26.992 4.356,29.828 4.355,32.656 4.355,35.493 4.356,38.32 4.355,41.152 4.356,43.985 5.808,63.054 5.805,68.082 5.809,73.121 5.808,78.153 5.805,83.187 6.645,101.395"
                     style="fill:none;stroke:#000000;stroke-width:4;stroke-linecap:square;stroke-linejoin:round;stroke-miterlimit:10;stroke-opacity:1;stroke-dasharray:none"
                     id="path3211" />
                </g>
              </g>
            </g>
          </g>
        </g>
      </g>
    </g>
    <g
       transform="matrix(1.25,0,0,-1.25,-914.01674,4112.0806)"
       id="g3213">
      <path
         inkscape:connector-curvature="0"
         d="m 146.805,2673.844 725.175,0"
         style="fill:none;stroke:#000000;stroke-width:5;stroke-linecap:square;stroke-linejoin:round;stroke-miterlimit:10;stroke-opacity:1;stroke-dasharray:none"
         id="path3215" />
    </g>
    <path
       inkscape:connector-curvature="0"
       id="path3343"
       style="fill:#000000;fill-opacity:1;fill-rule:nonzero;stroke:none"
       d="m -222.31643,61.663092 0.855,-0.19 0.835,-0.19125 0.835,-0.24875 0.795,-0.24375 0.78125,-0.26875 0.7625,-0.3025 0.75625,-0.3225 0.7225,-0.3425 0.70375,-0.36125 0.68375,-0.38 0.66375,-0.40125 0.63,-0.395 0.605,-0.44 0.59125,-0.45375 0.57125,-0.47375 0.5325,-0.47875 0.5125,-0.4925 0.47375,-0.5125 0.45375,-0.5325 0.42,-0.5325 0.4,-0.55125 0.36125,-0.56625 0.3225,-0.57125 0.3025,-0.59125 0.26375,-0.605 0.23,-0.61125 0.21,-0.605 0.17125,-0.63 0.1125,-0.645 0.0975,-0.625 0.0537,-0.64875 0.0188,-0.66375 c 0,-8.22875 -8.72,-15.99625 -21.01,-15.99625 l -0.68375,2.94375 c 9.21375,0 12.5,8.0375 12.5,13.0525 0,6.05875 -4.63375,14.0225 -15.1425,14.0225 l -13.715,0 0,2.07125 17.7825,0 c 9.385,0 13.355,8.8125 13.355,15.14125 0,6.7425 -4.9225,14.4775 -14.6675,14.4775 l -11.83625,0 c -4.44375,0 -4.63375,-0.645 -4.63375,-3.765 l 0,-51.20125 c 0,-3.15375 0.19,-3.79875 4.63375,-3.79875 l 11.72375,0 0.68375,-2.94375 -34.63375,0 0,2.94375 2.24125,0 c 7.31375,0 7.485,1.025 7.485,4.44375 l 0,49.8725 c 0,3.42375 -0.17125,4.44875 -7.485,4.44875 l -2.24125,0 0,2.94375 37.10375,0 c 12.57875,0 21.10875,-8.4375 21.10875,-17.32875 0,-8.2225 -7.7925,-15.3325 -18.29625,-16.45 z" />
    <path
       inkscape:connector-curvature="0"
       id="path3345"
       style="fill:#000000;fill-opacity:1;fill-rule:nonzero;stroke:none"
       d="m -154.03518,75.188092 -0.0388,-1.1175 -0.0787,-1.12375 -0.13125,-1.10375 -0.19,-1.07875 -0.225,-1.06375 -0.28875,-1.045 -0.34125,-1.02625 -0.38125,-1.01 -0.415,-0.9675 -0.45875,-0.95125 -0.5125,-0.92875 -0.55125,-0.8925 -0.58625,-0.875 -0.63,-0.835 -0.645,-0.82 -0.7025,-0.75625 -0.7225,-0.7425 -0.7575,-0.70375 -0.8,-0.66375 -0.81625,-0.61 -0.85375,-0.58625 -0.875,-0.5325 -0.9125,-0.4975 -0.91375,-0.45375 -0.94625,-0.40125 -0.9725,-0.34125 -0.98625,-0.3025 -1.025,-0.245 -1.00625,-0.21 -1.045,-0.13625 -1.06375,-0.0925 -1.065,-0.02 -0.0975,2.07 c 4.165,0 8.2275,2.09 10.69875,6.1575 2.45125,4.0675 2.45125,9.55625 2.45125,13.145 0,3.4225 0,8.515 -2.07125,12.675 -2.07,4.2725 -6.23,7.0125 -10.98125,7.0125 -4.0675,0 -8.2275,-1.9975 -10.77125,-6.32875 -2.3775,-4.17875 -2.3775,-9.93625 -2.3775,-13.35875 0,-3.6825 0,-8.79375 2.26,-12.97375 2.58875,-4.33125 6.9925,-6.32875 10.79125,-6.32875 l 0.0975,-2.07 c -11.81625,0 -21.015,10.2975 -21.015,22.13375 0,12.2175 9.8625,21.29875 20.9175,21.29875 11.46,0 21.035,-9.2725 21.035,-21.29875 z" />
    <path
       inkscape:connector-curvature="0"
       id="path3347"
       style="fill:#000000;fill-opacity:1;fill-rule:nonzero;stroke:none"
       d="m -140.79268,62.879342 0,25.38 c 0,4.23875 -1.045,4.23875 -7.3925,4.23875 l 0,2.94375 c 3.325,-0.0975 8.13,-0.3025 10.67875,-0.3025 2.47,0 7.3875,0.205 10.6,0.3025 l 0,-2.94375 c -6.3275,0 -7.3525,0 -7.3525,-4.23875 l 0,-17.42125 c 0,-9.85875 6.70875,-15.1425 12.7675,-15.1425 5.9475,0 6.9925,5.1125 6.9925,10.50875 l 0,22.055 c 0,4.23875 -1.045,4.23875 -7.3925,4.23875 l 0,2.94375 c 3.325,-0.0975 8.16875,-0.3025 10.7175,-0.3025 2.47125,0 7.36875,0.205 10.60125,0.3025 l 0,-2.94375 c -4.9225,0 -7.295,0 -7.3925,-2.85125 l 0,-18.0675 c 0,-8.13375 0,-11.07875 -2.945,-14.4575 -1.30875,-1.63625 -4.44375,-3.49625 -9.91625,-3.49625 -6.915,0 -11.3625,4.0675 -14,9.8975 l 0,-9.8975 -13.35875,1.02625 0,2.94375 c 6.61125,0 7.3925,0.645 7.3925,5.28375 z" />
    <path
       inkscape:connector-curvature="0"
       id="path3349"
       style="fill:#000000;fill-opacity:1;fill-rule:nonzero;stroke:none"
       d="m -62.575178,90.256842 0,6.23 13.8875,-1.045 0,-2.94375 c -6.6125,0 -7.35375,-0.645 -7.35375,-5.28375 l 0,-57.47 -13.61875,1.045 0,2.94375 c 6.61125,0 7.34875,0.645 7.34875,5.3025 l 0,20.42 c -2.73375,-3.37875 -6.80125,-5.83 -11.92875,-5.83 l 0.38125,2.07 c 3.325,0 7.31375,1.42625 10.23875,5.66 1.045,1.61625 1.045,1.82625 1.045,3.515 l 0,19.41875 c 0,1.69 0,1.9 -1.045,3.49625 -2.85125,4.54125 -7.12375,6.61125 -11.19125,6.61125 -4.23875,0 -7.65625,-2.45125 -9.9175,-6.04 -2.45,-3.89625 -2.75375,-9.29125 -2.75375,-13.16875 0,-3.49625 0.19125,-9.19375 2.945,-13.4325 1.9925,-2.94375 5.56625,-6.06 10.67875,-6.06 l -0.38125,-2.07 c -11.1525,0 -21.10875,9.25375 -21.10875,21.45 0,12.02625 9.2925,21.41125 20.06375,21.41125 6.06,0 10.3375,-3.2125 12.71,-6.23 z" />
    <path
       inkscape:connector-curvature="0"
       id="path3351"
       style="fill:#000000;fill-opacity:1;fill-rule:nonzero;stroke:none"
       d="m 18.606062,58.718092 -12.0987,-2.92875 c -5.89380002,-1.42125 -9.58004,-6.53375 -9.58004,-12.02625 0,-6.63125 5.11254,-12.4025 12.50504,-12.4025 15.7862,0 17.875,15.5225 18.4462,19.795 0.074,0.57125 0.074,1.1225 1.1388,1.1225 1.235,0 1.235,-0.47875 1.235,-2.28 l 0,-18.99875 c 0,-1.63625 0,-2.28125 -1.045,-2.28125 -0.645,0 -0.7763,0.0737 -1.4263,1.23625 l -3.305,5.375 c -2.8475,-2.73375 -6.7237,-6.61125 -15.1612,-6.61125 -10.5025,0 -18.42754,8.34 -18.42754,18.37 0,7.82625 5.01375,14.74625 12.36754,17.30875 1.045,0.38125 5.8887,1.5 12.5,3.11625 2.5487,0.6825 5.3962,1.3325 8.0575,4.82375 1.9775,2.47 2.9237,5.58625 2.9237,8.70625 0,6.7425 -4.7112,13.545 -12.67,13.545 -2.7537,0 -9.9375,-0.47375 -14.95120002,-5.1125 -5.50878998,-5.1125 -5.79628998,-11.1525 -5.88878998,-14.57 -0.0975,-0.9525 -0.835,-0.9525 -1.12375,-0.9525 -1.215,0 -1.215,0.68375 -1.215,2.3775 l 0,18.94125 c 0,1.59625 0,2.24125 1.025,2.24125 0.66375,0 0.7425,-0.17125 1.40625,-1.21625 0,-0.0788 0.2875,-0.38125 3.40375,-5.395 2.94373998,3.2125 9.00374,6.61125 17.44124,6.61125 11.055,0 18.6375,-9.25375 18.6375,-19.66375 0,-9.4825 -6.235,-17.23125 -14.195,-19.13125 z" />
    <path
       inkscape:connector-curvature="0"
       id="path3353"
       style="fill:#000000;fill-opacity:1;fill-rule:nonzero;stroke:none"
       d="m 54.612362,57.595592 13.545,0 0,-2.94375 -13.545,0 0,-17.4225 -2.3775,0 c -0.074,7.74875 -2.925,17.895 -12.1975,18.25625 l 0,2.11 8.0562,0 0,26.1225 c 0,11.62625 8.78,12.76875 12.1975,12.76875 6.7038,0 9.385,-6.70875 9.385,-12.76875 l 0,-5.395 -2.3725,0 0,5.185 c 0,7.0125 -2.8525,10.60625 -6.3675,10.60625 -6.3237,0 -6.3237,-8.60875 -6.3237,-10.225 l 0,-26.29375 z" />
    <path
       inkscape:connector-curvature="0"
       id="path3355"
       style="fill:#000000;fill-opacity:1;fill-rule:nonzero;stroke:none"
       d="m 90.726062,63.996842 0,-10.37125 -13.145,1.02625 0,2.94375 c 6.6113,0 7.3875,0.645 7.3875,5.28375 l 0,25.38 c 0,4.23875 -1.045,4.23875 -7.3875,4.23875 l 0,2.94375 c 3.7013,-0.0975 8.13,-0.3025 10.7913,-0.3025 3.7787,0 8.2274,0 12.026198,0.3025 l 0,-2.94375 -1.977498,0 c -7.0113,0 -7.2163,-1.025 -7.2163,-4.44875 l 0,-14.57 c 0,-9.34625 3.9688,-17.78375 11.186298,-17.78375 0.6487,0 0.84,0 1.025,0.0937 -0.2825,0.0775 -2.1825,1.215 -2.1825,3.66625 0,2.68125 1.9975,4.0675 4.0875,4.0675 1.7087,0 4.0812,-1.1225 4.0812,-4.14 0,-3.0425 -2.9437,-5.7575 -7.0112,-5.7575 -6.913798,0 -10.332498,6.30875 -11.664998,10.37125 z" />
    <path
       inkscape:connector-curvature="0"
       id="path3357"
       style="fill:#000000;fill-opacity:1;fill-rule:nonzero;stroke:none"
       d="m 122.60606,73.571842 0.077,-1.9925 c 0.5712,-14.09625 8.53,-16.455 11.7575,-16.455 9.7325,0 10.6787,12.76875 10.6787,16.455 l -22.4362,0 -0.077,1.9925 26.4112,0 c 2.0888,0 2.3525,0 2.3525,-1.9925 0,-9.35 -5.1075,-18.525 -16.9287,-18.525 -10.9813,0 -19.7163,9.72625 -19.7163,21.5825 0,12.675 9.9513,21.85 20.84,21.85 11.5525,0 15.805,-10.5075 15.805,-12.295 0,-0.9475 -0.7562,-1.15625 -1.215,-1.15625 -0.8737,0 -1.045,0.57125 -1.255,1.3275 -3.3062,9.75125 -11.8162,9.75125 -12.7637,9.75125 -4.7513,0 -8.5113,-2.8325 -10.6788,-6.32875 -2.8512,-4.54125 -2.8512,-10.81 -2.8512,-14.21375 z" />
    <path
       inkscape:connector-curvature="0"
       id="path3359"
       style="fill:#000000;fill-opacity:1;fill-rule:nonzero;stroke:none"
       d="m 170.42856,57.595592 13.525,0 0,-2.94375 -13.525,0 0,-17.4225 -2.3738,0 c -0.098,7.74875 -2.9487,17.895 -12.1975,18.25625 l 0,2.11 8.0325,0 0,26.1225 c 0,11.62625 8.7788,12.76875 12.1975,12.76875 6.7088,0 9.39,-6.70875 9.39,-12.76875 l 0,-5.395 -2.3787,0 0,5.185 c 0,7.0125 -2.8463,10.60625 -6.3425,10.60625 -6.3275,0 -6.3275,-8.60875 -6.3275,-10.225 l 0,-26.29375 z" />
    <path
       inkscape:connector-curvature="0"
       id="path3361"
       style="fill:#000000;fill-opacity:1;fill-rule:nonzero;stroke:none"
       d="m 201.81476,74.806842 0,-0.7225 0.039,-1.36625 0.034,-0.665 0.1175,-1.28875 0.074,-0.61 0.078,-0.61 0.074,-0.58625 0.098,-0.57125 0.1125,-0.5525 0.1175,-0.55125 0.2638,-1.045 0.2825,-0.96625 0.3075,-0.9325 0.3612,-0.875 0.3613,-0.815 0.3962,-0.76125 0.42,-0.71875 0.4338,-0.66875 0.46,-0.605 0.4725,-0.57125 0.4937,-0.5325 0.4938,-0.49375 0.5125,-0.43375 0.5312,-0.4 0.5325,-0.3625 0.5325,-0.3025 0.5325,-0.2875 0.5325,-0.245 0.5513,-0.22875 0.5325,-0.17125 0.5325,-0.15125 0.5125,-0.1125 0.5125,-0.0975 0.5125,-0.0588 0.4937,-0.0337 0.4725,-0.02 c 0.84,0 6.8025,0.0925 10.1275,3.51625 -3.8912,0.2825 -4.4625,3.115 -4.4625,4.35 0,2.46625 1.7088,4.37 4.37,4.37 2.4313,0 4.3313,-1.635 4.3313,-4.4475 0,-6.44125 -7.1825,-10.1275 -14.4775,-10.1275 -11.8175,0 -20.5375,10.205 -20.5375,21.94375 0,12.10375 9.365,21.48875 20.3662,21.48875 12.6713,0 15.6938,-11.38125 15.6938,-12.295 0,-0.9475 -0.9475,-0.9475 -1.2163,-0.9475 -0.855,0 -1.045,0.3625 -1.255,0.9475 -2.715,8.78 -8.8725,9.9225 -12.3687,9.9225 -5.0138,0 -13.3538,-4.0675 -13.3538,-19.3075 z" />
    <path
       inkscape:connector-curvature="0"
       id="path3363"
       style="fill:#000000;fill-opacity:1;fill-rule:nonzero;stroke:none"
       d="m 240.36476,88.259342 0,0.7425 -0.02,0.34125 -0.039,0.3225 -0.039,0.28375 -0.04,0.2875 -0.054,0.245 -0.057,0.22875 -0.094,0.21 -0.097,0.21 -0.092,0.17125 -0.1362,0.17125 -0.1325,0.15125 -0.1513,0.13125 -0.1712,0.1125 -0.19,0.0975 -0.21,0.0925 -0.225,0.0975 -0.2488,0.0538 -0.2637,0.0787 -0.2875,0.0387 -0.3038,0.0538 -0.3412,0.02 -0.1713,0.0187 -0.38,0.04 -0.1912,0 -0.21,0.0187 -0.415,0 -0.2288,0.02 -2.6025,0 0,2.94375 c 3.325,-0.0975 8.13,-0.3025 10.6975,-0.3025 2.4663,0 7.3875,0.205 10.6013,0.3025 l 0,-2.94375 c -6.3288,0 -7.3738,0 -7.3738,-4.23875 l 0,-17.42125 c 0,-9.85875 6.7088,-15.1425 12.7688,-15.1425 5.9675,0 7.0125,5.1125 7.0125,10.50875 l 0,22.055 c 0,4.23875 -1.045,4.23875 -7.3938,4.23875 l 0,2.94375 c 3.3263,-0.0975 8.15,-0.3025 10.7188,-0.3025 2.4512,0 7.3487,0.205 10.58,0.3025 l 0,-2.94375 c -4.9213,0 -7.2938,0 -7.3725,-2.85125 l 0,-18.0675 c 0,-8.13375 0,-11.07875 -2.9438,-14.4575 -1.3087,-1.63625 -4.4637,-3.49625 -9.9175,-3.49625 -7.9587,0 -12.1387,5.66 -13.735,9.25375 l 0,-33.135 -13.6425,1.045 0,2.94375 c 6.63,0 7.3925,0.645 7.3925,5.3025 l 0,49.22375 z" />
  </g>
</svg>
