<?xml version="1.0" encoding="UTF-8" standalone="no"?>
<!-- Created with Inkscape (http://www.inkscape.org/) -->

<svg
   xmlns:dc="http://purl.org/dc/elements/1.1/"
   xmlns:cc="http://creativecommons.org/ns#"
   xmlns:rdf="http://www.w3.org/1999/02/22-rdf-syntax-ns#"
   xmlns:svg="http://www.w3.org/2000/svg"
   xmlns="http://www.w3.org/2000/svg"
   xmlns:sodipodi="http://sodipodi.sourceforge.net/DTD/sodipodi-0.dtd"
   xmlns:inkscape="http://www.inkscape.org/namespaces/inkscape"
   id="svg2985"
   version="1.1"
   inkscape:version="0.48.4 r9939"
   width="2430.7625"
   height="4324.5752"
   xml:space="preserve"
   sodipodi:docname="clay.pdf"><metadata
     id="metadata2991"><rdf:RDF><cc:Work
         rdf:about=""><dc:format>image/svg+xml</dc:format><dc:type
           rdf:resource="http://purl.org/dc/dcmitype/StillImage" /><dc:title></dc:title></cc:Work></rdf:RDF></metadata><defs
     id="defs2989"><clipPath
       clipPathUnits="userSpaceOnUse"
       id="clipPath3001"><path
         d="m 1392.543,1284.949 c 0,-6.859 -1.332,-13.722 -3.895,-20.062 -2.562,-6.34 -6.351,-12.153 -11.086,-17.008 -4.734,-4.852 -10.406,-8.738 -16.593,-11.363 -6.184,-2.625 -12.879,-3.993 -19.574,-3.993 -6.696,0 -13.387,1.368 -19.571,3.993 -6.187,2.625 -11.859,6.511 -16.594,11.363 -4.734,4.855 -8.527,10.668 -11.085,17.008 -2.563,6.34 -3.895,13.203 -3.895,20.062 0,6.863 1.332,13.723 3.895,20.063 2.558,6.34 6.351,12.156 11.085,17.008 4.735,4.855 10.407,8.738 16.594,11.367 6.184,2.625 12.875,3.988 19.571,3.988 6.695,0 13.39,-1.363 19.574,-3.988 6.187,-2.629 11.859,-6.512 16.593,-11.367 4.735,-4.852 8.524,-10.668 11.086,-17.008 2.563,-6.34 3.895,-13.2 3.895,-20.063 z"
         clip-rule="evenodd"
         id="path3003" /></clipPath><radialGradient
       fx="171.2081"
       fy="196.85463"
       cx="171.2081"
       cy="196.85463"
       r="200"
       gradientUnits="userSpaceOnUse"
       gradientTransform="matrix(0.266069,-0.203622,-0.208299,-0.272181,1316.6979,1388.6336)"
       spreadMethod="pad"
       id="radialGradient3007"><stop
         style="stop-opacity:1;stop-color:#ffffff"
         offset="0"
         id="stop3009" /><stop
         style="stop-opacity:1;stop-color:#000000"
         offset="1"
         id="stop3011" /></radialGradient><clipPath
       clipPathUnits="userSpaceOnUse"
       id="clipPath3019"><path
         d="m 1845.805,1284.949 c 0,-10.547 -2.047,-21.094 -5.985,-30.84 -3.941,-9.746 -9.765,-18.683 -17.047,-26.144 -7.277,-7.461 -15.996,-13.434 -25.503,-17.469 -9.512,-4.039 -19.797,-6.137 -30.09,-6.137 -10.293,0 -20.578,2.098 -30.09,6.137 -9.508,4.035 -18.227,10.008 -25.504,17.469 -7.281,7.461 -13.106,16.398 -17.047,26.144 -3.937,9.746 -5.984,20.293 -5.984,30.84 0,10.551 2.047,21.094 5.984,30.84 3.941,9.746 9.766,18.688 17.047,26.149 7.277,7.457 15.996,13.429 25.504,17.468 9.512,4.035 19.797,6.133 30.09,6.133 10.293,0 20.578,-2.098 30.09,-6.133 9.507,-4.039 18.226,-10.011 25.503,-17.468 7.282,-7.461 13.106,-16.403 17.047,-26.149 3.938,-9.746 5.985,-20.289 5.985,-30.84 z"
         clip-rule="evenodd"
         id="path3021" /></clipPath><radialGradient
       fx="171.2081"
       fy="196.85463"
       cx="171.2081"
       cy="196.85463"
       r="200"
       gradientUnits="userSpaceOnUse"
       gradientTransform="matrix(0.40901,-0.313014,-0.320204,-0.418405,1729.2128,1444.3355)"
       spreadMethod="pad"
       id="radialGradient3025"><stop
         style="stop-opacity:1;stop-color:#ffffff"
         offset="0"
         id="stop3027" /><stop
         style="stop-opacity:1;stop-color:#000000"
         offset="1"
         id="stop3029" /></radialGradient><clipPath
       clipPathUnits="userSpaceOnUse"
       id="clipPath3037"><path
         d="m 1813.961,2296.07 c 0,-6.863 -1.332,-13.722 -3.895,-20.062 -2.562,-6.34 -6.351,-12.156 -11.086,-17.008 -4.734,-4.855 -10.406,-8.738 -16.593,-11.367 -6.184,-2.625 -12.879,-3.988 -19.575,-3.988 -6.695,0 -13.386,1.363 -19.57,3.988 -6.187,2.629 -11.859,6.512 -16.594,11.367 -4.734,4.852 -8.527,10.668 -11.086,17.008 -2.562,6.34 -3.894,13.199 -3.894,20.062 0,6.86 1.332,13.719 3.894,20.063 2.559,6.34 6.352,12.152 11.086,17.008 4.735,4.851 10.407,8.738 16.594,11.363 6.184,2.625 12.875,3.988 19.57,3.988 6.696,0 13.391,-1.363 19.575,-3.988 6.187,-2.625 11.859,-6.512 16.593,-11.363 4.735,-4.856 8.524,-10.668 11.086,-17.008 2.563,-6.344 3.895,-13.203 3.895,-20.063 z"
         clip-rule="evenodd"
         id="path3039" /></clipPath><radialGradient
       fx="171.2081"
       fy="196.85463"
       cx="171.2081"
       cy="196.85463"
       r="200"
       gradientUnits="userSpaceOnUse"
       gradientTransform="matrix(0.266069,-0.203622,-0.208299,-0.272181,1738.1158,2399.752)"
       spreadMethod="pad"
       id="radialGradient3043"><stop
         style="stop-opacity:1;stop-color:#ffffff"
         offset="0"
         id="stop3045" /><stop
         style="stop-opacity:1;stop-color:#000000"
         offset="1"
         id="stop3047" /></radialGradient><clipPath
       clipPathUnits="userSpaceOnUse"
       id="clipPath3055"><path
         d="m 1592.977,2052.855 c 0,-6.863 -1.332,-13.722 -3.891,-20.062 -2.563,-6.34 -6.356,-12.156 -11.09,-17.008 -4.734,-4.855 -10.406,-8.738 -16.594,-11.367 -6.183,-2.625 -12.875,-3.988 -19.57,-3.988 -6.695,0 -13.387,1.363 -19.574,3.988 -6.184,2.629 -11.86,6.512 -16.594,11.367 -4.734,4.852 -8.523,10.668 -11.086,17.008 -2.562,6.34 -3.894,13.199 -3.894,20.062 0,6.86 1.332,13.723 3.894,20.063 2.563,6.34 6.352,12.152 11.086,17.008 4.734,4.851 10.41,8.738 16.594,11.363 6.187,2.625 12.879,3.992 19.574,3.992 6.695,0 13.387,-1.367 19.57,-3.992 6.188,-2.625 11.86,-6.512 16.594,-11.363 4.734,-4.856 8.527,-10.668 11.09,-17.008 2.559,-6.34 3.891,-13.203 3.891,-20.063 z"
         clip-rule="evenodd"
         id="path3057" /></clipPath><radialGradient
       fx="171.2081"
       fy="196.85463"
       cx="171.2081"
       cy="196.85463"
       r="200"
       gradientUnits="userSpaceOnUse"
       gradientTransform="matrix(0.266069,-0.203622,-0.208299,-0.272181,1517.1328,2156.5375)"
       spreadMethod="pad"
       id="radialGradient3061"><stop
         style="stop-opacity:1;stop-color:#ffffff"
         offset="0"
         id="stop3063" /><stop
         style="stop-opacity:1;stop-color:#000000"
         offset="1"
         id="stop3065" /></radialGradient><clipPath
       clipPathUnits="userSpaceOnUse"
       id="clipPath3073"><path
         d="m 1370.344,2296.07 c 0,-6.863 -1.328,-13.722 -3.891,-20.062 -2.562,-6.34 -6.355,-12.156 -11.09,-17.008 -4.734,-4.855 -10.406,-8.738 -16.593,-11.367 -6.184,-2.625 -12.875,-3.988 -19.571,-3.988 -6.695,0 -13.387,1.363 -19.574,3.988 -6.184,2.629 -11.859,6.512 -16.594,11.367 -4.734,4.852 -8.523,10.668 -11.086,17.008 -2.562,6.34 -3.894,13.199 -3.894,20.062 0,6.86 1.332,13.719 3.894,20.063 2.563,6.34 6.352,12.152 11.086,17.008 4.735,4.851 10.41,8.738 16.594,11.363 6.187,2.625 12.879,3.988 19.574,3.988 6.696,0 13.387,-1.363 19.571,-3.988 6.187,-2.625 11.859,-6.512 16.593,-11.363 4.735,-4.856 8.528,-10.668 11.09,-17.008 2.563,-6.344 3.891,-13.203 3.891,-20.063 z"
         clip-rule="evenodd"
         id="path3075" /></clipPath><radialGradient
       fx="171.2081"
       fy="196.85463"
       cx="171.2081"
       cy="196.85463"
       r="200"
       gradientUnits="userSpaceOnUse"
       gradientTransform="matrix(0.266069,-0.203622,-0.208299,-0.272181,1294.5001,2399.752)"
       spreadMethod="pad"
       id="radialGradient3079"><stop
         style="stop-opacity:1;stop-color:#ffffff"
         offset="0"
         id="stop3081" /><stop
         style="stop-opacity:1;stop-color:#000000"
         offset="1"
         id="stop3083" /></radialGradient><clipPath
       clipPathUnits="userSpaceOnUse"
       id="clipPath3091"><path
         d="m 1790.645,3066.309 c 0,-6.864 -1.329,-13.723 -3.891,-20.063 -2.563,-6.34 -6.356,-12.156 -11.09,-17.008 -4.734,-4.851 -10.406,-8.738 -16.594,-11.363 -6.183,-2.625 -12.875,-3.992 -19.57,-3.992 -6.695,0 -13.387,1.367 -19.574,3.992 -6.184,2.625 -11.86,6.512 -16.594,11.363 -4.734,4.852 -8.523,10.668 -11.086,17.008 -2.562,6.34 -3.894,13.199 -3.894,20.063 0,6.863 1.332,13.722 3.894,20.062 2.563,6.34 6.352,12.156 11.086,17.008 4.734,4.851 10.41,8.738 16.594,11.363 6.187,2.629 12.879,3.992 19.574,3.992 6.695,0 13.387,-1.363 19.57,-3.992 6.188,-2.625 11.86,-6.512 16.594,-11.363 4.734,-4.852 8.527,-10.668 11.09,-17.008 2.562,-6.34 3.891,-13.199 3.891,-20.062 z"
         clip-rule="evenodd"
         id="path3093" /></clipPath><radialGradient
       fx="171.2081"
       fy="196.85463"
       cx="171.2081"
       cy="196.85463"
       r="200"
       gradientUnits="userSpaceOnUse"
       gradientTransform="matrix(0.266069,-0.203622,-0.208299,-0.272181,1714.801,3169.9923)"
       spreadMethod="pad"
       id="radialGradient3097"><stop
         style="stop-opacity:1;stop-color:#ffffff"
         offset="0"
         id="stop3099" /><stop
         style="stop-opacity:1;stop-color:#000000"
         offset="1"
         id="stop3101" /></radialGradient><clipPath
       clipPathUnits="userSpaceOnUse"
       id="clipPath3109"><path
         d="m 1393.598,3064.977 c 0,-6.864 -1.332,-13.723 -3.895,-20.063 -2.558,-6.34 -6.351,-12.156 -11.086,-17.008 -4.734,-4.851 -10.406,-8.738 -16.594,-11.363 -6.183,-2.625 -12.875,-3.992 -19.57,-3.992 -6.695,0 -13.391,1.367 -19.574,3.992 -6.188,2.625 -11.859,6.512 -16.594,11.363 -4.734,4.852 -8.523,10.668 -11.086,17.008 -2.562,6.34 -3.894,13.199 -3.894,20.063 0,6.863 1.332,13.722 3.894,20.062 2.563,6.34 6.352,12.156 11.086,17.008 4.735,4.851 10.406,8.738 16.594,11.363 6.183,2.629 12.879,3.992 19.574,3.992 6.695,0 13.387,-1.363 19.57,-3.992 6.188,-2.625 11.86,-6.512 16.594,-11.363 4.735,-4.852 8.528,-10.668 11.086,-17.008 2.563,-6.34 3.895,-13.199 3.895,-20.062 z"
         clip-rule="evenodd"
         id="path3111" /></clipPath><radialGradient
       fx="171.2081"
       fy="196.85463"
       cx="171.2081"
       cy="196.85463"
       r="200"
       gradientUnits="userSpaceOnUse"
       gradientTransform="matrix(0.266069,-0.203622,-0.208299,-0.272181,1317.7534,3168.6603)"
       spreadMethod="pad"
       id="radialGradient3115"><stop
         style="stop-opacity:1;stop-color:#ffffff"
         offset="0"
         id="stop3117" /><stop
         style="stop-opacity:1;stop-color:#000000"
         offset="1"
         id="stop3119" /></radialGradient><clipPath
       clipPathUnits="userSpaceOnUse"
       id="clipPath3193"><path
         d="m 146.805,3458.84 725.176,0 0,-784.996 -725.176,0 0,784.996 z"
         id="path3195" /></clipPath><clipPath
       clipPathUnits="userSpaceOnUse"
       id="clipPath3203"><path
         d="m 184,2672 216,0 0,788 -216,0 0,-788 z"
         id="path3205" /></clipPath><clipPath
       clipPathUnits="userSpaceOnUse"
       id="clipPath3221"><path
         d="m 146.805,2568.223 725.176,0 0,-784.992 -725.176,0 0,784.992 z"
         id="path3223" /></clipPath><clipPath
       clipPathUnits="userSpaceOnUse"
       id="clipPath3231"><path
         d="m 144,1781 302,0 0,1679 -302,0 0,-1679 z"
         id="path3233" /></clipPath><clipPath
       clipPathUnits="userSpaceOnUse"
       id="clipPath3251"><path
         d="m 146.805,1677.609 725.176,0 0,-784.996 -725.176,0 0,784.996 z"
         id="path3253" /></clipPath><clipPath
       clipPathUnits="userSpaceOnUse"
       id="clipPath3261"><path
         d="m 159,906 716,0 0,774 -716,0 0,-774 z"
         id="path3263" /></clipPath><clipPath
       clipPathUnits="userSpaceOnUse"
       id="clipPath3281"><path
         d="m 146.805,786.992 725.176,0 0,-784.992 -725.176,0 0,784.992 z"
         id="path3283" /></clipPath><clipPath
       clipPathUnits="userSpaceOnUse"
       id="clipPath3291"><path
         d="m 246,65 629,0 0,3395 -629,0 0,-3395 z"
         id="path3293" /></clipPath><clipPath
       clipPathUnits="userSpaceOnUse"
       id="clipPath3311"><path
         d="m 1448.711,395.48 c 0,-6.859 -1.988,-13.718 -5.816,-20.062 -3.829,-6.34 -9.493,-12.152 -16.567,-17.008 -7.074,-4.851 -15.551,-8.738 -24.793,-11.363 -9.242,-2.625 -19.242,-3.988 -29.246,-3.988 -10.004,0 -20.004,1.363 -29.246,3.988 -9.242,2.625 -17.723,6.512 -24.793,11.363 -7.074,4.856 -12.738,10.668 -16.566,17.008 -3.832,6.344 -5.821,13.203 -5.821,20.062 0,6.864 1.989,13.723 5.821,20.063 3.828,6.34 9.492,12.156 16.566,17.008 7.07,4.855 15.551,8.738 24.793,11.367 9.242,2.625 19.242,3.988 29.246,3.988 10.004,0 20.004,-1.363 29.246,-3.988 9.242,-2.629 17.719,-6.512 24.793,-11.367 7.074,-4.852 12.738,-10.668 16.567,-17.008 3.828,-6.34 5.816,-13.199 5.816,-20.063 z"
         clip-rule="evenodd"
         id="path3313" /></clipPath><radialGradient
       fx="171.2081"
       fy="196.85463"
       cx="171.2081"
       cy="196.85463"
       r="200"
       gradientUnits="userSpaceOnUse"
       gradientTransform="matrix(0.397563,-0.203622,-0.311243,-0.272181,1335.3838,499.16536)"
       spreadMethod="pad"
       id="radialGradient3317"><stop
         style="stop-opacity:1;stop-color:#ffffff"
         offset="0"
         id="stop3319" /><stop
         style="stop-opacity:1;stop-color:#000000"
         offset="1"
         id="stop3321" /></radialGradient><clipPath
       clipPathUnits="userSpaceOnUse"
       id="clipPath3329"><path
         d="m 1816.125,395.48 c 0,-6.859 -1.988,-13.718 -5.816,-20.062 -3.829,-6.34 -9.493,-12.152 -16.567,-17.008 -7.074,-4.851 -15.551,-8.738 -24.793,-11.363 -9.242,-2.625 -19.242,-3.988 -29.246,-3.988 -10.004,0 -20.004,1.363 -29.246,3.988 -9.242,2.625 -17.723,6.512 -24.793,11.363 -7.074,4.856 -12.738,10.668 -16.566,17.008 -3.832,6.344 -5.821,13.203 -5.821,20.062 0,6.864 1.989,13.723 5.821,20.063 3.828,6.34 9.492,12.156 16.566,17.008 7.07,4.855 15.551,8.738 24.793,11.367 9.242,2.625 19.242,3.988 29.246,3.988 10.004,0 20.004,-1.363 29.246,-3.988 9.242,-2.629 17.719,-6.512 24.793,-11.367 7.074,-4.852 12.738,-10.668 16.567,-17.008 3.828,-6.34 5.816,-13.199 5.816,-20.063 z"
         clip-rule="evenodd"
         id="path3331" /></clipPath><radialGradient
       fx="171.2081"
       fy="196.85463"
       cx="171.2081"
       cy="196.85463"
       r="200"
       gradientUnits="userSpaceOnUse"
       gradientTransform="matrix(0.397563,-0.203622,-0.311243,-0.272181,1702.7978,499.16536)"
       spreadMethod="pad"
       id="radialGradient3335"><stop
         style="stop-opacity:1;stop-color:#ffffff"
         offset="0"
         id="stop3337" /><stop
         style="stop-opacity:1;stop-color:#000000"
         offset="1"
         id="stop3339" /></radialGradient></defs><sodipodi:namedview
     pagecolor="#ffffff"
     bordercolor="#666666"
     borderopacity="1"
     objecttolerance="10"
     gridtolerance="10"
     guidetolerance="10"
     inkscape:pageopacity="0"
     inkscape:pageshadow="2"
     inkscape:window-width="1855"
     inkscape:window-height="1176"
     id="namedview2987"
     showgrid="false"
     inkscape:zoom="0.65207372"
     inkscape:cx="1130.6502"
     inkscape:cy="2545.454"
     inkscape:window-x="65"
     inkscape:window-y="24"
     inkscape:window-maximized="1"
     inkscape:current-layer="g2995" /><g
     id="g2993"
     inkscape:groupmode="layer"
     inkscape:label="clay"
     transform="matrix(1.25,0,0,-1.25,0,4324.5752)"><g
       id="g2995"><g
         id="g2997"><g
           id="g2999"
           clip-path="url(#clipPath3001)"><g
             id="g3005"><path
               d="m 1392.543,1284.949 c 0,-6.859 -1.332,-13.722 -3.895,-20.062 -2.562,-6.34 -6.351,-12.153 -11.086,-17.008 -4.734,-4.852 -10.406,-8.738 -16.593,-11.363 -6.184,-2.625 -12.879,-3.993 -19.574,-3.993 -6.696,0 -13.387,1.368 -19.571,3.993 -6.187,2.625 -11.859,6.511 -16.594,11.363 -4.734,4.855 -8.527,10.668 -11.085,17.008 -2.563,6.34 -3.895,13.203 -3.895,20.062 0,6.863 1.332,13.723 3.895,20.063 2.558,6.34 6.351,12.156 11.085,17.008 4.735,4.855 10.407,8.738 16.594,11.367 6.184,2.625 12.875,3.988 19.571,3.988 6.695,0 13.39,-1.363 19.574,-3.988 6.187,-2.629 11.859,-6.512 16.593,-11.367 4.735,-4.852 8.524,-10.668 11.086,-17.008 2.563,-6.34 3.895,-13.2 3.895,-20.063 z"
               style="fill:url(#radialGradient3007);fill-rule:evenodd;stroke:none"
               id="path3013" /></g></g></g><g
         id="g3015"><g
           id="g3017"
           clip-path="url(#clipPath3019)"><g
             id="g3023"><path
               d="m 1845.805,1284.949 c 0,-10.547 -2.047,-21.094 -5.985,-30.84 -3.941,-9.746 -9.765,-18.683 -17.047,-26.144 -7.277,-7.461 -15.996,-13.434 -25.503,-17.469 -9.512,-4.039 -19.797,-6.137 -30.09,-6.137 -10.293,0 -20.578,2.098 -30.09,6.137 -9.508,4.035 -18.227,10.008 -25.504,17.469 -7.281,7.461 -13.106,16.398 -17.047,26.144 -3.937,9.746 -5.984,20.293 -5.984,30.84 0,10.551 2.047,21.094 5.984,30.84 3.941,9.746 9.766,18.688 17.047,26.149 7.277,7.457 15.996,13.429 25.504,17.468 9.512,4.035 19.797,6.133 30.09,6.133 10.293,0 20.578,-2.098 30.09,-6.133 9.507,-4.039 18.226,-10.011 25.503,-17.468 7.282,-7.461 13.106,-16.403 17.047,-26.149 3.938,-9.746 5.985,-20.289 5.985,-30.84 z"
               style="fill:url(#radialGradient3025);fill-rule:evenodd;stroke:none"
               id="path3031" /></g></g></g><g
         id="g3033"><g
           id="g3035"
           clip-path="url(#clipPath3037)"><g
             id="g3041"><path
               d="m 1813.961,2296.07 c 0,-6.863 -1.332,-13.722 -3.895,-20.062 -2.562,-6.34 -6.351,-12.156 -11.086,-17.008 -4.734,-4.855 -10.406,-8.738 -16.593,-11.367 -6.184,-2.625 -12.879,-3.988 -19.575,-3.988 -6.695,0 -13.386,1.363 -19.57,3.988 -6.187,2.629 -11.859,6.512 -16.594,11.367 -4.734,4.852 -8.527,10.668 -11.086,17.008 -2.562,6.34 -3.894,13.199 -3.894,20.062 0,6.86 1.332,13.719 3.894,20.063 2.559,6.34 6.352,12.152 11.086,17.008 4.735,4.851 10.407,8.738 16.594,11.363 6.184,2.625 12.875,3.988 19.57,3.988 6.696,0 13.391,-1.363 19.575,-3.988 6.187,-2.625 11.859,-6.512 16.593,-11.363 4.735,-4.856 8.524,-10.668 11.086,-17.008 2.563,-6.344 3.895,-13.203 3.895,-20.063 z"
               style="fill:url(#radialGradient3043);fill-rule:evenodd;stroke:none"
               id="path3049" /></g></g></g><g
         id="g3051"><g
           id="g3053"
           clip-path="url(#clipPath3055)"><g
             id="g3059"><path
               d="m 1592.977,2052.855 c 0,-6.863 -1.332,-13.722 -3.891,-20.062 -2.563,-6.34 -6.356,-12.156 -11.09,-17.008 -4.734,-4.855 -10.406,-8.738 -16.594,-11.367 -6.183,-2.625 -12.875,-3.988 -19.57,-3.988 -6.695,0 -13.387,1.363 -19.574,3.988 -6.184,2.629 -11.86,6.512 -16.594,11.367 -4.734,4.852 -8.523,10.668 -11.086,17.008 -2.562,6.34 -3.894,13.199 -3.894,20.062 0,6.86 1.332,13.723 3.894,20.063 2.563,6.34 6.352,12.152 11.086,17.008 4.734,4.851 10.41,8.738 16.594,11.363 6.187,2.625 12.879,3.992 19.574,3.992 6.695,0 13.387,-1.367 19.57,-3.992 6.188,-2.625 11.86,-6.512 16.594,-11.363 4.734,-4.856 8.527,-10.668 11.09,-17.008 2.559,-6.34 3.891,-13.203 3.891,-20.063 z"
               style="fill:url(#radialGradient3061);fill-rule:evenodd;stroke:none"
               id="path3067" /></g></g></g><g
         id="g3069"><g
           id="g3071"
           clip-path="url(#clipPath3073)"><g
             id="g3077"><path
               d="m 1370.344,2296.07 c 0,-6.863 -1.328,-13.722 -3.891,-20.062 -2.562,-6.34 -6.355,-12.156 -11.09,-17.008 -4.734,-4.855 -10.406,-8.738 -16.593,-11.367 -6.184,-2.625 -12.875,-3.988 -19.571,-3.988 -6.695,0 -13.387,1.363 -19.574,3.988 -6.184,2.629 -11.859,6.512 -16.594,11.367 -4.734,4.852 -8.523,10.668 -11.086,17.008 -2.562,6.34 -3.894,13.199 -3.894,20.062 0,6.86 1.332,13.719 3.894,20.063 2.563,6.34 6.352,12.152 11.086,17.008 4.735,4.851 10.41,8.738 16.594,11.363 6.187,2.625 12.879,3.988 19.574,3.988 6.696,0 13.387,-1.363 19.571,-3.988 6.187,-2.625 11.859,-6.512 16.593,-11.363 4.735,-4.856 8.528,-10.668 11.09,-17.008 2.563,-6.344 3.891,-13.203 3.891,-20.063 z"
               style="fill:url(#radialGradient3079);fill-rule:evenodd;stroke:none"
               id="path3085" /></g></g></g><g
         id="g3087"><g
           id="g3089"
           clip-path="url(#clipPath3091)"><g
             id="g3095"><path
               d="m 1790.645,3066.309 c 0,-6.864 -1.329,-13.723 -3.891,-20.063 -2.563,-6.34 -6.356,-12.156 -11.09,-17.008 -4.734,-4.851 -10.406,-8.738 -16.594,-11.363 -6.183,-2.625 -12.875,-3.992 -19.57,-3.992 -6.695,0 -13.387,1.367 -19.574,3.992 -6.184,2.625 -11.86,6.512 -16.594,11.363 -4.734,4.852 -8.523,10.668 -11.086,17.008 -2.562,6.34 -3.894,13.199 -3.894,20.063 0,6.863 1.332,13.722 3.894,20.062 2.563,6.34 6.352,12.156 11.086,17.008 4.734,4.851 10.41,8.738 16.594,11.363 6.187,2.629 12.879,3.992 19.574,3.992 6.695,0 13.387,-1.363 19.57,-3.992 6.188,-2.625 11.86,-6.512 16.594,-11.363 4.734,-4.852 8.527,-10.668 11.09,-17.008 2.562,-6.34 3.891,-13.199 3.891,-20.062 z"
               style="fill:url(#radialGradient3097);fill-rule:evenodd;stroke:none"
               id="path3103" /></g></g></g><g
         id="g3105"><g
           id="g3107"
           clip-path="url(#clipPath3109)"><g
             id="g3113"><path
               d="m 1393.598,3064.977 c 0,-6.864 -1.332,-13.723 -3.895,-20.063 -2.558,-6.34 -6.351,-12.156 -11.086,-17.008 -4.734,-4.851 -10.406,-8.738 -16.594,-11.363 -6.183,-2.625 -12.875,-3.992 -19.57,-3.992 -6.695,0 -13.391,1.367 -19.574,3.992 -6.188,2.625 -11.859,6.512 -16.594,11.363 -4.734,4.852 -8.523,10.668 -11.086,17.008 -2.562,6.34 -3.894,13.199 -3.894,20.063 0,6.863 1.332,13.722 3.894,20.062 2.563,6.34 6.352,12.156 11.086,17.008 4.735,4.851 10.406,8.738 16.594,11.363 6.183,2.629 12.879,3.992 19.574,3.992 6.695,0 13.387,-1.363 19.57,-3.992 6.188,-2.625 11.86,-6.512 16.594,-11.363 4.735,-4.852 8.528,-10.668 11.086,-17.008 2.563,-6.34 3.895,-13.199 3.895,-20.062 z"
               style="fill:url(#radialGradient3115);fill-rule:evenodd;stroke:none"
               id="path3121" /></g></g></g><path
         d="m 1392.883,3066.324 42.207,0 c 0,0 3.644,29.285 14.07,28.141 19.219,-2.11 28.137,-56.277 14.07,-56.277 -19.335,0 -5.269,56.277 14.067,56.277 19.336,0 28.141,-56.277 14.07,-56.277 -19.336,0 -5.265,56.277 14.071,56.277 19.335,0 28.136,-56.277 14.066,-56.277 -19.336,0 -5.266,56.277 14.07,56.277 19.336,0 28.137,-56.277 14.067,-56.277 -19.336,0 -5.266,56.277 14.07,56.277 19.336,0 28.137,-56.277 14.07,-56.277 -19.336,0 -5.269,56.277 14.067,56.277 19.336,0 28.14,-56.277 14.07,-56.277 -19.336,0 -5.152,54.167 14.07,56.277 10.422,1.144 14.067,-28.141 14.067,-28.141 l 56.277,0"
         style="fill:none;stroke:#000000;stroke-opacity:1;stroke-width:4;stroke-linecap:butt;stroke-linejoin:miter;stroke-miterlimit:4;stroke-dasharray:none"
         id="path3123" /><path
         d="m 1444.418,2143.68 1.2292,37.6245 c 0,0 0.4228,24.5395 10.8448,23.3945 19.223,-2.109 23.867,-54.492 9.797,-54.492 -19.336,0 -5.266,66.828 14.07,66.828 19.336,0 28.137,-56.277 14.067,-56.277 -19.336,0 -5.266,65.07 14.07,65.07 19.336,0 32.938,-56.277 18.867,-56.277 -19.336,0 -5.265,65.07 14.071,65.07 19.336,0 30.328,-65.723 16.261,-65.723 -19.336,0 -4.711,57.25 14.625,57.25 19.336,0 27.305,-65.39 13.239,-65.39 -19.336,0 -4.321,55.734 15.015,55.734 19.336,0 28.953,-66.801 14.883,-66.801 -19.336,0 -9.891,53.082 9.332,55.192 10.422,1.144 10.5176,-21.8339 10.5176,-21.8339 l 1.4594,-38.2251"
         style="fill:none;stroke:#000000;stroke-width:4;stroke-linecap:butt;stroke-linejoin:miter;stroke-miterlimit:4;stroke-opacity:1;stroke-dasharray:none"
         id="path3125"
         inkscape:connector-curvature="0"
         sodipodi:nodetypes="cccsssssssssssscc" /><path
         d="m 1733.898,2252.824 -151.41,-169.867"
         style="fill:none;stroke:#000000;stroke-opacity:1;stroke-width:4;stroke-linecap:butt;stroke-linejoin:miter;stroke-miterlimit:4;stroke-dasharray:none"
         id="path3127" /><path
         d="m 1347.715,2252.824 151.414,-169.867"
         style="fill:none;stroke:#000000;stroke-opacity:1;stroke-width:4;stroke-linecap:butt;stroke-linejoin:miter;stroke-miterlimit:4;stroke-dasharray:none"
         id="path3129" /><text
         transform="matrix(1,0,0,-1,262.94547,2609.6715)"
         id="text3131"><tspan
           style="fill:#000000;fill-opacity:1;fill-rule:nonzero;stroke:none;font-family:cmmi10;font-variant:normal;font-weight:normal;font-size:86.744502;writing-mode:lr;-inkscape-font-specification:Cmmi10"
           x="0"
           y="0"
           id="tspan3133">r</tspan></text>
<text
         transform="matrix(1,0,0,-1,302.08215,2587.5436)"
         id="text3135"><tspan
           style="fill:#000000;fill-opacity:1;fill-rule:nonzero;stroke:none;font-family:cmr10;font-variant:normal;font-weight:normal;font-size:60.721152;writing-mode:lr;-inkscape-font-specification:Cmr10"
           x="0"
           y="0"
           id="tspan3137">0</tspan></text>
<text
         transform="matrix(1,0,0,-1,895.74679,2653.9313)"
         id="text3139"><tspan
           style="fill:#000000;fill-opacity:1;fill-rule:nonzero;stroke:none;font-family:cmmi10;font-variant:normal;font-weight:normal;font-size:92.481397;writing-mode:lr;-inkscape-font-specification:Cmmi10"
           x="0"
           y="0"
           id="tspan3141">r</tspan></text>
<text
         transform="matrix(0,1,1,0,93.813475,2859.2892)"
         id="text3143"><tspan
           style="fill:#000000;fill-opacity:1;fill-rule:nonzero;stroke:none;font-family:cmmi10;font-variant:normal;font-weight:normal;font-size:92.481397;writing-mode:lr;-inkscape-font-specification:Cmmi10"
           x="0"
           y="0"
           id="tspan3145">V</tspan></text>
<text
         transform="matrix(0,1,1,0,117.4049,2913.2066)"
         id="text3147"><tspan
           style="fill:#000000;fill-opacity:1;fill-rule:nonzero;stroke:none;font-family:cmr10;font-variant:normal;font-weight:normal;font-size:64.73698;writing-mode:lr;-inkscape-font-specification:Cmr10"
           x="0 35.9290239 68.2975139 104.2265378 161.71297604 187.21934616 212.3372944 237.64945358 266.32793572 291.44588396 320.1243661"
           y="0"
           sodipodi:role="line"
           id="tspan3149">bondstretch</tspan></text>
<path
         d="m 146.805,2673.844 0,784.996"
         style="fill:none;stroke:#000000;stroke-opacity:1;stroke-width:5;stroke-linecap:square;stroke-linejoin:round;stroke-miterlimit:10;stroke-dasharray:none"
         id="path3151" /><path
         d="m 298.121,1744.582 0,0.5 -0.016,0.551 -0.035,0.586 -0.031,0.597 -0.047,0.633 -0.066,0.633 -0.067,0.664 -0.097,0.664 -0.114,0.68 -0.113,0.695 -0.144,0.684 -0.161,0.695 -0.39,1.359 -0.227,0.668 -0.258,0.664 -0.277,0.649 -0.293,0.613 -0.324,0.602 -0.356,0.582 -0.371,0.551 -0.406,0.519 -0.453,0.484 -0.469,0.438 -0.504,0.406 -0.257,0.196 -0.278,0.16 -0.273,0.164 -0.293,0.16 -0.293,0.129 -0.309,0.133 -0.304,0.113 -0.325,0.094 -0.34,0.082 -0.343,0.082 -0.356,0.047 -0.355,0.035 -0.371,0.031 -0.375,0 -0.082,-1.766 c 3.957,0 4.425,-5.168 4.425,-9.773 0,-3.953 -0.632,-8.086 -2.578,-16.074 l -16.867,0 c 1.379,5.187 2.996,11.636 6.207,17.371 2.203,3.937 5.168,8.476 8.813,8.476 l 0.082,1.766 c -11.211,0 -23.657,-22.75 -23.657,-41.238 0,-7.602 2.332,-16.563 9.704,-16.563 l 0,1.785 c -2.688,0 -4.391,2.348 -4.391,9.832 0,3.407 0.488,8.086 2.594,15.981 l 16.804,0 c -0.875,-3.695 -2.578,-10.551 -5.672,-16.383 -2.804,-5.492 -5.867,-9.43 -9.335,-9.43 l 0,-1.785 c 11.359,0 23.644,23.172 23.644,41.258 z"
         style="fill:#000000;fill-opacity:1;fill-rule:nonzero;stroke:none"
         id="path3153" /><path
         d="m 328.453,1710.164 -0.015,1.148 -0.032,1.102 -0.051,1.07 -0.062,1.039 -0.098,1.004 -0.113,0.973 -0.148,0.922 -0.176,0.906 -0.211,0.895 -0.242,0.855 -0.262,0.828 -0.324,0.809 -0.34,0.797 -0.387,0.777 -0.422,0.762 -0.226,0.371 -0.242,0.375 c -1.735,2.605 -5.235,4.859 -9.774,4.859 l 0,-1.586 c 3.063,0 6.012,-1.847 7.016,-5.136 0.91,-3.047 0.957,-7.118 0.957,-12.043 0,-4.164 0,-8.344 -0.731,-11.891 -1.132,-5.137 -4.957,-6.387 -7.242,-6.387 -2.574,0 -6.027,1.524 -7.16,6.16 -0.777,3.321 -0.777,7.954 -0.777,12.118 0,4.132 0,8.445 0.824,11.523 1.199,4.457 4.812,5.656 7.113,5.656 l 0,1.586 c -13.094,0 -13.094,-15.41 -13.094,-19.492 0,-4.051 0,-19.137 13.094,-19.137 13.125,0 13.125,15.086 13.125,19.137 z"
         style="fill:#000000;fill-opacity:1;fill-rule:nonzero;stroke:none"
         id="path3155" /><text
         transform="matrix(0,1,1,0,80.968836,1994.3414)"
         id="text3157"><tspan
           style="fill:#000000;fill-opacity:1;fill-rule:nonzero;stroke:none;font-family:cmmi10;font-variant:normal;font-weight:normal;font-size:92.481397;writing-mode:lr;-inkscape-font-specification:Cmmi10"
           x="0"
           y="0"
           id="tspan3159">V</tspan></text>
<text
         transform="matrix(0,1,1,0,104.56026,2048.2588)"
         id="text3161"><tspan
           style="fill:#000000;fill-opacity:1;fill-rule:nonzero;stroke:none;font-family:cmr10;font-variant:normal;font-weight:normal;font-size:64.73698;writing-mode:lr;-inkscape-font-specification:Cmr10"
           x="0 32.36849 68.2975139 100.6660039 118.53341038 168.76930686 204.69833076 233.3768129 269.3058368"
           y="0"
           sodipodi:role="line"
           id="tspan3163">anglebend</tspan></text>
<text
         transform="matrix(1,0,0,-1,917.19405,872.70086)"
         id="text3165"><tspan
           style="fill:#000000;fill-opacity:1;fill-rule:nonzero;stroke:none;font-family:cmmi10;font-variant:normal;font-weight:normal;font-size:92.481397;writing-mode:lr;-inkscape-font-specification:Cmmi10"
           x="0"
           y="0"
           id="tspan3167">r</tspan></text>
<text
         transform="matrix(0,1,1,0,87.685689,1105.55)"
         id="text3169"><tspan
           style="fill:#000000;fill-opacity:1;fill-rule:nonzero;stroke:none;font-family:cmmi10;font-variant:normal;font-weight:normal;font-size:92.481397;writing-mode:lr;-inkscape-font-specification:Cmmi10"
           x="0"
           y="0"
           id="tspan3171">V</tspan></text>
<text
         transform="matrix(0,1,1,0,111.27712,1159.4674)"
         id="text3173"><tspan
           style="fill:#000000;fill-opacity:1;fill-rule:nonzero;stroke:none;font-family:cmr10;font-variant:normal;font-weight:normal;font-size:64.73698;writing-mode:lr;-inkscape-font-specification:Cmr10"
           x="0 46.74009956 79.10858956 115.03761346 132.90501994 165.27350994 219.19941428 255.12843818 272.99584466"
           y="0"
           sodipodi:role="line"
           id="tspan3175">Coulombic</tspan></text>
<text
         transform="matrix(1,0,0,-1,911.06626,374.58274)"
         id="text3177"><tspan
           style="fill:#000000;fill-opacity:1;fill-rule:nonzero;stroke:none;font-family:cmmi10;font-variant:normal;font-weight:normal;font-size:92.481397;writing-mode:lr;-inkscape-font-specification:Cmmi10"
           x="0"
           y="0"
           id="tspan3179">r</tspan></text>
<text
         transform="matrix(0,1,1,0,63.174545,283.35443)"
         id="text3181"><tspan
           style="fill:#000000;fill-opacity:1;fill-rule:nonzero;stroke:none;font-family:cmmi10;font-variant:normal;font-weight:normal;font-size:92.481397;writing-mode:lr;-inkscape-font-specification:Cmmi10"
           x="0"
           y="0"
           id="tspan3183">V</tspan></text>
<text
         transform="matrix(0,1,1,0,86.765972,337.2718)"
         id="text3185"><tspan
           style="fill:#000000;fill-opacity:1;fill-rule:nonzero;stroke:none;font-family:cmr10;font-variant:normal;font-weight:normal;font-size:64.73698;writing-mode:lr;-inkscape-font-specification:Cmr10"
           x="0 48.552735 97.94705074"
           y="0"
           sodipodi:role="line"
           id="tspan3187">VDW</tspan></text>
</g><g
       id="g3189"><g
         id="g3191"
         clip-path="url(#clipPath3193)"><g
           id="g3197"
           transform="translate(0,-0.339844)"><g
             id="g3199"><g
               id="g3201"
               clip-path="url(#clipPath3203)"><g
                 id="g3207"><g
                   id="g3209"
                   transform="translate(0,3460)"><path
                     d="m 186.328,45.141 5.484,-84.157 5.805,-84.195 5.809,-79.16 5.808,-74.125 5.805,-69.09 5.809,-64.059 5.804,-59.023 4.356,-40.965 4.355,-38.133 4.356,-35.3 4.355,-32.473 4.356,-29.637 4.355,-26.804 4.356,-23.977 2.906,-14.41 2.902,-13.149 2.903,-11.894 2.906,-10.633 2.902,-9.379 2.902,-8.117 2.907,-6.859 2.902,-5.598 2.902,-4.344 1.454,-1.699 1.453,-1.383 1.449,-1.07 1.453,-0.754 1.453,-0.442 1.449,-0.124 1.454,0.187 1.453,0.504 1.449,0.816 1.453,1.133 1.453,1.449 1.449,1.762 2.907,4.465 2.902,5.726 2.902,6.989 2.906,8.242 2.903,9.5 2.902,10.762 2.903,12.019 2.906,13.278 2.902,14.535 4.356,24.164 4.355,26.992 4.356,29.828 4.355,32.656 4.355,35.493 4.356,38.32 4.355,41.152 4.356,43.985 5.808,63.054 5.805,68.082 5.809,73.121 5.808,78.153 5.805,83.187 6.645,101.395"
                     style="fill:none;stroke:#000000;stroke-opacity:1;stroke-width:4;stroke-linecap:square;stroke-linejoin:round;stroke-miterlimit:10;stroke-dasharray:none"
                     id="path3211" /></g></g></g></g></g></g></g><g
       id="g3213"><path
         d="m 146.805,2673.844 725.175,0"
         style="fill:none;stroke:#000000;stroke-opacity:1;stroke-width:5;stroke-linecap:square;stroke-linejoin:round;stroke-miterlimit:10;stroke-dasharray:none"
         id="path3215" /></g><g
       id="g3217"><g
         id="g3219"
         clip-path="url(#clipPath3221)"><g
           id="g3225"
           transform="translate(0,-0.339844)"><g
             id="g3227"><g
               id="g3229"
               clip-path="url(#clipPath3231)"><g
                 id="g3235"><g
                   id="g3237"
                   transform="translate(0,3460)"><path
                     d="m 146.805,-106.441 7.257,-153.223 7.262,-145.359 7.258,-137.493 7.258,-129.625 5.808,-98.039 5.809,-93.004 5.805,-87.968 5.808,-82.934 5.809,-77.902 5.805,-72.867 5.808,-67.833 5.809,-62.8 4.351,-43.797 4.356,-40.965 4.355,-38.133 4.356,-35.301 4.355,-32.468 4.356,-29.637 4.355,-26.809 4.356,-23.972 2.906,-14.41 2.902,-13.153 2.903,-11.89 2.906,-10.637 2.902,-9.375 2.902,-8.117 2.907,-6.86 2.902,-5.601 2.902,-4.34 1.454,-1.699 1.453,-1.387 1.449,-1.066 1.453,-0.758 1.453,-0.438 1.449,-0.129 1.454,0.192 1.453,0.5 1.449,0.82 1.453,1.133 1.453,1.445 1.449,1.762 2.907,4.469 2.902,5.726 2.902,6.985 2.906,8.242 2.903,9.504 2.902,10.757 2.903,12.02 2.906,13.277 2.902,14.536 4.356,24.164 4.355,26.996 4.356,29.824 4.355,32.66 4.355,35.488 4.356,38.325 4.355,41.152 4.356,43.984 5.808,63.051 5.805,68.086 5.809,73.117 5.808,78.156 5.805,83.188 5.809,88.219 5.804,93.257 5.809,98.29 7.258,129.937 7.261,137.809 7.258,145.671 7.258,153.54 6.551,145.285"
                     style="fill:none;stroke:#000000;stroke-opacity:1;stroke-width:4;stroke-linecap:square;stroke-linejoin:round;stroke-miterlimit:10;stroke-dasharray:none"
                     id="path3239" /></g></g></g></g></g></g></g><g
       id="g3241"><path
         d="m 146.805,1783.23 725.175,0"
         style="fill:none;stroke:#000000;stroke-opacity:1;stroke-width:4;stroke-linecap:square;stroke-linejoin:round;stroke-miterlimit:10;stroke-dasharray:none"
         id="path3243" /><path
         d="m 146.805,1783.23 0,784.993"
         style="fill:none;stroke:#000000;stroke-opacity:1;stroke-width:4;stroke-linecap:square;stroke-linejoin:round;stroke-miterlimit:10;stroke-dasharray:none"
         id="path3245" /></g><g
       id="g3247"><g
         id="g3249"
         clip-path="url(#clipPath3251)"><g
           id="g3255"
           transform="translate(0,-0.339844)"><g
             id="g3257"><g
               id="g3259"
               clip-path="url(#clipPath3261)"><g
                 id="g3265"><g
                   id="g3267"
                   transform="translate(0,3460)"><path
                     d="m 161.309,-1782.051 0.711,-36.703 0.71,-33.426 2.137,-84.472 2.133,-66.621 2.133,-53.883 2.137,-44.485 2.132,-37.343 2.133,-31.797 2.137,-27.399 2.844,-31.136 2.847,-26.289 2.844,-22.489 2.844,-19.465 2.847,-17.003 2.844,-14.989 2.848,-13.304 3.555,-14.676 3.558,-12.871 3.559,-11.383 3.554,-10.137 3.559,-9.082 3.555,-8.187 4.269,-8.821 4.27,-7.886 4.265,-7.094 4.27,-6.414 4.269,-5.828 4.977,-6.164 4.98,-5.567 4.981,-5.058 5.691,-5.239 5.692,-4.738 6.402,-4.824 6.402,-4.356 7.114,-4.371 7.113,-3.949 7.824,-3.926 8.539,-3.851 9.246,-3.739 9.961,-3.605 10.672,-3.453 11.379,-3.281 12.094,-3.11 13.519,-3.09 14.938,-3.019 16.363,-2.91 17.781,-2.774 19.207,-2.625 21.344,-2.547 23.477,-2.437 26.32,-2.363 29.879,-2.305 33.434,-2.203 37.703,-2.11 42.683,-2.011 49.086,-1.938 56.199,-1.84 64.735,-1.742 41.972,-0.965"
                     style="fill:none;stroke:#000000;stroke-opacity:1;stroke-width:4;stroke-linecap:square;stroke-linejoin:round;stroke-miterlimit:10;stroke-dasharray:none"
                     id="path3269" /></g></g></g></g></g></g></g><g
       id="g3271"><path
         d="m 146.805,892.613 725.175,0"
         style="fill:none;stroke:#000000;stroke-opacity:1;stroke-width:4;stroke-linecap:square;stroke-linejoin:round;stroke-miterlimit:10;stroke-dasharray:none"
         id="path3273" /><path
         d="m 146.805,892.613 0,784.996"
         style="fill:none;stroke:#000000;stroke-opacity:1;stroke-width:4;stroke-linecap:square;stroke-linejoin:round;stroke-miterlimit:10;stroke-dasharray:none"
         id="path3275" /></g><g
       id="g3277"><g
         id="g3279"
         clip-path="url(#clipPath3281)"><g
           id="g3285"
           transform="translate(0,-0.339844)"><g
             id="g3287"><g
               id="g3289"
               clip-path="url(#clipPath3291)"><g
                 id="g3295"><g
                   id="g3297"
                   transform="translate(0,3460)"><path
                     d="m 248.461,45.141 2.906,-305.567 3.348,-319.933 3.347,-289.172 3.348,-261.34 3.352,-236.164 3.347,-213.363 3.348,-192.727 3.348,-174.027 3.351,-157.09 3.348,-141.742 3.348,-127.825 3.347,-115.211 3.352,-103.769 3.347,-93.395 3.348,-83.984 3.352,-75.441 3.347,-67.7 3.348,-60.668 3.348,-54.293 3.351,-48.507 3.348,-43.254 3.348,-38.496 3.347,-34.172 3.352,-30.254 3.347,-26.703 3.348,-23.481 3.348,-20.562 3.351,-17.918 3.348,-15.524 3.348,-13.351 3.347,-11.395 3.352,-9.617 2.23,-5.516 2.235,-4.847 2.23,-4.227 2.234,-3.644 2.231,-3.106 2.234,-2.601 2.231,-2.133 2.234,-1.692 2.231,-1.285 2.234,-0.906 2.23,-0.551 2.235,-0.226 2.23,0.082 2.235,0.363 3.347,1.031 3.348,1.551 3.348,2.023 3.351,2.43 4.465,3.805 4.465,4.348 5.578,6.062 5.582,6.625 6.699,8.5 8.93,11.973 14.508,20.222 20.094,27.946 12.277,16.422 10.047,12.882 10.047,12.309 10.043,11.695 8.929,9.875 8.93,9.375 8.93,8.887 8.929,8.402 8.93,7.942 8.93,7.488 8.929,7.059 10.047,7.453 10.047,6.961 10.047,6.496 10.043,6.062 10.047,5.657 11.164,5.839 11.16,5.407 11.164,5 12.277,5.074 12.278,4.664 12.277,4.285 13.395,4.281 13.394,3.907 14.512,3.855 15.629,3.754 15.625,3.383 16.742,3.261 17.859,3.11 18.977,2.933 20.094,2.747 22.324,2.671 7.812,0.856"
                     style="fill:none;stroke:#000000;stroke-opacity:1;stroke-width:4;stroke-linecap:square;stroke-linejoin:round;stroke-miterlimit:10;stroke-dasharray:none"
                     id="path3299" /></g></g></g></g></g></g></g><g
       id="g3301"><path
         d="m 146.805,394.496 725.175,0"
         style="fill:none;stroke:#000000;stroke-opacity:1;stroke-width:4;stroke-linecap:square;stroke-linejoin:round;stroke-miterlimit:10;stroke-dasharray:none"
         id="path3303" /><path
         d="m 146.805,2 0,784.992"
         style="fill:none;stroke:#000000;stroke-opacity:1;stroke-width:4;stroke-linecap:square;stroke-linejoin:round;stroke-miterlimit:10;stroke-dasharray:none"
         id="path3305" /><g
         id="g3307"><g
           id="g3309"
           clip-path="url(#clipPath3311)"><g
             id="g3315"><path
               d="m 1448.711,395.48 c 0,-6.859 -1.988,-13.718 -5.816,-20.062 -3.829,-6.34 -9.493,-12.152 -16.567,-17.008 -7.074,-4.851 -15.551,-8.738 -24.793,-11.363 -9.242,-2.625 -19.242,-3.988 -29.246,-3.988 -10.004,0 -20.004,1.363 -29.246,3.988 -9.242,2.625 -17.723,6.512 -24.793,11.363 -7.074,4.856 -12.738,10.668 -16.566,17.008 -3.832,6.344 -5.821,13.203 -5.821,20.062 0,6.864 1.989,13.723 5.821,20.063 3.828,6.34 9.492,12.156 16.566,17.008 7.07,4.855 15.551,8.738 24.793,11.367 9.242,2.625 19.242,3.988 29.246,3.988 10.004,0 20.004,-1.363 29.246,-3.988 9.242,-2.629 17.719,-6.512 24.793,-11.367 7.074,-4.852 12.738,-10.668 16.567,-17.008 3.828,-6.34 5.816,-13.199 5.816,-20.063 z"
               style="fill:url(#radialGradient3317);fill-rule:evenodd;stroke:none"
               id="path3323" /></g></g></g><g
         id="g3325"><g
           id="g3327"
           clip-path="url(#clipPath3329)"><g
             id="g3333"><path
               d="m 1816.125,395.48 c 0,-6.859 -1.988,-13.718 -5.816,-20.062 -3.829,-6.34 -9.493,-12.152 -16.567,-17.008 -7.074,-4.851 -15.551,-8.738 -24.793,-11.363 -9.242,-2.625 -19.242,-3.988 -29.246,-3.988 -10.004,0 -20.004,1.363 -29.246,3.988 -9.242,2.625 -17.723,6.512 -24.793,11.363 -7.074,4.856 -12.738,10.668 -16.566,17.008 -3.832,6.344 -5.821,13.203 -5.821,20.062 0,6.864 1.989,13.723 5.821,20.063 3.828,6.34 9.492,12.156 16.566,17.008 7.07,4.855 15.551,8.738 24.793,11.367 9.242,2.625 19.242,3.988 29.246,3.988 10.004,0 20.004,-1.363 29.246,-3.988 9.242,-2.629 17.719,-6.512 24.793,-11.367 7.074,-4.852 12.738,-10.668 16.567,-17.008 3.828,-6.34 5.816,-13.199 5.816,-20.063 z"
               style="fill:url(#radialGradient3335);fill-rule:evenodd;stroke:none"
               id="path3341" /></g></g></g><path
         d="m 1360.492,3256.453 0.684,0.152 0.668,0.153 0.668,0.199 0.636,0.195 0.625,0.215 0.61,0.242 0.605,0.258 0.578,0.274 0.563,0.289 0.547,0.304 0.531,0.321 0.504,0.316 0.484,0.352 0.473,0.363 0.457,0.379 0.426,0.383 0.41,0.394 0.379,0.41 0.363,0.426 0.336,0.426 0.32,0.441 0.289,0.453 0.258,0.457 0.242,0.473 0.211,0.484 0.184,0.489 0.168,0.484 0.137,0.504 0.09,0.516 0.078,0.5 0.043,0.519 0.015,0.531 c 0,6.583 -6.976,12.797 -16.808,12.797 l -0.547,-2.355 c 7.371,0 10,-6.43 10,-10.442 0,-4.847 -3.707,-11.218 -12.114,-11.218 l -10.972,0 0,-1.657 14.226,0 c 7.508,0 10.684,-7.05 10.684,-12.113 0,-5.394 -3.938,-11.582 -11.734,-11.582 l -9.469,0 c -3.555,0 -3.707,0.516 -3.707,3.012 l 0,40.961 c 0,2.523 0.152,3.039 3.707,3.039 l 9.379,0 0.547,2.355 -27.707,0 0,-2.355 1.793,0 c 5.851,0 5.988,-0.82 5.988,-3.555 l 0,-39.898 c 0,-2.739 -0.137,-3.559 -5.988,-3.559 l -1.793,0 0,-2.355 29.683,0 c 10.063,0 16.887,6.75 16.887,13.863 0,6.578 -6.234,12.266 -14.637,13.16 z"
         style="fill:#000000;fill-opacity:1;fill-rule:nonzero;stroke:none"
         id="path3343" /><path
         d="m 1415.117,3245.633 -0.031,0.894 -0.063,0.899 -0.105,0.883 -0.152,0.863 -0.18,0.851 -0.231,0.836 -0.273,0.821 -0.305,0.808 -0.332,0.774 -0.367,0.761 -0.41,0.743 -0.441,0.714 -0.469,0.7 -0.504,0.668 -0.516,0.656 -0.562,0.605 -0.578,0.594 -0.606,0.563 -0.64,0.531 -0.653,0.488 -0.683,0.469 -0.7,0.426 -0.73,0.398 -0.731,0.363 -0.757,0.321 -0.778,0.273 -0.789,0.242 -0.82,0.196 -0.805,0.168 -0.836,0.109 -0.851,0.074 -0.852,0.016 -0.078,-1.656 c 3.332,0 6.582,-1.672 8.559,-4.926 1.961,-3.254 1.961,-7.645 1.961,-10.516 0,-2.738 0,-6.812 -1.657,-10.14 -1.656,-3.418 -4.984,-5.61 -8.785,-5.61 -3.254,0 -6.582,1.598 -8.617,5.063 -1.902,3.343 -1.902,7.949 -1.902,10.687 0,2.946 0,7.035 1.808,10.379 2.071,3.465 5.594,5.063 8.633,5.063 l 0.078,1.656 c -9.453,0 -16.812,-8.238 -16.812,-17.707 0,-9.774 7.89,-17.039 16.734,-17.039 9.168,0 16.828,7.418 16.828,17.039 z"
         style="fill:#000000;fill-opacity:1;fill-rule:nonzero;stroke:none"
         id="path3345" /><path
         d="m 1425.711,3255.48 0,-20.304 c 0,-3.391 -0.836,-3.391 -5.914,-3.391 l 0,-2.355 c 2.66,0.078 6.504,0.242 8.543,0.242 1.976,0 5.91,-0.164 8.48,-0.242 l 0,2.355 c -5.062,0 -5.882,0 -5.882,3.391 l 0,13.937 c 0,7.887 5.367,12.114 10.214,12.114 4.758,0 5.594,-4.09 5.594,-8.407 l 0,-17.644 c 0,-3.391 -0.836,-3.391 -5.914,-3.391 l 0,-2.355 c 2.66,0.078 6.535,0.242 8.574,0.242 1.977,0 5.895,-0.164 8.481,-0.242 l 0,2.355 c -3.938,0 -5.836,0 -5.914,2.281 l 0,14.454 c 0,6.507 0,8.863 -2.356,11.566 -1.047,1.309 -3.555,2.797 -7.933,2.797 -5.532,0 -9.09,-3.254 -11.2,-7.918 l 0,7.918 -10.687,-0.821 0,-2.355 c 5.289,0 5.914,-0.516 5.914,-4.227 z"
         style="fill:#000000;fill-opacity:1;fill-rule:nonzero;stroke:none"
         id="path3347" /><path
         d="m 1488.285,3233.578 0,-4.984 11.11,0.836 0,2.355 c -5.29,0 -5.883,0.516 -5.883,4.227 l 0,45.976 -10.895,-0.836 0,-2.355 c 5.289,0 5.879,-0.516 5.879,-4.242 l 0,-16.336 c -2.187,2.703 -5.441,4.664 -9.543,4.664 l 0.305,-1.656 c 2.66,0 5.851,-1.141 8.191,-4.528 0.836,-1.293 0.836,-1.461 0.836,-2.812 l 0,-15.535 c 0,-1.352 0,-1.52 -0.836,-2.797 -2.281,-3.633 -5.699,-5.289 -8.953,-5.289 -3.391,0 -6.125,1.961 -7.934,4.832 -1.96,3.117 -2.203,7.433 -2.203,10.535 0,2.797 0.153,7.355 2.356,10.746 1.594,2.355 4.453,4.848 8.543,4.848 l -0.305,1.656 c -8.922,0 -16.887,-7.403 -16.887,-17.16 0,-9.621 7.434,-17.129 16.051,-17.129 4.848,0 8.27,2.57 10.168,4.984 z"
         style="fill:#000000;fill-opacity:1;fill-rule:nonzero;stroke:none"
         id="path3349" /><path
         d="m 1553.23,3258.809 -9.679,2.343 c -4.715,1.137 -7.664,5.227 -7.664,9.621 0,5.305 4.09,9.922 10.004,9.922 12.629,0 14.3,-12.418 14.757,-15.836 0.059,-0.457 0.059,-0.898 0.911,-0.898 0.988,0 0.988,0.383 0.988,1.824 l 0,15.199 c 0,1.309 0,1.825 -0.836,1.825 -0.516,0 -0.621,-0.059 -1.141,-0.989 l -2.644,-4.3 c -2.278,2.187 -5.379,5.289 -12.129,5.289 -8.402,0 -14.742,-6.672 -14.742,-14.696 0,-6.261 4.011,-11.797 9.894,-13.847 0.836,-0.305 4.711,-1.2 10,-2.493 2.039,-0.546 4.317,-1.066 6.446,-3.859 1.582,-1.976 2.339,-4.469 2.339,-6.965 0,-5.394 -3.769,-10.836 -10.136,-10.836 -2.203,0 -7.95,0.379 -11.961,4.09 -4.407,4.09 -4.637,8.922 -4.711,11.656 -0.078,0.762 -0.668,0.762 -0.899,0.762 -0.972,0 -0.972,-0.547 -0.972,-1.902 l 0,-15.153 c 0,-1.277 0,-1.793 0.82,-1.793 0.531,0 0.594,0.137 1.125,0.973 0,0.063 0.23,0.305 2.723,4.316 2.355,-2.57 7.203,-5.289 13.953,-5.289 8.844,0 14.91,7.403 14.91,15.731 0,7.586 -4.988,13.785 -11.356,15.305 z"
         style="fill:#000000;fill-opacity:1;fill-rule:nonzero;stroke:none"
         id="path3351" /><path
         d="m 1582.035,3259.707 10.836,0 0,2.355 -10.836,0 0,13.938 -1.902,0 c -0.059,-6.199 -2.34,-14.316 -9.758,-14.605 l 0,-1.688 6.445,0 0,-20.898 c 0,-9.301 7.024,-10.215 9.758,-10.215 5.363,0 7.508,5.367 7.508,10.215 l 0,4.316 -1.898,0 0,-4.148 c 0,-5.61 -2.282,-8.485 -5.094,-8.485 -5.059,0 -5.059,6.887 -5.059,8.18 l 0,21.035 z"
         style="fill:#000000;fill-opacity:1;fill-rule:nonzero;stroke:none"
         id="path3353" /><path
         d="m 1610.926,3254.586 0,8.297 -10.516,-0.821 0,-2.355 c 5.289,0 5.91,-0.516 5.91,-4.227 l 0,-20.304 c 0,-3.391 -0.836,-3.391 -5.91,-3.391 l 0,-2.355 c 2.961,0.078 6.504,0.242 8.633,0.242 3.023,0 6.582,0 9.621,-0.242 l 0,2.355 -1.582,0 c -5.609,0 -5.773,0.82 -5.773,3.559 l 0,11.656 c 0,7.477 3.175,14.227 8.949,14.227 0.519,0 0.672,0 0.82,-0.075 -0.226,-0.062 -1.746,-0.972 -1.746,-2.933 0,-2.145 1.598,-3.254 3.27,-3.254 1.367,0 3.265,0.898 3.265,3.312 0,2.434 -2.355,4.606 -5.609,4.606 -5.531,0 -8.266,-5.047 -9.332,-8.297 z"
         style="fill:#000000;fill-opacity:1;fill-rule:nonzero;stroke:none"
         id="path3355" /><path
         d="m 1636.43,3246.926 0.062,1.594 c 0.457,11.277 6.824,13.164 9.406,13.164 7.786,0 8.543,-10.215 8.543,-13.164 l -17.949,0 -0.062,-1.594 21.129,0 c 1.671,0 1.882,0 1.882,1.594 0,7.48 -4.086,14.82 -13.543,14.82 -8.785,0 -15.773,-7.781 -15.773,-17.266 0,-10.14 7.961,-17.48 16.672,-17.48 9.242,0 12.644,8.406 12.644,9.836 0,0.758 -0.605,0.925 -0.972,0.925 -0.699,0 -0.836,-0.457 -1.004,-1.062 -2.645,-7.801 -9.453,-7.801 -10.211,-7.801 -3.801,0 -6.809,2.266 -8.543,5.063 -2.281,3.633 -2.281,8.648 -2.281,11.371 z"
         style="fill:#000000;fill-opacity:1;fill-rule:nonzero;stroke:none"
         id="path3357" /><path
         d="m 1674.688,3259.707 10.82,0 0,2.355 -10.82,0 0,13.938 -1.899,0 c -0.078,-6.199 -2.359,-14.316 -9.758,-14.605 l 0,-1.688 6.426,0 0,-20.898 c 0,-9.301 7.023,-10.215 9.758,-10.215 5.367,0 7.512,5.367 7.512,10.215 l 0,4.316 -1.903,0 0,-4.148 c 0,-5.61 -2.277,-8.485 -5.074,-8.485 -5.062,0 -5.062,6.887 -5.062,8.18 l 0,21.035 z"
         style="fill:#000000;fill-opacity:1;fill-rule:nonzero;stroke:none"
         id="path3359" /><path
         d="m 1699.797,3245.938 0,0.578 0.031,1.093 0.027,0.532 0.094,1.031 0.059,0.488 0.062,0.488 0.059,0.469 0.078,0.457 0.09,0.442 0.094,0.441 0.211,0.836 0.226,0.773 0.246,0.746 0.289,0.7 0.289,0.652 0.317,0.609 0.336,0.575 0.347,0.535 0.368,0.484 0.378,0.457 0.395,0.426 0.395,0.395 0.41,0.347 0.425,0.32 0.426,0.29 0.426,0.242 0.426,0.23 0.426,0.196 0.441,0.183 0.426,0.137 0.426,0.121 0.41,0.09 0.41,0.078 0.41,0.047 0.395,0.027 0.378,0.016 c 0.672,0 5.442,-0.074 8.102,-2.813 -3.113,-0.226 -3.57,-2.492 -3.57,-3.48 0,-1.973 1.367,-3.496 3.496,-3.496 1.945,0 3.465,1.308 3.465,3.558 0,5.153 -5.746,8.102 -11.582,8.102 -9.454,0 -16.43,-8.164 -16.43,-17.555 0,-9.683 7.492,-17.191 16.293,-17.191 10.137,0 12.555,9.105 12.555,9.836 0,0.758 -0.758,0.758 -0.973,0.758 -0.684,0 -0.836,-0.29 -1.004,-0.758 -2.172,-7.024 -7.098,-7.938 -9.895,-7.938 -4.011,0 -10.683,3.254 -10.683,15.446 z"
         style="fill:#000000;fill-opacity:1;fill-rule:nonzero;stroke:none"
         id="path3361" /><path
         d="m 1730.637,3235.176 0,-0.594 -0.016,-0.273 -0.031,-0.258 -0.031,-0.227 -0.032,-0.23 -0.043,-0.196 -0.046,-0.183 -0.075,-0.168 -0.078,-0.168 -0.074,-0.137 -0.109,-0.137 -0.106,-0.121 -0.121,-0.105 -0.137,-0.09 -0.152,-0.078 -0.168,-0.074 -0.18,-0.078 -0.199,-0.043 -0.211,-0.063 -0.23,-0.031 -0.243,-0.043 -0.273,-0.016 -0.137,-0.015 -0.304,-0.032 -0.153,0 -0.168,-0.015 -0.332,0 -0.183,-0.016 -2.082,0 0,-2.355 c 2.66,0.078 6.504,0.242 8.558,0.242 1.973,0 5.91,-0.164 8.481,-0.242 l 0,2.355 c -5.063,0 -5.899,0 -5.899,3.391 l 0,13.937 c 0,7.887 5.367,12.114 10.215,12.114 4.774,0 5.61,-4.09 5.61,-8.407 l 0,-17.644 c 0,-3.391 -0.836,-3.391 -5.915,-3.391 l 0,-2.355 c 2.661,0.078 6.52,0.242 8.575,0.242 1.961,0 5.879,-0.164 8.464,-0.242 l 0,2.355 c -3.937,0 -5.835,0 -5.898,2.281 l 0,14.454 c 0,6.507 0,8.863 -2.355,11.566 -1.047,1.309 -3.571,2.797 -7.934,2.797 -6.367,0 -9.711,-4.528 -10.988,-7.403 l 0,26.508 -10.914,-0.836 0,-2.355 c 5.304,0 5.914,-0.516 5.914,-4.242 l 0,-39.379 z"
         style="fill:#000000;fill-opacity:1;fill-rule:nonzero;stroke:none"
         id="path3363" /><path
         d="m 1376.609,2493.887 -0.047,0.09 -0.031,0.093 -0.027,0.09 -0.031,0.078 -0.032,0.09 -0.031,0.074 -0.027,0.078 -0.031,0.059 -0.047,0.078 -0.032,0.059 -0.027,0.078 -0.031,0.058 -0.047,0.047 -0.031,0.063 -0.043,0.043 -0.047,0.062 -0.09,0.09 -0.047,0.031 -0.062,0.047 -0.059,0.032 -0.062,0.027 -0.059,0.031 -0.063,0.031 -0.074,0.016 -0.078,0.016 -0.09,0.027 -0.09,0 -0.093,0.016 -0.09,0.015 -0.215,0 c -1.215,0 -1.457,-0.453 -1.836,-1.519 l -15.672,-45.293 c -1.351,-3.844 -4.394,-4.985 -8.48,-5.047 l 0,-2.356 c 1.73,0.079 4.984,0.243 7.718,0.243 2.36,0 6.293,-0.164 8.727,-0.243 l 0,2.356 c -3.785,0 -5.684,1.902 -5.684,3.848 0,0.226 0.075,0.988 0.153,1.136 l 3.48,9.926 0.836,2.355 8.481,24.594 8.539,-24.594 -17.02,0 -0.836,-2.355 18.692,0 4.015,-11.598 c 0.09,-0.3 0.242,-0.757 0.242,-1.031 0,-2.281 -4.257,-2.281 -6.292,-2.281 l 0,-2.356 c 2.722,0.243 8.027,0.243 10.914,0.243 3.25,0 6.718,-0.106 9.91,-0.243 l 0,2.356 -1.356,0 c -4.558,0 -5.605,0.519 -6.441,3.012 l -16.356,47.328 z"
         style="fill:#000000;fill-opacity:1;fill-rule:nonzero;stroke:none"
         id="path3365" /><path
         d="m 1411.523,2467.242 0,-20.304 c 0,-3.391 -0.835,-3.391 -5.914,-3.391 l 0,-2.356 c 2.661,0.079 6.504,0.243 8.543,0.243 1.977,0 5.926,-0.164 8.481,-0.243 l 0,2.356 c -5.063,0 -5.883,0 -5.883,3.391 l 0,13.937 c 0,7.887 5.367,12.113 10.215,12.113 4.773,0 5.594,-4.09 5.594,-8.406 l 0,-17.644 c 0,-3.391 -0.821,-3.391 -5.914,-3.391 l 0,-2.356 c 2.66,0.079 6.535,0.243 8.574,0.243 1.972,0 5.894,-0.164 8.48,-0.243 l 0,2.356 c -3.937,0 -5.836,0 -5.914,2.281 l 0,14.453 c 0,6.508 0,8.864 -2.355,11.567 -1.035,1.308 -3.555,2.797 -7.918,2.797 -5.532,0 -9.106,-3.254 -11.219,-7.918 l 0,7.918 -10.684,-0.821 0,-2.355 c 5.289,0 5.914,-0.516 5.914,-4.227 z"
         style="fill:#000000;fill-opacity:1;fill-rule:nonzero;stroke:none"
         id="path3367" /><path
         d="m 1453.352,2451.254 0,0.394 0.011,0.09 0,0.078 0.016,0.106 0.016,0.09 0.015,0.109 0.016,0.106 0.031,0.121 0.016,0.121 0.027,0.121 0.031,0.121 0.047,0.125 0.031,0.137 0.043,0.136 0.047,0.137 0.063,0.137 0.058,0.137 0.063,0.152 0.074,0.137 0.078,0.152 0.074,0.137 0.09,0.148 0.094,0.137 0.105,0.152 0.106,0.137 0.121,0.152 c 2.965,-2.113 6.051,-2.355 7.512,-2.355 l 0,1.734 c -6.614,0 -6.614,7.582 -6.614,9.332 0,2.051 0.106,4.469 1.215,6.336 0.625,0.93 2.356,3.043 5.399,3.043 6.578,0 6.578,-7.57 6.578,-9.305 0,-2.035 -0.074,-4.468 -1.215,-6.367 -0.594,-0.898 -2.355,-3.039 -5.363,-3.039 l 0,-1.734 c 7.019,0 12.25,5.23 12.25,11.066 0,2.813 -1.219,5.61 -3.086,7.34 2.703,2.57 5.441,2.949 6.808,2.949 0.153,0 0.532,0 0.758,-0.074 -0.847,-0.305 -1.199,-1.141 -1.199,-2.039 0,-1.293 0.973,-2.188 2.176,-2.188 0.758,0 2.187,0.516 2.187,2.25 0,1.293 -0.898,3.707 -3.847,3.707 -1.52,0 -4.848,-0.457 -8.024,-3.539 -3.191,2.493 -6.367,2.704 -8.023,2.704 -7.055,0 -12.282,-5.211 -12.282,-11.036 0,-3.328 1.657,-6.214 3.555,-7.812 -0.972,-1.125 -2.34,-3.633 -2.34,-6.277 0,-2.34 0.989,-5.211 3.344,-6.731 -4.559,-1.293 -6.976,-4.547 -6.976,-7.586 0,-5.441 7.492,-9.621 16.734,-9.621 l 0.074,1.734 c -7.644,0 -12.871,3.875 -12.871,7.887 0,3.496 2.871,6.293 6.215,6.504 l 4.469,0 c 6.503,0 14.988,0 14.988,-6.504 0,-4.09 -5.367,-7.887 -12.801,-7.887 l -0.074,-1.734 c 8.937,0 16.808,3.875 16.808,9.773 0,2.661 -1.062,6.52 -4.906,8.633 -4.015,2.114 -8.406,2.114 -13.043,2.114 -1.898,0 -5.152,0 -5.668,0.074 -2.433,0.304 -4.011,2.66 -4.011,5.078 z"
         style="fill:#000000;fill-opacity:1;fill-rule:nonzero;stroke:none"
         id="path3369" /><path
         d="m 1496.637,2493.75 -10.899,-0.836 0,-2.355 c 5.305,0 5.914,-0.516 5.914,-4.243 l 0,-39.378 c 0,-3.391 -0.82,-3.391 -5.914,-3.391 l 0,-2.356 c 2.492,0.079 6.508,0.243 8.407,0.243 1.898,0 5.609,-0.164 8.421,-0.243 l 0,2.356 c -5.093,0 -5.929,0 -5.929,3.391 l 0,46.812 z"
         style="fill:#000000;fill-opacity:1;fill-rule:nonzero;stroke:none"
         id="path3371" /><path
         d="m 1512.625,2458.688 0.078,1.593 c 0.442,11.278 6.809,13.164 9.391,13.164 7.801,0 8.558,-10.215 8.558,-13.164 l -17.949,0 -0.078,-1.593 21.145,0 c 1.656,0 1.867,0 1.867,1.593 0,7.481 -4.086,14.821 -13.543,14.821 -8.785,0 -15.762,-7.782 -15.762,-17.266 0,-10.141 7.949,-17.481 16.676,-17.481 9.242,0 12.629,8.407 12.629,9.836 0,0.758 -0.59,0.926 -0.973,0.926 -0.684,0 -0.836,-0.457 -1.004,-1.062 -2.629,-7.801 -9.437,-7.801 -10.195,-7.801 -3.801,0 -6.824,2.266 -8.559,5.062 -2.281,3.633 -2.281,8.649 -2.281,11.372 z"
         style="fill:#000000;fill-opacity:1;fill-rule:nonzero;stroke:none"
         id="path3373" /><path
         d="m 1597.801,2468.215 0.687,0.152 0.668,0.153 0.653,0.199 0.652,0.195 0.625,0.215 0.609,0.242 0.59,0.258 0.594,0.273 0.562,0.289 0.547,0.305 0.516,0.32 0.519,0.317 0.485,0.351 0.472,0.364 0.442,0.379 0.437,0.382 0.399,0.395 0.394,0.41 0.348,0.426 0.352,0.426 0.304,0.441 0.301,0.453 0.262,0.457 0.242,0.473 0.211,0.484 0.183,0.488 0.168,0.485 0.122,0.504 0.105,0.515 0.078,0.5 0.043,0.52 0.016,0.531 c 0,6.582 -6.977,12.797 -16.809,12.797 l -0.547,-2.355 c 7.356,0 10,-6.43 10,-10.442 0,-4.847 -3.707,-11.219 -12.113,-11.219 l -10.973,0 0,-1.656 14.223,0 c 7.512,0 10.687,-7.051 10.687,-12.113 0,-5.395 -3.937,-11.582 -11.734,-11.582 l -9.469,0 c -3.57,0 -3.707,0.519 -3.707,3.012 l 0,40.961 c 0,2.523 0.137,3.039 3.707,3.039 l 9.379,0 0.547,2.355 -27.723,0 0,-2.355 1.809,0 c 5.852,0 5.988,-0.821 5.988,-3.555 l 0,-39.899 c 0,-2.738 -0.136,-3.558 -5.988,-3.558 l -1.809,0 0,-2.356 29.7,0 c 10.058,0 16.871,6.75 16.871,13.864 0,6.578 -6.219,12.265 -14.625,13.16 z"
         style="fill:#000000;fill-opacity:1;fill-rule:nonzero;stroke:none"
         id="path3375" /><path
         d="m 1625.16,2458.688 0.063,1.593 c 0.453,11.278 6.824,13.164 9.406,13.164 7.781,0 8.543,-10.215 8.543,-13.164 l -17.949,0 -0.063,-1.593 21.129,0 c 1.672,0 1.883,0 1.883,1.593 0,7.481 -4.09,14.821 -13.543,14.821 -8.785,0 -15.777,-7.782 -15.777,-17.266 0,-10.141 7.964,-17.481 16.675,-17.481 9.243,0 12.645,8.407 12.645,9.836 0,0.758 -0.61,0.926 -0.973,0.926 -0.699,0 -0.836,-0.457 -1.004,-1.062 -2.644,-7.801 -9.453,-7.801 -10.211,-7.801 -3.8,0 -6.812,2.266 -8.543,5.062 -2.281,3.633 -2.281,8.649 -2.281,11.372 z"
         style="fill:#000000;fill-opacity:1;fill-rule:nonzero;stroke:none"
         id="path3377" /><path
         d="m 1658.645,2467.242 0,-20.304 c 0,-3.391 -0.836,-3.391 -5.915,-3.391 l 0,-2.356 c 2.661,0.079 6.508,0.243 8.543,0.243 1.977,0 5.915,-0.164 8.481,-0.243 l 0,2.356 c -5.059,0 -5.895,0 -5.895,3.391 l 0,13.937 c 0,7.887 5.379,12.113 10.211,12.113 4.774,0 5.61,-4.09 5.61,-8.406 l 0,-17.644 c 0,-3.391 -0.836,-3.391 -5.91,-3.391 l 0,-2.356 c 2.656,0.079 6.535,0.243 8.57,0.243 1.976,0 5.898,-0.164 8.48,-0.243 l 0,2.356 c -3.949,0 -5.851,0 -5.91,2.281 l 0,14.453 c 0,6.508 0,8.864 -2.355,11.567 -1.051,1.308 -3.559,2.797 -7.938,2.797 -5.531,0 -9.086,-3.254 -11.199,-7.918 l 0,7.918 -10.688,-0.821 0,-2.355 c 5.29,0 5.915,-0.516 5.915,-4.227 z"
         style="fill:#000000;fill-opacity:1;fill-rule:nonzero;stroke:none"
         id="path3379" /><path
         d="m 1721.219,2445.34 0,-4.985 11.113,0.836 0,2.356 c -5.293,0 -5.883,0.519 -5.883,4.226 l 0,45.977 -10.914,-0.836 0,-2.355 c 5.305,0 5.899,-0.516 5.899,-4.243 l 0,-16.336 c -2.192,2.704 -5.442,4.665 -9.547,4.665 l 0.304,-1.657 c 2.661,0 5.836,-1.14 8.192,-4.527 0.836,-1.293 0.836,-1.461 0.836,-2.813 l 0,-15.535 c 0,-1.351 0,-1.519 -0.836,-2.797 -2.278,-3.632 -5.699,-5.289 -8.953,-5.289 -3.387,0 -6.125,1.961 -7.934,4.832 -1.976,3.118 -2.203,7.434 -2.203,10.536 0,2.796 0.137,7.355 2.355,10.746 1.582,2.355 4.454,4.847 8.543,4.847 l -0.304,1.657 c -8.938,0 -16.887,-7.403 -16.887,-17.161 0,-9.621 7.434,-17.129 16.051,-17.129 4.847,0 8.269,2.571 10.168,4.985 z"
         style="fill:#000000;fill-opacity:1;fill-rule:nonzero;stroke:none"
         id="path3381" /><path
         d="m 1368.172,1458.164 0.031,-1.457 0.106,-1.43 0.168,-1.414 0.246,-1.383 0.3,-1.351 0.368,-1.324 0.425,-1.289 0.485,-1.262 0.547,-1.231 0.593,-1.187 0.653,-1.156 0.699,-1.125 0.746,-1.063 0.789,-1.035 0.836,-1 0.898,-0.945 0.911,-0.895 0.972,-0.851 1.004,-0.805 1.035,-0.762 1.063,-0.699 1.109,-0.652 1.125,-0.594 1.172,-0.531 1.184,-0.489 1.203,-0.422 1.246,-0.351 1.246,-0.305 1.277,-0.226 1.274,-0.168 1.308,-0.106 1.309,-0.031 c 12.355,0 19.758,10.52 19.758,19.305 0,0.758 0,1.273 -0.973,1.273 -0.82,0 -0.82,-0.437 -0.898,-1.199 -0.621,-10.836 -8.707,-17.039 -16.977,-17.039 -4.605,0 -19.453,2.57 -19.453,25.125 0,22.66 14.773,25.23 19.379,25.23 8.266,0 15.016,-6.886 16.504,-17.965 0.168,-1.035 0.168,-1.277 1.219,-1.277 1.199,0 1.199,0.242 1.199,1.824 l 0,17.934 c 0,1.309 0,1.824 -0.82,1.824 -0.29,0 -0.594,0 -1.215,-0.894 l -3.77,-5.61 c -2.812,2.735 -6.676,6.504 -13.953,6.504 -14.152,0 -26.328,-12.035 -26.328,-27.496 z"
         style="fill:#000000;fill-opacity:1;fill-rule:nonzero;stroke:none"
         id="path3383" /><path
         d="m 1454.309,1448.484 -0.032,0.895 -0.062,0.898 -0.106,0.883 -0.152,0.867 -0.184,0.848 -0.226,0.836 -0.274,0.824 -0.304,0.805 -0.332,0.773 -0.367,0.762 -0.411,0.742 -0.441,0.715 -0.469,0.699 -0.488,0.668 -0.531,0.656 -0.563,0.606 -0.578,0.594 -0.605,0.562 -0.641,0.531 -0.652,0.489 -0.684,0.468 -0.699,0.426 -0.715,0.399 -0.746,0.363 -0.758,0.32 -0.777,0.274 -0.789,0.242 -0.805,0.199 -0.82,0.164 -0.836,0.11 -0.836,0.074 -0.867,0.015 -0.063,-1.656 c 3.313,0 6.566,-1.672 8.543,-4.926 1.977,-3.254 1.977,-7.644 1.977,-10.515 0,-2.739 0,-6.813 -1.672,-10.141 -1.656,-3.418 -4.985,-5.609 -8.785,-5.609 -3.254,0 -6.582,1.597 -8.618,5.062 -1.902,3.344 -1.902,7.949 -1.902,10.688 0,2.945 0,7.035 1.809,10.379 2.066,3.465 5.609,5.062 8.648,5.062 l 0.063,1.656 c -9.454,0 -16.813,-8.238 -16.813,-17.707 0,-9.773 7.891,-17.039 16.75,-17.039 9.164,0 16.813,7.418 16.813,17.039 z"
         style="fill:#000000;fill-opacity:1;fill-rule:nonzero;stroke:none"
         id="path3385" /><path
         d="m 1486.18,1438.27 0,-6.825 10.898,0.836 0,2.356 c -5.289,0 -5.914,0.519 -5.914,4.226 l 0,26.871 -11.141,-0.82 0,-2.355 c 5.321,0 5.915,-0.516 5.915,-4.227 l 0,-13.496 c 0,-6.566 -3.633,-11.719 -9.165,-11.719 -6.339,0 -6.644,3.559 -6.644,7.492 l 0,25.125 -11.141,-0.82 0,-2.355 c 5.914,0 5.914,-0.215 5.914,-6.961 l 0,-11.356 c 0,-5.91 0,-12.797 11.489,-12.797 4.257,0 7.586,2.114 9.789,6.825 z"
         style="fill:#000000;fill-opacity:1;fill-rule:nonzero;stroke:none"
         id="path3387" /><path
         d="m 1512.094,1484.84 -10.899,-0.836 0,-2.356 c 5.289,0 5.914,-0.515 5.914,-4.242 l 0,-39.379 c 0,-3.39 -0.836,-3.39 -5.914,-3.39 l 0,-2.356 c 2.493,0.078 6.508,0.242 8.407,0.242 1.898,0 5.593,-0.164 8.406,-0.242 l 0,2.356 c -5.094,0 -5.914,0 -5.914,3.39 l 0,46.813 z"
         style="fill:#000000;fill-opacity:1;fill-rule:nonzero;stroke:none"
         id="path3389" /><path
         d="m 1555.336,1448.484 -0.016,0.895 -0.074,0.898 -0.109,0.883 -0.137,0.867 -0.195,0.848 -0.231,0.836 -0.258,0.824 -0.304,0.805 -0.332,0.773 -0.379,0.762 -0.41,0.742 -0.426,0.715 -0.473,0.699 -0.5,0.668 -0.535,0.656 -0.562,0.606 -0.575,0.594 -0.609,0.562 -0.637,0.531 -0.656,0.489 -0.684,0.468 -0.699,0.426 -0.715,0.399 -0.742,0.363 -0.762,0.32 -0.773,0.274 -0.793,0.242 -0.805,0.199 -0.82,0.164 -0.836,0.11 -0.836,0.074 -0.851,0.015 -0.075,-1.656 c 3.328,0 6.578,-1.672 8.539,-4.926 1.977,-3.254 1.977,-7.644 1.977,-10.515 0,-2.739 0,-6.813 -1.656,-10.141 -1.672,-3.418 -4.985,-5.609 -8.785,-5.609 -3.27,0 -6.582,1.597 -8.633,5.062 -1.899,3.344 -1.899,7.949 -1.899,10.688 0,2.945 0,7.035 1.809,10.379 2.066,3.465 5.605,5.062 8.648,5.062 l 0.075,1.656 c -9.454,0 -16.825,-8.238 -16.825,-17.707 0,-9.773 7.887,-17.039 16.75,-17.039 9.164,0 16.809,7.418 16.809,17.039 z"
         style="fill:#000000;fill-opacity:1;fill-rule:nonzero;stroke:none"
         id="path3391" /><path
         d="m 1565.93,1458.332 0,-20.305 c 0,-3.39 -0.821,-3.39 -5.914,-3.39 l 0,-2.356 c 2.66,0.078 6.507,0.242 8.558,0.242 1.977,0 5.914,-0.164 8.481,-0.242 l 0,2.356 c -5.059,0 -5.895,0 -5.895,3.39 l 0,13.938 c 0,7.887 5.363,12.113 10.211,12.113 4.774,0 5.609,-4.09 5.609,-8.406 l 0,-17.645 c 0,-3.39 -0.835,-3.39 -5.914,-3.39 l 0,-2.356 c 2.661,0.078 6.524,0.242 8.575,0.242 1.961,0 5.882,-0.164 8.464,-0.242 l 0,2.356 c -5.074,0 -5.894,0 -5.894,3.39 l 0,13.938 c 0,7.887 5.379,12.113 10.227,12.113 4.773,0 5.609,-4.09 5.609,-8.406 l 0,-17.645 c 0,-3.39 -0.836,-3.39 -5.914,-3.39 l 0,-2.356 c 2.629,0.078 6.508,0.242 8.543,0.242 1.976,0 5.914,-0.164 8.48,-0.242 l 0,2.356 c -3.922,0 -5.82,0 -5.894,2.281 l 0,14.453 c 0,6.508 0,8.863 -2.344,11.567 -1.078,1.308 -3.57,2.796 -7.965,2.796 -6.367,0 -9.68,-4.527 -10.973,-7.402 -1.062,6.582 -6.671,7.402 -10.062,7.402 -5.531,0 -9.086,-3.25 -11.215,-7.918 l 0,7.918 -10.687,-0.82 0,-2.355 c 5.304,0 5.914,-0.516 5.914,-4.227 z"
         style="fill:#000000;fill-opacity:1;fill-rule:nonzero;stroke:none"
         id="path3393" /><path
         d="m 1631.531,1460.824 0,24.016 -10.898,-0.836 0,-2.356 c 5.289,0 5.91,-0.515 5.91,-4.242 l 0,-45.125 1.902,0 c 0.059,0.078 0.668,1.141 2.703,4.696 1.141,-1.747 4.317,-5.532 9.926,-5.532 l -0.304,1.672 c -3.403,0 -6.125,1.824 -7.934,4.621 -1.063,1.598 -1.063,1.809 -1.063,3.16 l 0,15.61 c 0,1.445 0,1.519 0.821,2.722 2.949,4.254 7.129,4.848 8.937,4.848 3.418,0 6.157,-1.976 7.949,-4.848 1.977,-3.101 2.204,-7.402 2.204,-10.519 0,-2.797 -0.153,-7.34 -2.34,-10.762 -1.598,-2.34 -4.469,-4.832 -8.574,-4.832 l 0.304,-1.672 c 9.028,0 16.887,7.418 16.887,17.192 0,9.621 -7.418,17.097 -16.051,17.097 -5.898,0 -9.164,-3.554 -10.379,-4.91 z"
         style="fill:#000000;fill-opacity:1;fill-rule:nonzero;stroke:none"
         id="path3395" /><path
         d="m 1674.043,1465.734 -10.594,-0.82 0,-2.355 c 4.906,0 5.606,-0.457 5.606,-4.149 l 0,-20.383 c 0,-3.39 -0.836,-3.39 -5.91,-3.39 l 0,-2.356 c 2.414,0.078 6.503,0.242 8.328,0.242 2.66,0 5.289,-0.164 7.886,-0.242 l 0,2.356 c -5.015,0 -5.316,0.383 -5.316,3.312 l 0,27.785 z"
         style="fill:#000000;fill-opacity:1;fill-rule:nonzero;stroke:none"
         id="path3397" /><path
         d="m 1674.344,1478.93 0,0.211 -0.012,0.226 -0.031,0.215 -0.031,0.211 -0.063,0.199 -0.043,0.199 -0.078,0.196 -0.074,0.183 -0.078,0.18 -0.09,0.184 -0.106,0.168 -0.105,0.152 -0.11,0.152 -0.121,0.153 -0.136,0.152 -0.137,0.121 -0.137,0.137 -0.152,0.121 -0.305,0.211 -0.164,0.109 -0.168,0.09 -0.168,0.074 -0.183,0.078 -0.18,0.059 -0.184,0.062 -0.183,0.047 -0.196,0.043 -0.183,0.032 -0.199,0.015 -0.196,0.016 -0.199,0.015 c -2.355,0 -4.012,-2.054 -4.012,-4.011 0,-2.055 1.657,-4.016 4.012,-4.016 2.113,0 4.012,1.582 4.012,4.016 z"
         style="fill:#000000;fill-opacity:1;fill-rule:nonzero;stroke:none"
         id="path3399" /><path
         d="m 1690.473,1448.789 0,0.578 0.015,0.547 0.028,0.547 0.031,0.531 0.031,0.516 0.047,0.519 0.059,0.485 0.062,0.488 0.074,0.469 0.078,0.457 0.18,0.883 0.199,0.836 0.227,0.773 0.258,0.746 0.277,0.699 0.301,0.653 0.32,0.609 0.336,0.574 0.348,0.535 0.367,0.485 0.379,0.457 0.394,0.426 0.395,0.394 0.41,0.348 0.41,0.32 0.426,0.289 0.426,0.242 0.441,0.231 0.426,0.195 0.426,0.184 0.426,0.136 0.425,0.121 0.426,0.094 0.41,0.074 0.395,0.047 0.394,0.028 0.379,0.015 c 0.672,0 5.442,-0.074 8.102,-2.812 -3.098,-0.227 -3.555,-2.492 -3.555,-3.481 0,-1.972 1.352,-3.492 3.496,-3.492 1.946,0 3.465,1.305 3.465,3.555 0,5.152 -5.746,8.101 -11.598,8.101 -9.453,0 -16.429,-8.164 -16.429,-17.554 0,-9.684 7.508,-17.192 16.293,-17.192 10.136,0 12.57,9.106 12.57,9.836 0,0.758 -0.762,0.758 -0.988,0.758 -0.684,0 -0.821,-0.289 -0.989,-0.758 -2.187,-7.023 -7.097,-7.937 -9.91,-7.937 -4.011,0 -10.683,3.254 -10.683,15.445 z"
         style="fill:#000000;fill-opacity:1;fill-rule:nonzero;stroke:none"
         id="path3401" /><path
         d="m 1337.797,570.777 0.062,0.164 0.075,0.184 0.078,0.184 0.074,0.179 0.094,0.2 0.09,0.199 0.089,0.195 0.11,0.215 0.121,0.195 0.121,0.215 0.137,0.211 0.136,0.215 0.153,0.195 0.168,0.215 0.179,0.195 0.184,0.2 0.199,0.183 0.211,0.195 0.227,0.168 0.246,0.184 0.258,0.168 0.273,0.148 0.289,0.137 0.305,0.137 0.316,0.125 0.336,0.105 0.363,0.106 0.379,0.078 0.399,0.074 0.195,0.016 0.215,0.031 0.211,0.016 0.23,0.011 0.227,0.016 0.226,0 0,2.355 c -1.746,-0.148 -3.933,-0.211 -5.668,-0.211 -1.839,0 -5.32,0.137 -6.613,0.211 l 0,-2.355 c 2.813,-0.074 3.633,-1.809 3.633,-3.25 0,-0.672 -0.137,-0.973 -0.441,-1.809 l -7.719,-19.304 -8.481,21.113 c -0.457,1 -0.457,1.137 -0.457,1.305 0,1.945 2.95,1.945 4.301,1.945 l 0,2.355 c -2.25,-0.074 -6.504,-0.211 -8.238,-0.211 -2.035,0 -5.074,0.063 -7.34,0.211 l 0,-2.355 c 4.758,0 5.062,-0.453 6.062,-2.797 l 10.899,-26.855 c 0.457,-1.079 0.594,-1.461 1.598,-1.461 0.972,0 1.277,0.699 1.578,1.461 l 9.91,24.593 z"
         style="fill:#000000;fill-opacity:1;fill-rule:nonzero;stroke:none"
         id="path3403" /><path
         d="m 1367.27,551.305 0.046,-0.289 0.028,-0.274 0.062,-0.289 0.063,-0.273 0.074,-0.289 0.09,-0.274 0.094,-0.273 0.211,-0.547 0.121,-0.258 0.136,-0.273 0.305,-0.485 0.152,-0.246 0.184,-0.242 0.18,-0.211 0.183,-0.215 0.199,-0.211 0.211,-0.199 0.231,-0.184 0.226,-0.179 0.227,-0.153 0.258,-0.152 0.261,-0.137 0.258,-0.121 0.274,-0.109 0.289,-0.09 0.289,-0.074 0.301,-0.063 0.32,-0.047 0.32,-0.027 0.321,-0.016 c 1.562,0 6.199,1.079 6.199,7.204 l 0,4.226 -1.899,0 0,-4.226 c 0,-4.391 -1.871,-4.848 -2.738,-4.848 -2.492,0 -2.797,3.391 -2.797,3.769 l 0,15.153 c 0,3.191 0,6.125 -2.703,8.937 -2.965,2.934 -6.75,4.149 -10.383,4.149 -6.215,0 -11.445,-3.539 -11.445,-8.539 0,-2.266 1.52,-3.575 3.496,-3.575 2.113,0 3.481,1.52 3.481,3.497 0,0.898 -0.379,3.39 -3.86,3.496 2.035,2.629 5.746,3.464 8.16,3.464 3.743,0 8.028,-2.949 8.028,-9.695 l 0,-11.965 c 0,-7.203 -5.426,-9.757 -8.848,-9.757 -3.707,0 -6.824,2.66 -6.824,6.429 0,4.153 3.176,10.457 15.672,10.899 l 0,1.597 c -3.848,-0.215 -9.137,-0.457 -13.907,-2.738 -5.687,-2.566 -7.586,-6.504 -7.586,-9.832 0,-6.125 7.34,-8.027 12.114,-8.027 5.015,0 8.48,3.027 9.926,6.582 z"
         style="fill:#000000;fill-opacity:1;fill-rule:nonzero;stroke:none"
         id="path3405" /><path
         d="m 1388.32,571.613 0,-20.308 c 0,-3.387 -0.836,-3.387 -5.914,-3.387 l 0,-2.359 c 2.66,0.078 6.508,0.246 8.543,0.246 1.977,0 5.914,-0.168 8.481,-0.246 l 0,2.359 c -5.047,0 -5.883,0 -5.883,3.387 l 0,13.937 c 0,7.891 5.367,12.113 10.215,12.113 4.773,0 5.593,-4.085 5.593,-8.402 l 0,-17.648 c 0,-3.387 -0.82,-3.387 -5.914,-3.387 l 0,-2.359 c 2.661,0.078 6.539,0.246 8.575,0.246 1.976,0 5.898,-0.168 8.48,-0.246 l 0,2.359 c -3.937,0 -5.836,0 -5.91,2.277 l 0,14.457 c 0,6.504 0,8.86 -2.344,11.567 -1.047,1.304 -3.57,2.797 -7.933,2.797 -5.547,0 -9.102,-3.254 -11.215,-7.922 l 0,7.922 -10.688,-0.825 0,-2.355 c 5.289,0 5.914,-0.516 5.914,-4.223 z"
         style="fill:#000000;fill-opacity:1;fill-rule:nonzero;stroke:none"
         id="path3407" /><path
         d="m 1476.066,549.711 0,-4.988 11.11,0.836 0,2.359 c -5.289,0 -5.883,0.516 -5.883,4.223 l 0,45.976 -10.898,-0.836 0,-2.355 c 5.289,0 5.882,-0.516 5.882,-4.238 l 0,-16.34 c -2.187,2.707 -5.441,4.668 -9.543,4.668 l 0.301,-1.661 c 2.66,0 5.852,-1.136 8.195,-4.527 0.836,-1.293 0.836,-1.461 0.836,-2.812 l 0,-15.536 c 0,-1.351 0,-1.519 -0.836,-2.792 -2.281,-3.633 -5.703,-5.293 -8.953,-5.293 -3.39,0 -6.125,1.96 -7.933,4.835 -1.961,3.114 -2.203,7.434 -2.203,10.532 0,2.797 0.148,7.355 2.355,10.746 1.594,2.355 4.469,4.847 8.539,4.847 l -0.301,1.661 c -8.922,0 -16.886,-7.403 -16.886,-17.161 0,-9.621 7.429,-17.132 16.05,-17.132 4.848,0 8.266,2.57 10.168,4.988 z"
         style="fill:#000000;fill-opacity:1;fill-rule:nonzero;stroke:none"
         id="path3409" /><path
         d="m 1497.816,563.055 0.075,1.597 c 0.457,11.278 6.808,13.16 9.41,13.16 7.781,0 8.539,-10.214 8.539,-13.16 l -17.949,0 -0.075,-1.597 21.141,0 c 1.656,0 1.871,0 1.871,1.597 0,7.477 -4.074,14.817 -13.527,14.817 -8.785,0 -15.778,-7.781 -15.778,-17.266 0,-10.137 7.965,-17.48 16.672,-17.48 9.243,0 12.633,8.406 12.633,9.836 0,0.757 -0.594,0.925 -0.973,0.925 -0.687,0 -0.824,-0.453 -0.988,-1.062 -2.644,-7.797 -9.457,-7.797 -10.215,-7.797 -3.8,0 -6.824,2.266 -8.558,5.063 -2.278,3.628 -2.278,8.648 -2.278,11.367 z"
         style="fill:#000000;fill-opacity:1;fill-rule:nonzero;stroke:none"
         id="path3411" /><path
         d="m 1535.602,570.715 0,8.301 -10.52,-0.825 0,-2.355 c 5.305,0 5.914,-0.516 5.914,-4.223 l 0,-20.308 c 0,-3.387 -0.836,-3.387 -5.914,-3.387 l 0,-2.359 c 2.965,0.078 6.504,0.246 8.648,0.246 3.008,0 6.582,0 9.622,-0.246 l 0,2.359 -1.598,0 c -5.606,0 -5.774,0.82 -5.774,3.555 l 0,11.656 c 0,7.48 3.192,14.226 8.954,14.226 0.531,0 0.668,0 0.836,-0.074 -0.247,-0.062 -1.766,-0.972 -1.766,-2.933 0,-2.145 1.598,-3.254 3.285,-3.254 1.352,0 3.25,0.898 3.25,3.316 0,2.43 -2.355,4.606 -5.605,4.606 -5.536,0 -8.254,-5.047 -9.332,-8.301 z"
         style="fill:#000000;fill-opacity:1;fill-rule:nonzero;stroke:none"
         id="path3413" /><path
         d="m 1646.691,589.852 0.137,0.394 0.137,0.379 0.168,0.352 0.152,0.332 0.18,0.32 0.183,0.289 0.196,0.289 0.199,0.258 0.199,0.242 0.227,0.246 0.211,0.211 0.23,0.199 0.242,0.18 0.243,0.168 0.246,0.152 0.242,0.153 0.515,0.242 0.274,0.105 0.258,0.11 0.273,0.074 0.274,0.078 0.273,0.059 0.273,0.062 0.289,0.043 0.274,0.047 0.289,0.031 0.273,0.031 0.563,0.028 0.547,0 0,2.355 c -2.246,-0.164 -4.602,-0.242 -6.883,-0.242 -2.187,0 -7.023,0.168 -9,0.242 l 0,-2.355 c 5.063,-0.059 6.582,-2.551 6.582,-4.012 0,-0.441 -0.211,-1.062 -0.379,-1.519 l -11.355,-34.973 -12.114,37.086 c -0.089,0.32 -0.242,0.758 -0.242,1.14 0,2.278 4.406,2.278 6.367,2.278 l 0,2.355 c -2.718,-0.242 -7.886,-0.242 -10.761,-0.242 -2.871,0 -6.125,0.168 -9.223,0.242 l 0,-2.355 c 4.316,0 5.91,0 6.809,-2.719 l 1.656,-5.305 -10.52,-32.48 -12.172,37.254 c -0.078,0.211 -0.168,0.758 -0.168,0.972 0,2.278 4.391,2.278 6.352,2.278 l 0,2.355 c -2.719,-0.242 -7.855,-0.242 -10.746,-0.242 -2.871,0 -6.141,0.168 -9.238,0.242 l 0,-2.355 c 5.699,0 5.988,-0.379 6.898,-3.176 l 15.141,-46.434 c 0.226,-0.652 0.453,-1.414 1.441,-1.414 1.051,0 1.219,0.52 1.52,1.52 l 12.496,38.441 12.57,-38.547 c 0.227,-0.652 0.438,-1.414 1.441,-1.414 1.051,0 1.219,0.52 1.493,1.52 l 14.468,44.43 z"
         style="fill:#000000;fill-opacity:1;fill-rule:nonzero;stroke:none"
         id="path3415" /><path
         d="m 1674.582,551.305 0.027,-0.289 0.047,-0.274 0.063,-0.289 0.058,-0.273 0.078,-0.289 0.075,-0.274 0.105,-0.273 0.094,-0.274 0.121,-0.273 0.121,-0.258 0.137,-0.273 0.137,-0.243 0.152,-0.242 0.168,-0.246 0.168,-0.242 0.179,-0.211 0.2,-0.215 0.195,-0.211 0.215,-0.199 0.211,-0.184 0.23,-0.179 0.485,-0.305 0.257,-0.137 0.274,-0.121 0.277,-0.109 0.285,-0.09 0.289,-0.074 0.305,-0.063 0.305,-0.047 0.32,-0.027 0.332,-0.016 c 1.567,0 6.203,1.079 6.203,7.204 l 0,4.226 -1.902,0 0,-4.226 c 0,-4.391 -1.883,-4.848 -2.734,-4.848 -2.493,0 -2.797,3.391 -2.797,3.769 l 0,15.153 c 0,3.191 0,6.125 -2.703,8.937 -2.981,2.934 -6.75,4.149 -10.383,4.149 -6.215,0 -11.446,-3.539 -11.446,-8.539 0,-2.266 1.52,-3.575 3.481,-3.575 2.129,0 3.496,1.52 3.496,3.497 0,0.898 -0.379,3.39 -3.875,3.496 2.051,2.629 5.762,3.464 8.176,3.464 3.722,0 8.027,-2.949 8.027,-9.695 l 0,-11.965 c 0,-7.203 -5.441,-9.757 -8.863,-9.757 -3.692,0 -6.809,2.66 -6.809,6.429 0,4.153 3.176,10.457 15.672,10.899 l 0,1.597 c -3.847,-0.215 -9.137,-0.457 -13.922,-2.738 -5.672,-2.566 -7.57,-6.504 -7.57,-9.832 0,-6.125 7.34,-8.027 12.113,-8.027 5.016,0 8.481,3.027 9.926,6.582 z"
         style="fill:#000000;fill-opacity:1;fill-rule:nonzero;stroke:none"
         id="path3417" /><path
         d="m 1712.52,551.305 0.027,-0.289 0.047,-0.274 0.047,-0.289 0.074,-0.273 0.078,-0.289 0.074,-0.274 0.09,-0.273 0.109,-0.274 0.122,-0.273 0.121,-0.258 0.136,-0.273 0.137,-0.243 0.152,-0.242 0.168,-0.246 0.164,-0.242 0.184,-0.211 0.199,-0.215 0.196,-0.211 0.214,-0.199 0.211,-0.184 0.231,-0.179 0.484,-0.305 0.258,-0.137 0.258,-0.121 0.289,-0.109 0.273,-0.09 0.305,-0.074 0.305,-0.063 0.304,-0.047 0.321,-0.027 0.332,-0.016 c 1.566,0 6.203,1.079 6.203,7.204 l 0,4.226 -1.903,0 0,-4.226 c 0,-4.391 -1.882,-4.848 -2.734,-4.848 -2.492,0 -2.812,3.391 -2.812,3.769 l 0,15.153 c 0,3.191 0,6.125 -2.704,8.937 -2.964,2.934 -6.734,4.149 -10.367,4.149 -6.23,0 -11.445,-3.539 -11.445,-8.539 0,-2.266 1.52,-3.575 3.48,-3.575 2.114,0 3.497,1.52 3.497,3.497 0,0.898 -0.379,3.39 -3.875,3.496 2.035,2.629 5.746,3.464 8.175,3.464 3.723,0 8.028,-2.949 8.028,-9.695 l 0,-11.965 c 0,-7.203 -5.442,-9.757 -8.864,-9.757 -3.707,0 -6.824,2.66 -6.824,6.429 0,4.153 3.192,10.457 15.688,10.899 l 0,1.597 c -3.848,-0.215 -9.153,-0.457 -13.926,-2.738 -5.668,-2.566 -7.567,-6.504 -7.567,-9.832 0,-6.125 7.325,-8.027 12.114,-8.027 5,0 8.465,3.027 9.926,6.582 z"
         style="fill:#000000;fill-opacity:1;fill-rule:nonzero;stroke:none"
         id="path3419" /><path
         d="m 1738.613,598.117 -10.894,-0.836 0,-2.355 c 5.304,0 5.91,-0.516 5.91,-4.238 l 0,-39.383 c 0,-3.387 -0.836,-3.387 -5.91,-3.387 l 0,-2.359 c 2.492,0.078 6.504,0.246 8.402,0.246 1.902,0 5.609,-0.168 8.406,-0.246 l 0,2.359 c -5.078,0 -5.914,0 -5.914,3.387 l 0,46.812 z"
         style="fill:#000000;fill-opacity:1;fill-rule:nonzero;stroke:none"
         id="path3421" /><path
         d="m 1761.945,560.258 0.168,-0.031 0.196,-0.032 0.214,-0.043 0.227,-0.062 0.258,-0.059 0.273,-0.062 0.289,-0.074 0.305,-0.094 0.305,-0.09 0.32,-0.106 0.332,-0.121 0.336,-0.125 0.336,-0.148 0.332,-0.152 0.336,-0.168 0.332,-0.184 0.336,-0.211 0.32,-0.215 0.305,-0.226 0.301,-0.243 0.289,-0.273 0.273,-0.289 0.258,-0.305 0.246,-0.32 0.211,-0.332 0.105,-0.184 0.094,-0.183 0.09,-0.196 0.078,-0.183 0.074,-0.215 0.075,-0.195 0.062,-0.215 0.047,-0.211 0.043,-0.231 0.047,-0.226 0.031,-0.242 0.016,-0.231 0.015,-0.258 0,-0.242 c 0,-3.843 -2.66,-6.886 -8.543,-6.886 -6.367,0 -9.089,4.32 -10.547,10.746 -0.214,0.972 -0.289,1.293 -1.05,1.293 -0.989,0 -0.989,-0.532 -0.989,-1.899 l 0,-10.004 c 0,-1.273 0,-1.808 0.821,-1.808 0.394,0 0.457,0.078 1.918,1.523 0.136,0.149 0.136,0.285 1.519,1.731 3.313,-3.176 6.731,-3.254 8.328,-3.254 8.696,0 12.188,5.093 12.188,10.519 0,4.012 -2.277,6.293 -3.192,7.203 -2.492,2.418 -5.457,3.043 -8.648,3.633 -4.223,0.836 -9.301,1.824 -9.301,6.219 0,2.644 1.977,5.746 8.481,5.746 8.332,0 8.711,-6.813 8.863,-9.168 0.09,-0.684 0.758,-0.684 0.91,-0.684 0.973,0 0.973,0.379 0.973,1.825 l 0,7.644 c 0,1.293 0,1.809 -0.821,1.809 -0.378,0 -0.531,0 -1.519,-0.895 -0.211,-0.32 -0.973,-0.972 -1.293,-1.219 -2.871,2.114 -5.973,2.114 -7.113,2.114 -9.239,0 -12.114,-5.059 -12.114,-9.301 0,-2.645 1.215,-4.773 3.254,-6.445 2.414,-1.961 4.559,-2.414 10,-3.465 z"
         style="fill:#000000;fill-opacity:1;fill-rule:nonzero;stroke:none"
         id="path3423" /><path
         d="m 933.137,1789.68 0,0.476 -0.016,0.524 -0.031,0.554 -0.031,0.571 -0.047,0.601 -0.063,0.602 -0.058,0.629 -0.094,0.633 -0.109,0.644 -0.106,0.664 -0.141,0.645 -0.152,0.664 -0.184,0.644 -0.187,0.649 -0.215,0.629 -0.246,0.632 -0.262,0.614 -0.277,0.586 -0.309,0.57 -0.336,0.555 -0.355,0.523 -0.383,0.492 -0.433,0.461 -0.446,0.414 -0.476,0.387 -0.246,0.184 -0.262,0.156 -0.262,0.152 -0.277,0.156 -0.278,0.121 -0.293,0.126 -0.292,0.105 -0.309,0.094 -0.32,0.078 -0.325,0.074 -0.339,0.047 -0.34,0.031 -0.352,0.031 -0.355,0 -0.078,-1.679 c 3.757,0 4.203,-4.91 4.203,-9.281 0,-3.758 -0.598,-7.68 -2.446,-15.27 l -16.027,0 c 1.309,4.926 2.848,11.051 5.898,16.5 2.094,3.742 4.911,8.051 8.372,8.051 l 0.078,1.679 c -10.653,0 -22.473,-21.613 -22.473,-39.175 0,-7.223 2.215,-15.735 9.219,-15.735 l 0,1.696 c -2.555,0 -4.172,2.23 -4.172,9.343 0,3.231 0.461,7.68 2.465,15.176 l 15.961,0 c -0.832,-3.508 -2.446,-10.019 -5.387,-15.562 -2.664,-5.219 -5.574,-8.957 -8.867,-8.957 l 0,-1.696 c 10.793,0 22.461,22.012 22.461,39.192 z"
         style="fill:#000000;fill-opacity:1;fill-rule:nonzero;stroke:none"
         id="path3425" /></g></g></svg>