<?xml version="1.0" encoding="UTF-8" standalone="no"?>
<!-- Created with Inkscape (http://www.inkscape.org/) -->

<svg
   xmlns:dc="http://purl.org/dc/elements/1.1/"
   xmlns:cc="http://creativecommons.org/ns#"
   xmlns:rdf="http://www.w3.org/1999/02/22-rdf-syntax-ns#"
   xmlns:svg="http://www.w3.org/2000/svg"
   xmlns="http://www.w3.org/2000/svg"
   xmlns:sodipodi="http://sodipodi.sourceforge.net/DTD/sodipodi-0.dtd"
   xmlns:inkscape="http://www.inkscape.org/namespaces/inkscape"
   width="1166.0343"
   height="1009.9334"
   id="svg2"
   version="1.1"
   inkscape:version="0.48.4 r9939"
   sodipodi:docname="coul.svg">
  <defs
     id="defs4">
    <clipPath
       clipPathUnits="userSpaceOnUse"
       id="clipPath3251">
      <path
         inkscape:connector-curvature="0"
         d="m 146.805,1677.609 725.176,0 0,-784.996 -725.176,0 0,784.996 z"
         id="path3253" />
    </clipPath>
    <clipPath
       clipPathUnits="userSpaceOnUse"
       id="clipPath3261">
      <path
         inkscape:connector-curvature="0"
         d="m 159,906 716,0 0,774 -716,0 0,-774 z"
         id="path3263" />
    </clipPath>
    <clipPath
       clipPathUnits="userSpaceOnUse"
       id="clipPath3019">
      <path
         inkscape:connector-curvature="0"
         d="m 1845.805,1284.949 c 0,-10.547 -2.047,-21.094 -5.985,-30.84 -3.941,-9.746 -9.765,-18.683 -17.047,-26.144 -7.277,-7.461 -15.996,-13.434 -25.503,-17.469 -9.512,-4.039 -19.797,-6.137 -30.09,-6.137 -10.293,0 -20.578,2.098 -30.09,6.137 -9.508,4.035 -18.227,10.008 -25.504,17.469 -7.281,7.461 -13.106,16.398 -17.047,26.144 -3.937,9.746 -5.984,20.293 -5.984,30.84 0,10.551 2.047,21.094 5.984,30.84 3.941,9.746 9.766,18.688 17.047,26.149 7.277,7.457 15.996,13.429 25.504,17.468 9.512,4.035 19.797,6.133 30.09,6.133 10.293,0 20.578,-2.098 30.09,-6.133 9.507,-4.039 18.226,-10.011 25.503,-17.468 7.282,-7.461 13.106,-16.403 17.047,-26.149 3.938,-9.746 5.985,-20.289 5.985,-30.84 z"
         clip-rule="evenodd"
         id="path3021" />
    </clipPath>
    <radialGradient
       fx="171.2081"
       fy="196.85463"
       cx="171.2081"
       cy="196.85463"
       r="200"
       gradientUnits="userSpaceOnUse"
       gradientTransform="matrix(0.40901,-0.313014,-0.320204,-0.418405,1729.2128,1444.3355)"
       spreadMethod="pad"
       id="radialGradient3025">
      <stop
         style="stop-opacity:1;stop-color:#ffffff"
         offset="0"
         id="stop3027" />
      <stop
         style="stop-opacity:1;stop-color:#000000"
         offset="1"
         id="stop3029" />
    </radialGradient>
    <clipPath
       clipPathUnits="userSpaceOnUse"
       id="clipPath3001">
      <path
         inkscape:connector-curvature="0"
         d="m 1392.543,1284.949 c 0,-6.859 -1.332,-13.722 -3.895,-20.062 -2.562,-6.34 -6.351,-12.153 -11.086,-17.008 -4.734,-4.852 -10.406,-8.738 -16.593,-11.363 -6.184,-2.625 -12.879,-3.993 -19.574,-3.993 -6.696,0 -13.387,1.368 -19.571,3.993 -6.187,2.625 -11.859,6.511 -16.594,11.363 -4.734,4.855 -8.527,10.668 -11.085,17.008 -2.563,6.34 -3.895,13.203 -3.895,20.062 0,6.863 1.332,13.723 3.895,20.063 2.558,6.34 6.351,12.156 11.085,17.008 4.735,4.855 10.407,8.738 16.594,11.367 6.184,2.625 12.875,3.988 19.571,3.988 6.695,0 13.39,-1.363 19.574,-3.988 6.187,-2.629 11.859,-6.512 16.593,-11.367 4.735,-4.852 8.524,-10.668 11.086,-17.008 2.563,-6.34 3.895,-13.2 3.895,-20.063 z"
         clip-rule="evenodd"
         id="path3003" />
    </clipPath>
    <radialGradient
       fx="171.2081"
       fy="196.85463"
       cx="171.2081"
       cy="196.85463"
       r="200"
       gradientUnits="userSpaceOnUse"
       gradientTransform="matrix(0.266069,-0.203622,-0.208299,-0.272181,1316.6979,1388.6336)"
       spreadMethod="pad"
       id="radialGradient3007">
      <stop
         style="stop-opacity:1;stop-color:#ffffff"
         offset="0"
         id="stop3009" />
      <stop
         style="stop-opacity:1;stop-color:#000000"
         offset="1"
         id="stop3011" />
    </radialGradient>
  </defs>
  <sodipodi:namedview
     id="base"
     pagecolor="#ffffff"
     bordercolor="#666666"
     borderopacity="1.0"
     inkscape:pageopacity="0.0"
     inkscape:pageshadow="2"
     inkscape:zoom="0.35"
     inkscape:cx="977.49511"
     inkscape:cy="471.81946"
     inkscape:document-units="px"
     inkscape:current-layer="layer1"
     showgrid="false"
     fit-margin-top="0"
     fit-margin-left="0"
     fit-margin-right="0"
     fit-margin-bottom="0"
     inkscape:window-width="1855"
     inkscape:window-height="1176"
     inkscape:window-x="65"
     inkscape:window-y="24"
     inkscape:window-maximized="1" />
  <metadata
     id="metadata7">
    <rdf:RDF>
      <cc:Work
         rdf:about="">
        <dc:format>image/svg+xml</dc:format>
        <dc:type
           rdf:resource="http://purl.org/dc/dcmitype/StillImage" />
        <dc:title />
      </cc:Work>
    </rdf:RDF>
  </metadata>
  <g
     inkscape:label="Layer 1"
     inkscape:groupmode="layer"
     id="layer1"
     transform="translate(599.73723,-1.20015)">
    <g
       transform="matrix(1.25,0,0,-1.25,-1810.3762,2137.8543)"
       id="g2997">
      <g
         clip-path="url(#clipPath3001)"
         id="g2999">
        <g
           id="g3005">
          <path
             inkscape:connector-curvature="0"
             id="path3013"
             style="fill:url(#radialGradient3007);fill-rule:evenodd;stroke:none"
             d="m 1392.543,1284.949 c 0,-6.859 -1.332,-13.722 -3.895,-20.062 -2.562,-6.34 -6.351,-12.153 -11.086,-17.008 -4.734,-4.852 -10.406,-8.738 -16.593,-11.363 -6.184,-2.625 -12.879,-3.993 -19.574,-3.993 -6.696,0 -13.387,1.368 -19.571,3.993 -6.187,2.625 -11.859,6.511 -16.594,11.363 -4.734,4.855 -8.527,10.668 -11.085,17.008 -2.563,6.34 -3.895,13.203 -3.895,20.062 0,6.863 1.332,13.723 3.895,20.063 2.558,6.34 6.351,12.156 11.085,17.008 4.735,4.855 10.407,8.738 16.594,11.367 6.184,2.625 12.875,3.988 19.571,3.988 6.695,0 13.39,-1.363 19.574,-3.988 6.187,-2.629 11.859,-6.512 16.593,-11.367 4.735,-4.852 8.524,-10.668 11.086,-17.008 2.563,-6.34 3.895,-13.2 3.895,-20.063 z" />
        </g>
      </g>
    </g>
    <g
       transform="matrix(1.25,0,0,-1.25,-1810.3762,2137.8543)"
       id="g3015">
      <g
         clip-path="url(#clipPath3019)"
         id="g3017">
        <g
           id="g3023">
          <path
             inkscape:connector-curvature="0"
             id="path3031"
             style="fill:url(#radialGradient3025);fill-rule:evenodd;stroke:none"
             d="m 1845.805,1284.949 c 0,-10.547 -2.047,-21.094 -5.985,-30.84 -3.941,-9.746 -9.765,-18.683 -17.047,-26.144 -7.277,-7.461 -15.996,-13.434 -25.503,-17.469 -9.512,-4.039 -19.797,-6.137 -30.09,-6.137 -10.293,0 -20.578,2.098 -30.09,6.137 -9.508,4.035 -18.227,10.008 -25.504,17.469 -7.281,7.461 -13.106,16.398 -17.047,26.144 -3.937,9.746 -5.984,20.293 -5.984,30.84 0,10.551 2.047,21.094 5.984,30.84 3.941,9.746 9.766,18.688 17.047,26.149 7.277,7.457 15.996,13.429 25.504,17.468 9.512,4.035 19.797,6.133 30.09,6.133 10.293,0 20.578,-2.098 30.09,-6.133 9.507,-4.039 18.226,-10.011 25.503,-17.468 7.282,-7.461 13.106,-16.403 17.047,-26.149 3.938,-9.746 5.985,-20.289 5.985,-30.84 z" />
        </g>
      </g>
    </g>
    <text
       style="font-size:15px"
       id="text3165"
       x="516.11639"
       y="1009.8353">
      <tspan
         id="tspan3167"
         y="1009.8353"
         x="516.11639"
         style="font-size:115.60174561px;font-variant:normal;font-weight:normal;writing-mode:lr-tb;fill:#000000;fill-opacity:1;fill-rule:nonzero;stroke:none;font-family:cmmi10;-inkscape-font-specification:Cmmi10">r</tspan>
    </text>
    <text
       style="font-size:15px"
       id="text3169"
       transform="matrix(0,-1,1,0,0,0)"
       x="-718.7738"
       y="-520.76904">
      <tspan
         id="tspan3171"
         y="-520.76904"
         x="-718.7738"
         style="font-size:115.60174561px;font-variant:normal;font-weight:normal;writing-mode:lr-tb;fill:#000000;fill-opacity:1;fill-rule:nonzero;stroke:none;font-family:cmmi10;-inkscape-font-specification:Cmmi10">V</tspan>
    </text>
    <text
       style="font-size:15px"
       id="text3173"
       transform="matrix(0,-1,1,0,0,0)"
       x="-651.37714"
       y="-491.27975">
      <tspan
         id="tspan3175"
         sodipodi:role="line"
         y="-491.27975"
         x="-651.37714 -592.95197 -552.49133 -507.58014 -485.24585 -444.78516 -377.37778 -332.46658 -310.13229"
         style="font-size:80.92121887px;font-variant:normal;font-weight:normal;writing-mode:lr-tb;fill:#000000;fill-opacity:1;fill-rule:nonzero;stroke:none;font-family:cmr10;-inkscape-font-specification:Cmr10">Coulombic</tspan>
    </text>
    <g
       transform="matrix(1.25,0,0,-1.25,-630.37616,2100.7114)"
       id="g3247">
      <g
         id="g3249"
         clip-path="url(#clipPath3251)">
        <g
           id="g3255"
           transform="translate(0,-0.339844)">
          <g
             id="g3257">
            <g
               id="g3259"
               clip-path="url(#clipPath3261)">
              <g
                 id="g3265">
                <g
                   id="g3267"
                   transform="translate(0,3460)">
                  <path
                     inkscape:connector-curvature="0"
                     d="m 161.309,-1782.051 0.711,-36.703 0.71,-33.426 2.137,-84.472 2.133,-66.621 2.133,-53.883 2.137,-44.485 2.132,-37.343 2.133,-31.797 2.137,-27.399 2.844,-31.136 2.847,-26.289 2.844,-22.489 2.844,-19.465 2.847,-17.003 2.844,-14.989 2.848,-13.304 3.555,-14.676 3.558,-12.871 3.559,-11.383 3.554,-10.137 3.559,-9.082 3.555,-8.187 4.269,-8.821 4.27,-7.886 4.265,-7.094 4.27,-6.414 4.269,-5.828 4.977,-6.164 4.98,-5.567 4.981,-5.058 5.691,-5.239 5.692,-4.738 6.402,-4.824 6.402,-4.356 7.114,-4.371 7.113,-3.949 7.824,-3.926 8.539,-3.851 9.246,-3.739 9.961,-3.605 10.672,-3.453 11.379,-3.281 12.094,-3.11 13.519,-3.09 14.938,-3.019 16.363,-2.91 17.781,-2.774 19.207,-2.625 21.344,-2.547 23.477,-2.437 26.32,-2.363 29.879,-2.305 33.434,-2.203 37.703,-2.11 42.683,-2.011 49.086,-1.938 56.199,-1.84 64.735,-1.742 41.972,-0.965"
                     style="fill:none;stroke:#000000;stroke-width:4;stroke-linecap:square;stroke-linejoin:round;stroke-miterlimit:10;stroke-opacity:1;stroke-dasharray:none"
                     id="path3269" />
                </g>
              </g>
            </g>
          </g>
        </g>
      </g>
    </g>
    <g
       transform="matrix(1.25,0,0,-1.25,-630.37616,2100.7114)"
       id="g3271">
      <path
         inkscape:connector-curvature="0"
         d="m 146.805,892.613 725.175,0"
         style="fill:none;stroke:#000000;stroke-width:4;stroke-linecap:square;stroke-linejoin:round;stroke-miterlimit:10;stroke-opacity:1;stroke-dasharray:none"
         id="path3273" />
      <path
         inkscape:connector-curvature="0"
         d="m 146.805,892.613 0,784.996"
         style="fill:none;stroke:#000000;stroke-width:4;stroke-linecap:square;stroke-linejoin:round;stroke-miterlimit:10;stroke-opacity:1;stroke-dasharray:none"
         id="path3275" />
    </g>
    <path
       inkscape:connector-curvature="0"
       id="path3383"
       style="fill:#000000;fill-opacity:1;fill-rule:nonzero;stroke:none"
       d="m -100.1611,315.14923 0.039,1.82125 0.1325,1.7875 0.21,1.7675 0.3075,1.72875 0.375,1.68875 0.46,1.655 0.5313,1.61125 0.6062,1.5775 0.6838,1.53875 0.7412,1.48375 0.8163,1.445 0.8737,1.40625 0.9325,1.32875 0.9863,1.29375 1.045,1.25 1.1225,1.18125 1.1387,1.11875 1.215,1.06375 1.255,1.00625 1.2938,0.9525 1.3287,0.87375 1.3863,0.815 1.4062,0.7425 1.465,0.66375 1.48,0.61125 1.5038,0.5275 1.5575,0.43875 1.5575,0.38125 1.5962,0.2825 1.5925,0.21 1.635,0.1325 1.6363,0.0387 c 15.4437,0 24.6975,-13.15 24.6975,-24.13125 0,-0.9475 0,-1.59125 -1.2163,-1.59125 -1.025,0 -1.025,0.54625 -1.1225,1.49875 -0.7762,13.545 -10.8837,21.29875 -21.2212,21.29875 -5.7563,0 -24.3163,-3.2125 -24.3163,-31.40625 0,-28.325 18.4663,-31.5375 24.2238,-31.5375 10.3325,0 18.77,8.6075 20.63,22.45625 0.21,1.29375 0.21,1.59625 1.5237,1.59625 1.4988,0 1.4988,-0.3025 1.4988,-2.28 l 0,-22.4175 c 0,-1.63625 0,-2.28 -1.025,-2.28 -0.3625,0 -0.7425,0 -1.5188,1.1175 l -4.7125,7.0125 c -3.515,-3.41875 -8.345,-8.13 -17.4412,-8.13 -17.69,0 -32.91,15.04375 -32.91,34.37 z" />
    <path
       inkscape:connector-curvature="0"
       id="path3385"
       style="fill:#000000;fill-opacity:1;fill-rule:nonzero;stroke:none"
       d="m 7.5101,327.24923 -0.04,-1.11875 -0.078,-1.1225 -0.1325,-1.10375 -0.19,-1.08375 -0.23,-1.06 -0.2825,-1.045 -0.3425,-1.03 -0.38,-1.00625 -0.415,-0.96625 -0.4587,-0.9525 -0.5138,-0.9275 -0.5512,-0.89375 -0.5863,-0.87375 -0.61,-0.835 -0.6637,-0.82 -0.7038,-0.7575 -0.7225,-0.7425 -0.7562,-0.7025 -0.8013,-0.66375 -0.815,-0.61125 -0.855,-0.585 -0.8737,-0.5325 -0.8938,-0.49875 -0.9325,-0.45375 -0.9475,-0.4 -0.9712,-0.3425 -0.9863,-0.3025 -1.0062,-0.24875 -1.025,-0.205 -1.045,-0.1375 -1.045,-0.0925 -1.0838,-0.0187 -0.079,2.07 c 4.1412,0 8.2075,2.09 10.6787,6.1575 2.4713,4.0675 2.4713,9.555 2.4713,13.14375 0,3.42375 0,8.51625 -2.09,12.67625 -2.07,4.2725 -6.2313,7.01125 -10.9813,7.01125 -4.0675,0 -8.2275,-1.99625 -10.7725,-6.3275 -2.3775,-4.18 -2.3775,-9.93625 -2.3775,-13.36 0,-3.68125 0,-8.79375 2.2613,-12.97375 2.5825,-4.33125 7.0112,-6.3275 10.81,-6.3275 l 0.079,-2.07 c -11.8175,0 -21.0162,10.2975 -21.0162,22.13375 0,12.21625 9.8637,21.29875 20.9375,21.29875 11.455,0 21.0162,-9.2725 21.0162,-21.29875 z" />
    <path
       inkscape:connector-curvature="0"
       id="path3387"
       style="fill:#000000;fill-opacity:1;fill-rule:nonzero;stroke:none"
       d="m 47.3489,340.01673 0,8.53125 13.6225,-1.045 0,-2.945 c -6.6113,0 -7.3925,-0.64875 -7.3925,-5.2825 l 0,-33.58875 -13.9263,1.025 0,2.94375 c 6.6513,0 7.3938,0.645 7.3938,5.28375 l 0,16.87 c 0,8.2075 -4.5413,14.64875 -11.4563,14.64875 -7.9237,0 -8.305,-4.44875 -8.305,-9.365 l 0,-31.40625 -13.9262,1.025 0,2.94375 c 7.3925,0 7.3925,0.26875 7.3925,8.70125 l 0,14.195 c 0,7.3875 0,15.99625 14.3612,15.99625 5.3213,0 9.4825,-2.6425 12.2363,-8.53125 z" />
    <path
       inkscape:connector-curvature="0"
       id="path3389"
       style="fill:#000000;fill-opacity:1;fill-rule:nonzero;stroke:none"
       d="m 79.7414,281.80423 -13.6238,1.045 0,2.945 c 6.6113,0 7.3925,0.64375 7.3925,5.3025 l 0,49.22375 c 0,4.2375 -1.045,4.2375 -7.3925,4.2375 l 0,2.945 c 3.1163,-0.0975 8.135,-0.3025 10.5088,-0.3025 2.3725,0 6.9912,0.205 10.5075,0.3025 l 0,-2.945 c -6.3675,0 -7.3925,0 -7.3925,-4.2375 l 0,-58.51625 z" />
    <path
       inkscape:connector-curvature="0"
       id="path3391"
       style="fill:#000000;fill-opacity:1;fill-rule:nonzero;stroke:none"
       d="m 133.7939,327.24923 -0.02,-1.11875 -0.092,-1.1225 -0.1363,-1.10375 -0.1712,-1.08375 -0.2438,-1.06 -0.2887,-1.045 -0.3225,-1.03 -0.38,-1.00625 -0.415,-0.96625 -0.4738,-0.9525 -0.5125,-0.9275 -0.5325,-0.89375 -0.5912,-0.87375 -0.625,-0.835 -0.6688,-0.82 -0.7025,-0.7575 -0.7187,-0.7425 -0.7613,-0.7025 -0.7962,-0.66375 -0.82,-0.61125 -0.855,-0.585 -0.8738,-0.5325 -0.8937,-0.49875 -0.9275,-0.45375 -0.9525,-0.4 -0.9663,-0.3425 -0.9912,-0.3025 -1.0063,-0.24875 -1.025,-0.205 -1.045,-0.1375 -1.045,-0.0925 -1.0637,-0.0187 -0.094,2.07 c 4.16,0 8.2225,2.09 10.6738,6.1575 2.4712,4.0675 2.4712,9.555 2.4712,13.14375 0,3.42375 0,8.51625 -2.07,12.67625 -2.09,4.2725 -6.2312,7.01125 -10.9812,7.01125 -4.0875,0 -8.2275,-1.99625 -10.7913,-6.3275 -2.3737,-4.18 -2.3737,-9.93625 -2.3737,-13.36 0,-3.68125 0,-8.79375 2.2612,-12.97375 2.5825,-4.33125 7.0063,-6.3275 10.81,-6.3275 l 0.094,-2.07 c -11.8175,0 -21.0313,10.2975 -21.0313,22.13375 0,12.21625 9.8588,21.29875 20.9375,21.29875 11.455,0 21.0113,-9.2725 21.0113,-21.29875 z" />
    <path
       inkscape:connector-curvature="0"
       id="path3393"
       style="fill:#000000;fill-opacity:1;fill-rule:nonzero;stroke:none"
       d="m 147.0364,314.93923 0,25.38125 c 0,4.2375 -1.0263,4.2375 -7.3925,4.2375 l 0,2.945 c 3.325,-0.0975 8.1337,-0.3025 10.6975,-0.3025 2.4712,0 7.3925,0.205 10.6012,0.3025 l 0,-2.945 c -6.3237,0 -7.3687,0 -7.3687,-4.2375 l 0,-17.4225 c 0,-9.85875 6.7037,-15.14125 12.7637,-15.14125 5.9675,0 7.0113,5.1125 7.0113,10.5075 l 0,22.05625 c 0,4.2375 -1.0438,4.2375 -7.3925,4.2375 l 0,2.945 c 3.3262,-0.0975 8.155,-0.3025 10.7187,-0.3025 2.4513,0 7.3525,0.205 10.58,0.3025 l 0,-2.945 c -6.3425,0 -7.3675,0 -7.3675,-4.2375 l 0,-17.4225 c 0,-9.85875 6.7238,-15.14125 12.7838,-15.14125 5.9662,0 7.0112,5.1125 7.0112,10.5075 l 0,22.05625 c 0,4.2375 -1.045,4.2375 -7.3925,4.2375 l 0,2.945 c 3.2863,-0.0975 8.135,-0.3025 10.6788,-0.3025 2.47,0 7.3925,0.205 10.6,0.3025 l 0,-2.945 c -4.9025,0 -7.275,0 -7.3675,-2.85125 l 0,-18.06625 c 0,-8.135 0,-11.07875 -2.93,-14.45875 -1.3475,-1.635 -4.4625,-3.495 -9.9563,-3.495 -7.9587,0 -12.1,5.65875 -13.7162,9.2525 -1.3275,-8.2275 -8.3388,-9.2525 -12.5775,-9.2525 -6.9138,0 -11.3575,4.0625 -14.0188,9.8975 l 0,-9.8975 -13.3587,1.025 0,2.94375 c 6.63,0 7.3925,0.645 7.3925,5.28375 z" />
    <path
       inkscape:connector-curvature="0"
       id="path3395"
       style="fill:#000000;fill-opacity:1;fill-rule:nonzero;stroke:none"
       d="m 229.0376,311.82423 0,-30.02 -13.6225,1.045 0,2.945 c 6.6113,0 7.3875,0.64375 7.3875,5.3025 l 0,56.40625 2.3775,0 c 0.074,-0.0975 0.835,-1.42625 3.3788,-5.87 1.4262,2.18375 5.3962,6.915 12.4075,6.915 l -0.38,-2.09 c -4.2538,0 -7.6563,-2.28 -9.9175,-5.77625 -1.3288,-1.9975 -1.3288,-2.26125 -1.3288,-3.95 l 0,-19.5125 c 0,-1.80625 0,-1.89875 1.0263,-3.4025 3.6862,-5.3175 8.9112,-6.06 11.1712,-6.06 4.2725,0 7.6963,2.47 9.9363,6.06 2.4712,3.87625 2.755,9.2525 2.755,13.14875 0,3.49625 -0.1913,9.175 -2.925,13.4525 -1.9975,2.925 -5.5863,6.04 -10.7175,6.04 l 0.38,2.09 c 11.285,0 21.1087,-9.2725 21.1087,-21.49 0,-12.02625 -9.2725,-21.37125 -20.0637,-21.37125 -7.3725,0 -11.455,4.4425 -12.9738,6.1375 z" />
    <path
       inkscape:connector-curvature="0"
       id="path3397"
       style="fill:#000000;fill-opacity:1;fill-rule:nonzero;stroke:none"
       d="m 282.1776,305.68673 -13.2425,1.025 0,2.94375 c 6.1325,0 7.0075,0.57125 7.0075,5.18625 l 0,25.47875 c 0,4.2375 -1.045,4.2375 -7.3875,4.2375 l 0,2.945 c 3.0175,-0.0975 8.1288,-0.3025 10.41,-0.3025 3.325,0 6.6113,0.205 9.8575,0.3025 l 0,-2.945 c -6.2687,0 -6.645,-0.47875 -6.645,-4.14 l 0,-34.73125 z" />
    <path
       inkscape:connector-curvature="0"
       id="path3399"
       style="fill:#000000;fill-opacity:1;fill-rule:nonzero;stroke:none"
       d="m 282.5539,289.19173 0,-0.26375 -0.015,-0.2825 -0.039,-0.26875 -0.039,-0.26375 -0.079,-0.24875 -0.054,-0.24875 -0.097,-0.245 -0.093,-0.22875 -0.097,-0.225 -0.1125,-0.23 -0.1325,-0.21 -0.1313,-0.19 -0.1375,-0.19 -0.1512,-0.19125 -0.17,-0.19 -0.1713,-0.15125 -0.1712,-0.17125 -0.19,-0.15125 -0.3813,-0.26375 -0.205,-0.13625 -0.21,-0.1125 -0.21,-0.0925 -0.2287,-0.0975 -0.225,-0.0738 -0.23,-0.0775 -0.2288,-0.0587 -0.245,-0.0538 -0.2287,-0.04 -0.2488,-0.0188 -0.245,-0.02 -0.2487,-0.0187 c -2.9438,0 -5.015,2.5675 -5.015,5.01375 0,2.56875 2.0712,5.02 5.015,5.02 2.6412,0 5.015,-1.9775 5.015,-5.02 z" />
    <path
       inkscape:connector-curvature="0"
       id="path3401"
       style="fill:#000000;fill-opacity:1;fill-rule:nonzero;stroke:none"
       d="m 302.7151,326.86798 0,-0.7225 0.019,-0.68375 0.035,-0.68375 0.039,-0.66375 0.039,-0.645 0.059,-0.64875 0.074,-0.60625 0.077,-0.61 0.093,-0.58625 0.097,-0.57125 0.225,-1.10375 0.2487,-1.045 0.2838,-0.96625 0.3225,-0.9325 0.3462,-0.87375 0.3763,-0.81625 0.4,-0.76125 0.42,-0.7175 0.435,-0.66875 0.4587,-0.60625 0.4738,-0.57125 0.4925,-0.5325 0.4937,-0.4925 0.5125,-0.435 0.5125,-0.4 0.5325,-0.36125 0.5325,-0.3025 0.5513,-0.28875 0.5325,-0.24375 0.5325,-0.23 0.5325,-0.17 0.5312,-0.15125 0.5325,-0.1175 0.5125,-0.0925 0.4938,-0.0587 0.4925,-0.035 0.4737,-0.0187 c 0.84,0 6.8025,0.0925 10.1275,3.515 -3.8725,0.28375 -4.4437,3.115 -4.4437,4.35125 0,2.465 1.69,4.365 4.37,4.365 2.4325,0 4.3312,-1.63125 4.3312,-4.44375 0,-6.44 -7.1825,-10.12625 -14.4975,-10.12625 -11.8162,0 -20.5362,10.205 -20.5362,21.9425 0,12.105 9.385,21.49 20.3662,21.49 12.67,0 15.7125,-11.3825 15.7125,-12.295 0,-0.9475 -0.9525,-0.9475 -1.235,-0.9475 -0.855,0 -1.0262,0.36125 -1.2362,0.9475 -2.7338,8.77875 -8.8713,9.92125 -12.3875,9.92125 -5.0138,0 -13.3538,-4.0675 -13.3538,-19.30625 z" />
  </g>
</svg>
