<?xml version="1.0" encoding="UTF-8" standalone="no"?>
<!-- Created with Inkscape (http://www.inkscape.org/) -->

<svg
   xmlns:dc="http://purl.org/dc/elements/1.1/"
   xmlns:cc="http://creativecommons.org/ns#"
   xmlns:rdf="http://www.w3.org/1999/02/22-rdf-syntax-ns#"
   xmlns:svg="http://www.w3.org/2000/svg"
   xmlns="http://www.w3.org/2000/svg"
   xmlns:sodipodi="http://sodipodi.sourceforge.net/DTD/sodipodi-0.dtd"
   xmlns:inkscape="http://www.inkscape.org/namespaces/inkscape"
   width="1496.4419"
   height="986.23999"
   id="svg2"
   version="1.1"
   inkscape:version="0.48.4 r9939"
   sodipodi:docname="lj.svg">
  <defs
     id="defs4">
    <clipPath
       clipPathUnits="userSpaceOnUse"
       id="clipPath3329">
      <path
         inkscape:connector-curvature="0"
         d="m 1816.125,395.48 c 0,-6.859 -1.988,-13.718 -5.816,-20.062 -3.829,-6.34 -9.493,-12.152 -16.567,-17.008 -7.074,-4.851 -15.551,-8.738 -24.793,-11.363 -9.242,-2.625 -19.242,-3.988 -29.246,-3.988 -10.004,0 -20.004,1.363 -29.246,3.988 -9.242,2.625 -17.723,6.512 -24.793,11.363 -7.074,4.856 -12.738,10.668 -16.566,17.008 -3.832,6.344 -5.821,13.203 -5.821,20.062 0,6.864 1.989,13.723 5.821,20.063 3.828,6.34 9.492,12.156 16.566,17.008 7.07,4.855 15.551,8.738 24.793,11.367 9.242,2.625 19.242,3.988 29.246,3.988 10.004,0 20.004,-1.363 29.246,-3.988 9.242,-2.629 17.719,-6.512 24.793,-11.367 7.074,-4.852 12.738,-10.668 16.567,-17.008 3.828,-6.34 5.816,-13.199 5.816,-20.063 z"
         clip-rule="evenodd"
         id="path3331" />
    </clipPath>
    <radialGradient
       fx="171.2081"
       fy="196.85463"
       cx="171.2081"
       cy="196.85463"
       r="200"
       gradientUnits="userSpaceOnUse"
       gradientTransform="matrix(0.397563,-0.203622,-0.311243,-0.272181,1702.7978,499.16536)"
       spreadMethod="pad"
       id="radialGradient3335">
      <stop
         style="stop-opacity:1;stop-color:#ffffff"
         offset="0"
         id="stop3337" />
      <stop
         style="stop-opacity:1;stop-color:#000000"
         offset="1"
         id="stop3339" />
    </radialGradient>
    <clipPath
       clipPathUnits="userSpaceOnUse"
       id="clipPath3311">
      <path
         inkscape:connector-curvature="0"
         d="m 1448.711,395.48 c 0,-6.859 -1.988,-13.718 -5.816,-20.062 -3.829,-6.34 -9.493,-12.152 -16.567,-17.008 -7.074,-4.851 -15.551,-8.738 -24.793,-11.363 -9.242,-2.625 -19.242,-3.988 -29.246,-3.988 -10.004,0 -20.004,1.363 -29.246,3.988 -9.242,2.625 -17.723,6.512 -24.793,11.363 -7.074,4.856 -12.738,10.668 -16.566,17.008 -3.832,6.344 -5.821,13.203 -5.821,20.062 0,6.864 1.989,13.723 5.821,20.063 3.828,6.34 9.492,12.156 16.566,17.008 7.07,4.855 15.551,8.738 24.793,11.367 9.242,2.625 19.242,3.988 29.246,3.988 10.004,0 20.004,-1.363 29.246,-3.988 9.242,-2.629 17.719,-6.512 24.793,-11.367 7.074,-4.852 12.738,-10.668 16.567,-17.008 3.828,-6.34 5.816,-13.199 5.816,-20.063 z"
         clip-rule="evenodd"
         id="path3313" />
    </clipPath>
    <radialGradient
       fx="171.2081"
       fy="196.85463"
       cx="171.2081"
       cy="196.85463"
       r="200"
       gradientUnits="userSpaceOnUse"
       gradientTransform="matrix(0.397563,-0.203622,-0.311243,-0.272181,1335.3838,499.16536)"
       spreadMethod="pad"
       id="radialGradient3317">
      <stop
         style="stop-opacity:1;stop-color:#ffffff"
         offset="0"
         id="stop3319" />
      <stop
         style="stop-opacity:1;stop-color:#000000"
         offset="1"
         id="stop3321" />
    </radialGradient>
    <clipPath
       clipPathUnits="userSpaceOnUse"
       id="clipPath3281">
      <path
         inkscape:connector-curvature="0"
         d="m 146.805,786.992 725.176,0 0,-784.992 -725.176,0 0,784.992 z"
         id="path3283" />
    </clipPath>
    <clipPath
       clipPathUnits="userSpaceOnUse"
       id="clipPath3291">
      <path
         inkscape:connector-curvature="0"
         d="m 246,65 629,0 0,3395 -629,0 0,-3395 z"
         id="path3293" />
    </clipPath>
  </defs>
  <sodipodi:namedview
     id="base"
     pagecolor="#ffffff"
     bordercolor="#666666"
     borderopacity="1.0"
     inkscape:pageopacity="0.0"
     inkscape:pageshadow="2"
     inkscape:zoom="0.35"
     inkscape:cx="1055.7924"
     inkscape:cy="587.40573"
     inkscape:document-units="px"
     inkscape:current-layer="layer1"
     showgrid="false"
     fit-margin-top="0"
     fit-margin-left="0"
     fit-margin-right="0"
     fit-margin-bottom="0"
     inkscape:window-width="1855"
     inkscape:window-height="1176"
     inkscape:window-x="65"
     inkscape:window-y="24"
     inkscape:window-maximized="1" />
  <metadata
     id="metadata7">
    <rdf:RDF>
      <cc:Work
         rdf:about="">
        <dc:format>image/svg+xml</dc:format>
        <dc:type
           rdf:resource="http://purl.org/dc/dcmitype/StillImage" />
        <dc:title></dc:title>
      </cc:Work>
    </rdf:RDF>
  </metadata>
  <g
     inkscape:label="Layer 1"
     inkscape:groupmode="layer"
     id="layer1"
     transform="translate(680.7924,-133.5279)">
    <text
       style="font-size:15px"
       id="text3177"
       x="458.04047"
       y="651.53949">
      <tspan
         id="tspan3179"
         y="651.53949"
         x="458.04047"
         style="font-size:115.60174561px;font-variant:normal;font-weight:normal;writing-mode:lr-tb;fill:#000000;fill-opacity:1;fill-rule:nonzero;stroke:none;font-family:cmmi10;-inkscape-font-specification:Cmmi10">r</tspan>
    </text>
    <text
       style="font-size:15px"
       id="text3181"
       transform="matrix(0,-1,1,0,0,0)"
       x="-765.57483"
       y="-601.82422">
      <tspan
         id="tspan3183"
         y="-601.82422"
         x="-765.57483"
         style="font-size:115.60174561px;font-variant:normal;font-weight:normal;writing-mode:lr-tb;fill:#000000;fill-opacity:1;fill-rule:nonzero;stroke:none;font-family:cmmi10;-inkscape-font-specification:Cmmi10">V</tspan>
    </text>
    <text
       style="font-size:15px"
       id="text3185"
       transform="matrix(0,-1,1,0,0,0)"
       x="-698.17816"
       y="-572.33496">
      <tspan
         id="tspan3187"
         sodipodi:role="line"
         y="-572.33496"
         x="-698.17816 -637.48724 -575.74438"
         style="font-size:80.92121887px;font-variant:normal;font-weight:normal;writing-mode:lr-tb;fill:#000000;fill-opacity:1;fill-rule:nonzero;stroke:none;font-family:cmr10;-inkscape-font-specification:Cmr10">VDW</tspan>
    </text>
    <g
       transform="matrix(1.25,0,0,-1.25,-680.79241,1119.7679)"
       id="g3277">
      <g
         id="g3279"
         clip-path="url(#clipPath3281)">
        <g
           id="g3285"
           transform="translate(0,-0.339844)">
          <g
             id="g3287">
            <g
               id="g3289"
               clip-path="url(#clipPath3291)">
              <g
                 id="g3295">
                <g
                   id="g3297"
                   transform="translate(0,3460)">
                  <path
                     inkscape:connector-curvature="0"
                     d="m 248.461,45.141 2.906,-305.567 3.348,-319.933 3.347,-289.172 3.348,-261.34 3.352,-236.164 3.347,-213.363 3.348,-192.727 3.348,-174.027 3.351,-157.09 3.348,-141.742 3.348,-127.825 3.347,-115.211 3.352,-103.769 3.347,-93.395 3.348,-83.984 3.352,-75.441 3.347,-67.7 3.348,-60.668 3.348,-54.293 3.351,-48.507 3.348,-43.254 3.348,-38.496 3.347,-34.172 3.352,-30.254 3.347,-26.703 3.348,-23.481 3.348,-20.562 3.351,-17.918 3.348,-15.524 3.348,-13.351 3.347,-11.395 3.352,-9.617 2.23,-5.516 2.235,-4.847 2.23,-4.227 2.234,-3.644 2.231,-3.106 2.234,-2.601 2.231,-2.133 2.234,-1.692 2.231,-1.285 2.234,-0.906 2.23,-0.551 2.235,-0.226 2.23,0.082 2.235,0.363 3.347,1.031 3.348,1.551 3.348,2.023 3.351,2.43 4.465,3.805 4.465,4.348 5.578,6.062 5.582,6.625 6.699,8.5 8.93,11.973 14.508,20.222 20.094,27.946 12.277,16.422 10.047,12.882 10.047,12.309 10.043,11.695 8.929,9.875 8.93,9.375 8.93,8.887 8.929,8.402 8.93,7.942 8.93,7.488 8.929,7.059 10.047,7.453 10.047,6.961 10.047,6.496 10.043,6.062 10.047,5.657 11.164,5.839 11.16,5.407 11.164,5 12.277,5.074 12.278,4.664 12.277,4.285 13.395,4.281 13.394,3.907 14.512,3.855 15.629,3.754 15.625,3.383 16.742,3.261 17.859,3.11 18.977,2.933 20.094,2.747 22.324,2.671 7.812,0.856"
                     style="fill:none;stroke:#000000;stroke-width:4;stroke-linecap:square;stroke-linejoin:round;stroke-miterlimit:10;stroke-opacity:1;stroke-dasharray:none"
                     id="path3299" />
                </g>
              </g>
            </g>
          </g>
        </g>
      </g>
    </g>
    <path
       inkscape:connector-curvature="0"
       id="path3303"
       style="fill:none;stroke:#000000;stroke-width:5;stroke-linecap:square;stroke-linejoin:round;stroke-miterlimit:10;stroke-opacity:1;stroke-dasharray:none"
       d="m -497.28615,626.6479 906.46874,0" />
    <path
       inkscape:connector-curvature="0"
       id="path3305"
       style="fill:none;stroke:#000000;stroke-width:5;stroke-linecap:square;stroke-linejoin:round;stroke-miterlimit:10;stroke-opacity:1;stroke-dasharray:none"
       d="m -497.28615,1117.2679 0,-981.24" />
    <g
       transform="matrix(1.25,0,0,-1.25,-1454.5067,939.7679)"
       id="g3307">
      <g
         clip-path="url(#clipPath3311)"
         id="g3309">
        <g
           id="g3315">
          <path
             inkscape:connector-curvature="0"
             id="path3323"
             style="fill:url(#radialGradient3317);fill-rule:evenodd;stroke:none"
             d="m 1448.711,395.48 c 0,-6.859 -1.988,-13.718 -5.816,-20.062 -3.829,-6.34 -9.493,-12.152 -16.567,-17.008 -7.074,-4.851 -15.551,-8.738 -24.793,-11.363 -9.242,-2.625 -19.242,-3.988 -29.246,-3.988 -10.004,0 -20.004,1.363 -29.246,3.988 -9.242,2.625 -17.723,6.512 -24.793,11.363 -7.074,4.856 -12.738,10.668 -16.566,17.008 -3.832,6.344 -5.821,13.203 -5.821,20.062 0,6.864 1.989,13.723 5.821,20.063 3.828,6.34 9.492,12.156 16.566,17.008 7.07,4.855 15.551,8.738 24.793,11.367 9.242,2.625 19.242,3.988 29.246,3.988 10.004,0 20.004,-1.363 29.246,-3.988 9.242,-2.629 17.719,-6.512 24.793,-11.367 7.074,-4.852 12.738,-10.668 16.567,-17.008 3.828,-6.34 5.816,-13.199 5.816,-20.063 z" />
        </g>
      </g>
    </g>
    <g
       transform="matrix(1.25,0,0,-1.25,-1454.5067,939.7679)"
       id="g3325">
      <g
         clip-path="url(#clipPath3329)"
         id="g3327">
        <g
           id="g3333">
          <path
             inkscape:connector-curvature="0"
             id="path3341"
             style="fill:url(#radialGradient3335);fill-rule:evenodd;stroke:none"
             d="m 1816.125,395.48 c 0,-6.859 -1.988,-13.718 -5.816,-20.062 -3.829,-6.34 -9.493,-12.152 -16.567,-17.008 -7.074,-4.851 -15.551,-8.738 -24.793,-11.363 -9.242,-2.625 -19.242,-3.988 -29.246,-3.988 -10.004,0 -20.004,1.363 -29.246,3.988 -9.242,2.625 -17.723,6.512 -24.793,11.363 -7.074,4.856 -12.738,10.668 -16.566,17.008 -3.832,6.344 -5.821,13.203 -5.821,20.062 0,6.864 1.989,13.723 5.821,20.063 3.828,6.34 9.492,12.156 16.566,17.008 7.07,4.855 15.551,8.738 24.793,11.367 9.242,2.625 19.242,3.988 29.246,3.988 10.004,0 20.004,-1.363 29.246,-3.988 9.242,-2.629 17.719,-6.512 24.793,-11.367 7.074,-4.852 12.738,-10.668 16.567,-17.008 3.828,-6.34 5.816,-13.199 5.816,-20.063 z" />
        </g>
      </g>
    </g>
    <path
       inkscape:connector-curvature="0"
       id="path3403"
       style="fill:#000000;fill-opacity:1;fill-rule:nonzero;stroke:none"
       d="m 217.7396,226.29665 0.077,-0.205 0.094,-0.23 0.098,-0.23 0.092,-0.22375 0.1175,-0.25 0.1125,-0.24875 0.1113,-0.24375 0.1375,-0.26875 0.1512,-0.24375 0.1513,-0.26875 0.1712,-0.26375 0.17,-0.26875 0.1913,-0.24375 0.21,-0.26875 0.2237,-0.24375 0.23,-0.25 0.2488,-0.22875 0.2637,-0.24375 0.2838,-0.21 0.3075,-0.23 0.3225,-0.21 0.3412,-0.185 0.3613,-0.17125 0.3812,-0.17125 0.395,-0.15625 0.42,-0.13125 0.4538,-0.1325 0.4737,-0.0975 0.4988,-0.0925 0.2437,-0.02 0.2688,-0.0388 0.2637,-0.02 0.2875,-0.0138 0.2838,-0.02 0.28251,0 0,-2.94375 c -2.18251,0.185 -4.91631,0.26375 -7.08501,0.26375 -2.2988,0 -6.65,-0.17125 -8.2663,-0.26375 l 0,2.94375 c 3.5163,0.0925 4.5413,2.26125 4.5413,4.0625 0,0.84 -0.1713,1.21625 -0.5513,2.26125 l -9.6487,24.13 -10.6013,-26.39125 c -0.5712,-1.25 -0.5712,-1.42125 -0.5712,-1.63125 0,-2.43125 3.6875,-2.43125 5.3762,-2.43125 l 0,-2.94375 c -2.8125,0.0925 -8.13,0.26375 -10.2975,0.26375 -2.5437,0 -6.3425,-0.0788 -9.175,-0.26375 l 0,2.94375 c 5.9475,0 6.3275,0.56625 7.5775,3.49625 l 13.6238,33.56875 c 0.5712,1.34875 0.7425,1.82625 1.9975,1.82625 1.215,0 1.5962,-0.87375 1.9725,-1.82625 l 12.3875,-30.74125 z" />
    <path
       inkscape:connector-curvature="0"
       id="path3405"
       style="fill:#000000;fill-opacity:1;fill-rule:nonzero;stroke:none"
       d="m 254.58081,250.63665 0.057,0.36125 0.035,0.3425 0.077,0.36125 0.079,0.34125 0.092,0.36125 0.1125,0.3425 0.1175,0.34125 0.2637,0.68375 0.1513,0.3225 0.17,0.34125 0.3812,0.60625 0.19,0.3075 0.23,0.3025 0.225,0.26375 0.2288,0.26875 0.2487,0.26375 0.2638,0.24875 0.2887,0.23 0.2825,0.22375 0.2838,0.19125 0.3225,0.19 0.3262,0.17125 0.3225,0.15125 0.3425,0.13625 0.3613,0.1125 0.3612,0.0925 0.3763,0.0787 0.4,0.0588 0.4,0.0337 0.4012,0.02 c 1.9525,0 7.7488,-1.34875 7.7488,-9.005 l 0,-5.2825 -2.3738,0 0,5.2825 c 0,5.48875 -2.3387,6.06 -3.4225,6.06 -3.115,0 -3.4962,-4.23875 -3.4962,-4.71125 l 0,-18.94125 c 0,-3.98875 0,-7.65625 -3.3788,-11.17125 -3.7062,-3.6675 -8.4375,-5.18625 -12.9787,-5.18625 -7.7688,0 -14.3063,4.42375 -14.3063,10.67375 0,2.8325 1.9,4.46875 4.37,4.46875 2.6413,0 4.3513,-1.9 4.3513,-4.37125 0,-1.1225 -0.4738,-4.2375 -4.825,-4.37 2.5437,-3.28625 7.1825,-4.33 10.2,-4.33 4.6787,0 10.035,3.68625 10.035,12.11875 l 0,14.95625 c 0,9.00375 -6.7825,12.19625 -11.06,12.19625 -4.6338,0 -8.53,-3.325 -8.53,-8.03625 0,-5.19125 3.97,-13.07125 19.59,-13.62375 l 0,-1.99625 c -4.81,0.26875 -11.4213,0.57125 -17.3838,3.4225 -7.1087,3.2075 -9.4825,8.13 -9.4825,12.29 0,7.65625 9.175,10.03375 15.1425,10.03375 6.2688,0 10.6,-3.78375 12.4075,-8.2275 z" />
    <path
       inkscape:connector-curvature="0"
       id="path3407"
       style="fill:#000000;fill-opacity:1;fill-rule:nonzero;stroke:none"
       d="m 280.89331,225.25165 0,25.385 c 0,4.23375 -1.045,4.23375 -7.3925,4.23375 l 0,2.94875 c 3.325,-0.0975 8.135,-0.3075 10.6788,-0.3075 2.4712,0 7.3925,0.21 10.6012,0.3075 l 0,-2.94875 c -6.3087,0 -7.3537,0 -7.3537,-4.23375 l 0,-17.42125 c 0,-9.86375 6.7087,-15.14125 12.7687,-15.14125 5.9663,0 6.9913,5.10625 6.9913,10.5025 l 0,22.06 c 0,4.23375 -1.025,4.23375 -7.3925,4.23375 l 0,2.94875 c 3.3262,-0.0975 8.1737,-0.3075 10.7187,-0.3075 2.47,0 7.3725,0.21 10.6,0.3075 l 0,-2.94875 c -4.9212,0 -7.295,0 -7.3875,-2.84625 l 0,-18.07125 c 0,-8.13 0,-11.075 -2.93,-14.45875 -1.3087,-1.63 -4.4625,-3.49625 -9.9162,-3.49625 -6.9338,0 -11.3775,4.0675 -14.0188,9.9025 l 0,-9.9025 -13.36,1.03125 0,2.94375 c 6.6113,0 7.3925,0.645 7.3925,5.27875 z" />
    <path
       inkscape:connector-curvature="0"
       id="path3409"
       style="fill:#000000;fill-opacity:1;fill-rule:nonzero;stroke:none"
       d="m 390.57581,252.62915 0,6.235 13.8875,-1.045 0,-2.94875 c -6.6112,0 -7.3537,-0.645 -7.3537,-5.27875 l 0,-57.47 -13.6225,1.045 0,2.94375 c 6.6112,0 7.3525,0.645 7.3525,5.2975 l 0,20.425 c -2.7338,-3.38375 -6.8013,-5.835 -11.9288,-5.835 l 0.3763,2.07625 c 3.325,0 7.315,1.42 10.2437,5.65875 1.045,1.61625 1.045,1.82625 1.045,3.515 l 0,19.42 c 0,1.68875 0,1.89875 -1.045,3.49 -2.8512,4.54125 -7.1287,6.61625 -11.1912,6.61625 -4.2375,0 -7.6563,-2.45 -9.9163,-6.04375 -2.4512,-3.8925 -2.7537,-9.2925 -2.7537,-13.165 0,-3.49625 0.185,-9.19375 2.9437,-13.4325 1.9925,-2.94375 5.5863,-6.05875 10.6738,-6.05875 l -0.3763,-2.07625 c -11.1525,0 -21.1075,9.25375 -21.1075,21.45125 0,12.02625 9.2863,21.415 20.0625,21.415 6.06,0 10.3325,-3.2125 12.71,-6.235 z" />
    <path
       inkscape:connector-curvature="0"
       id="path3411"
       style="fill:#000000;fill-opacity:1;fill-rule:nonzero;stroke:none"
       d="m 417.76331,235.94915 0.094,-1.99625 c 0.5712,-14.0975 8.51,-16.45 11.7625,-16.45 9.7262,0 10.6737,12.7675 10.6737,16.45 l -22.4362,0 -0.094,1.99625 26.4263,0 c 2.07,0 2.3387,0 2.3387,-1.99625 0,-9.34625 -5.0925,-18.52125 -16.9087,-18.52125 -10.9813,0 -19.7225,9.72625 -19.7225,21.5825 0,12.67125 9.9562,21.85 20.84,21.85 11.5537,0 15.7912,-10.5075 15.7912,-12.295 0,-0.94625 -0.7425,-1.15625 -1.2162,-1.15625 -0.8588,0 -1.03,0.56625 -1.235,1.3275 -3.305,9.74625 -11.8213,9.74625 -12.7688,9.74625 -4.75,0 -8.53,-2.8325 -10.6975,-6.32875 -2.8475,-4.535 -2.8475,-10.81 -2.8475,-14.20875 z" />
    <path
       inkscape:connector-curvature="0"
       id="path3413"
       style="fill:#000000;fill-opacity:1;fill-rule:nonzero;stroke:none"
       d="m 464.99581,226.37415 0,-10.37625 -13.15,1.03125 0,2.94375 c 6.6313,0 7.3925,0.645 7.3925,5.27875 l 0,25.385 c 0,4.23375 -1.045,4.23375 -7.3925,4.23375 l 0,2.94875 c 3.7063,-0.0975 8.13,-0.3075 10.81,-0.3075 3.76,0 8.2275,0 12.0275,0.3075 l 0,-2.94875 -1.9975,0 c -7.0075,0 -7.2175,-1.025 -7.2175,-4.44375 l 0,-14.57 c 0,-9.35 3.99,-17.7825 11.1925,-17.7825 0.6638,0 0.835,0 1.045,0.0925 -0.3087,0.0775 -2.2075,1.215 -2.2075,3.66625 0,2.68125 1.9975,4.0675 4.1063,4.0675 1.69,0 4.0625,-1.1225 4.0625,-4.145 0,-3.0375 -2.9438,-5.7575 -7.0063,-5.7575 -6.92,0 -10.3175,6.30875 -11.665,10.37625 z" />
    <path
       inkscape:connector-curvature="0"
       id="path3415"
       style="fill:#000000;fill-opacity:1;fill-rule:nonzero;stroke:none"
       d="m 603.85711,202.4529 0.1712,-0.4925 0.1713,-0.47375 0.21,-0.44 0.19,-0.415 0.225,-0.4 0.2287,-0.36125 0.245,-0.36125 0.2488,-0.3225 0.2487,-0.3025 0.2838,-0.3075 0.2637,-0.26375 0.2875,-0.24875 0.3025,-0.225 0.3038,-0.21 0.3075,-0.19 0.3025,-0.19125 0.6437,-0.3025 0.3425,-0.13125 0.3225,-0.1375 0.3413,-0.0925 0.3425,-0.0975 0.3412,-0.0738 0.3413,-0.0775 0.3612,-0.0538 0.3425,-0.0588 0.3613,-0.0387 0.3412,-0.0387 0.7038,-0.035 0.6837,0 0,-2.94375 c -2.8075,0.205 -5.7525,0.3025 -8.6037,0.3025 -2.7338,0 -8.7788,-0.21 -11.25,-0.3025 l 0,2.94375 c 6.3287,0.0737 8.2275,3.18875 8.2275,5.015 0,0.55125 -0.2638,1.3275 -0.4738,1.89875 l -14.1937,43.71625 -15.1425,-46.3575 c -0.1113,-0.4 -0.3025,-0.9475 -0.3025,-1.425 0,-2.8475 5.5075,-2.8475 7.9587,-2.8475 l 0,-2.94375 c -3.3975,0.3025 -9.8575,0.3025 -13.4512,0.3025 -3.5888,0 -7.6563,-0.21 -11.5288,-0.3025 l 0,2.94375 c 5.395,0 7.3875,0 8.5113,3.39875 l 2.07,6.63125 -13.15,40.6 -15.215,-46.5675 c -0.098,-0.26375 -0.21,-0.9475 -0.21,-1.215 0,-2.8475 5.4887,-2.8475 7.94,-2.8475 l 0,-2.94375 c -3.3988,0.3025 -9.8188,0.3025 -13.4325,0.3025 -3.5888,0 -7.6763,-0.21 -11.5475,-0.3025 l 0,2.94375 c 7.1237,0 7.485,0.47375 8.6225,3.97 l 18.9262,58.0425 c 0.2825,0.815 0.5663,1.7675 1.8013,1.7675 1.3137,0 1.5237,-0.65 1.9,-1.9 l 15.62,-48.05125 15.7125,48.18375 c 0.2837,0.815 0.5475,1.7675 1.8012,1.7675 1.3138,0 1.5238,-0.65 1.8663,-1.9 l 18.085,-55.5375 z" />
    <path
       inkscape:connector-curvature="0"
       id="path3417"
       style="fill:#000000;fill-opacity:1;fill-rule:nonzero;stroke:none"
       d="m 638.72081,250.63665 0.034,0.36125 0.059,0.3425 0.079,0.36125 0.073,0.34125 0.097,0.36125 0.094,0.3425 0.1313,0.34125 0.1175,0.3425 0.1512,0.34125 0.1513,0.3225 0.1712,0.34125 0.1713,0.30375 0.19,0.3025 0.21,0.3075 0.21,0.3025 0.2237,0.26375 0.25,0.26875 0.2438,0.26375 0.2687,0.24875 0.2638,0.23 0.2875,0.22375 0.6062,0.38125 0.3213,0.17125 0.3425,0.15125 0.3462,0.13625 0.3563,0.1125 0.3612,0.0925 0.3813,0.0787 0.3812,0.0588 0.4,0.0337 0.415,0.02 c 1.9588,0 7.7538,-1.34875 7.7538,-9.005 l 0,-5.2825 -2.3775,0 0,5.2825 c 0,5.48875 -2.3538,6.06 -3.4175,6.06 -3.1163,0 -3.4963,-4.23875 -3.4963,-4.71125 l 0,-18.94125 c 0,-3.98875 0,-7.65625 -3.3787,-11.17125 -3.7263,-3.6675 -8.4375,-5.18625 -12.9788,-5.18625 -7.7687,0 -14.3075,4.42375 -14.3075,10.67375 0,2.8325 1.9,4.46875 4.3513,4.46875 2.6612,0 4.37,-1.9 4.37,-4.37125 0,-1.1225 -0.4738,-4.2375 -4.8438,-4.37 2.5638,-3.28625 7.2025,-4.33 10.22,-4.33 4.6525,0 10.0338,3.68625 10.0338,12.11875 l 0,14.95625 c 0,9.00375 -6.8013,12.19625 -11.0788,12.19625 -4.615,0 -8.5112,-3.325 -8.5112,-8.03625 0,-5.19125 3.97,-13.07125 19.59,-13.62375 l 0,-1.99625 c -4.8088,0.26875 -11.4213,0.57125 -17.4025,3.4225 -7.09,3.2075 -9.4625,8.13 -9.4625,12.29 0,7.65625 9.175,10.03375 15.1412,10.03375 6.27,0 10.6013,-3.78375 12.4075,-8.2275 z" />
    <path
       inkscape:connector-curvature="0"
       id="path3419"
       style="fill:#000000;fill-opacity:1;fill-rule:nonzero;stroke:none"
       d="m 686.14331,250.63665 0.034,0.36125 0.059,0.3425 0.059,0.36125 0.092,0.34125 0.098,0.36125 0.092,0.3425 0.1125,0.34125 0.1362,0.3425 0.1525,0.34125 0.1513,0.3225 0.17,0.34125 0.1712,0.30375 0.19,0.3025 0.21,0.3075 0.205,0.3025 0.23,0.26375 0.2488,0.26875 0.245,0.26375 0.2675,0.24875 0.2637,0.23 0.2888,0.22375 0.605,0.38125 0.3225,0.17125 0.3225,0.15125 0.3612,0.13625 0.3413,0.1125 0.3812,0.0925 0.3813,0.0787 0.38,0.0588 0.4012,0.0337 0.415,0.02 c 1.9575,0 7.7538,-1.34875 7.7538,-9.005 l 0,-5.2825 -2.3788,0 0,5.2825 c 0,5.48875 -2.3525,6.06 -3.4175,6.06 -3.115,0 -3.515,-4.23875 -3.515,-4.71125 l 0,-18.94125 c 0,-3.98875 0,-7.65625 -3.38,-11.17125 -3.705,-3.6675 -8.4175,-5.18625 -12.9587,-5.18625 -7.7875,0 -14.3063,4.42375 -14.3063,10.67375 0,2.8325 1.9,4.46875 4.35,4.46875 2.6425,0 4.3713,-1.9 4.3713,-4.37125 0,-1.1225 -0.4738,-4.2375 -4.8438,-4.37 2.5438,-3.28625 7.1825,-4.33 10.2188,-4.33 4.6537,0 10.035,3.68625 10.035,12.11875 l 0,14.95625 c 0,9.00375 -6.8025,12.19625 -11.08,12.19625 -4.6338,0 -8.53,-3.325 -8.53,-8.03625 0,-5.19125 3.99,-13.07125 19.61,-13.62375 l 0,-1.99625 c -4.81,0.26875 -11.4413,0.57125 -17.4075,3.4225 -7.085,3.2075 -9.4588,8.13 -9.4588,12.29 0,7.65625 9.1563,10.03375 15.1425,10.03375 6.25,0 10.5813,-3.78375 12.4075,-8.2275 z" />
    <path
       inkscape:connector-curvature="0"
       id="path3421"
       style="fill:#000000;fill-opacity:1;fill-rule:nonzero;stroke:none"
       d="m 718.75961,192.12165 -13.6175,1.045 0,2.94375 c 6.63,0 7.3875,0.645 7.3875,5.2975 l 0,49.22875 c 0,4.23375 -1.045,4.23375 -7.3875,4.23375 l 0,2.94875 c 3.115,-0.0975 8.13,-0.3075 10.5025,-0.3075 2.3775,0 7.0112,0.21 10.5075,0.3075 l 0,-2.94875 c -6.3475,0 -7.3925,0 -7.3925,-4.23375 l 0,-58.515 z" />
    <path
       inkscape:connector-curvature="0"
       id="path3423"
       style="fill:#000000;fill-opacity:1;fill-rule:nonzero;stroke:none"
       d="m 747.92461,239.4454 0.21,0.0387 0.245,0.04 0.2675,0.0538 0.2837,0.0775 0.3225,0.0738 0.3413,0.0775 0.3612,0.0925 0.3813,0.1175 0.3812,0.1125 0.4,0.1325 0.415,0.15125 0.42,0.15625 0.42,0.185 0.415,0.19 0.42,0.21 0.415,0.23 0.42,0.26375 0.4,0.26875 0.3813,0.2825 0.3762,0.30375 0.3613,0.34125 0.3412,0.36125 0.3225,0.38125 0.3075,0.4 0.2638,0.415 0.1312,0.23 0.1175,0.22875 0.1125,0.245 0.097,0.22875 0.093,0.26875 0.094,0.24375 0.077,0.26875 0.059,0.26375 0.054,0.28875 0.059,0.2825 0.039,0.3025 0.02,0.28875 0.019,0.3225 0,0.3025 c 0,4.80375 -3.325,8.6075 -10.6787,8.6075 -7.9588,0 -11.3613,-5.4 -13.1838,-13.4325 -0.2675,-1.215 -0.3612,-1.61625 -1.3125,-1.61625 -1.2362,0 -1.2362,0.665 -1.2362,2.37375 l 0,12.505 c 0,1.59125 0,2.26 1.0262,2.26 0.4925,0 0.5713,-0.0975 2.3975,-1.90375 0.17,-0.18625 0.17,-0.35625 1.8988,-2.16375 4.1412,3.97 8.4137,4.0675 10.41,4.0675 10.87,0 15.235,-6.36625 15.235,-13.14875 0,-5.015 -2.8463,-7.86625 -3.99,-9.00375 -3.115,-3.0225 -6.8213,-3.80375 -10.81,-4.54125 -5.2788,-1.045 -11.6263,-2.28 -11.6263,-7.77375 0,-3.305 2.4713,-7.1825 10.6013,-7.1825 10.415,0 10.8887,8.51625 11.0787,11.46 0.1125,0.855 0.9475,0.855 1.1375,0.855 1.2163,0 1.2163,-0.47375 1.2163,-2.28125 l 0,-9.555 c 0,-1.61625 0,-2.26125 -1.0263,-2.26125 -0.4725,0 -0.6637,0 -1.8987,1.11875 -0.2638,0.4 -1.2163,1.215 -1.6163,1.52375 -3.5887,-2.6425 -7.4662,-2.6425 -8.8912,-2.6425 -11.5488,0 -15.1425,6.32375 -15.1425,11.62625 0,3.30625 1.5187,5.96625 4.0675,8.05625 3.0175,2.45125 5.6987,3.0175 12.5,4.33125 z" />
  </g>
</svg>
