<?xml version="1.0" encoding="UTF-8" standalone="no"?>
<!-- Created with Inkscape (http://www.inkscape.org/) -->

<svg
   xmlns:dc="http://purl.org/dc/elements/1.1/"
   xmlns:cc="http://creativecommons.org/ns#"
   xmlns:rdf="http://www.w3.org/1999/02/22-rdf-syntax-ns#"
   xmlns:svg="http://www.w3.org/2000/svg"
   xmlns="http://www.w3.org/2000/svg"
   xmlns:sodipodi="http://sodipodi.sourceforge.net/DTD/sodipodi-0.dtd"
   xmlns:inkscape="http://www.inkscape.org/namespaces/inkscape"
   width="528.75696"
   height="449.44351"
   id="svg2"
   version="1.1"
   inkscape:version="0.48.4 r9939"
   sodipodi:docname="lowVel.svg">
  <defs
     id="defs4" />
  <sodipodi:namedview
     id="base"
     pagecolor="#ffffff"
     bordercolor="#666666"
     borderopacity="1.0"
     inkscape:pageopacity="0.0"
     inkscape:pageshadow="2"
     inkscape:zoom="0.35"
     inkscape:cx="260.763"
     inkscape:cy="116.04147"
     inkscape:document-units="px"
     inkscape:current-layer="layer1"
     showgrid="false"
     fit-margin-top="0"
     fit-margin-left="0"
     fit-margin-right="0"
     fit-margin-bottom="0"
     inkscape:window-width="925"
     inkscape:window-height="1147"
     inkscape:window-x="992"
     inkscape:window-y="24"
     inkscape:window-maximized="0" />
  <metadata
     id="metadata7">
    <rdf:RDF>
      <cc:Work
         rdf:about="">
        <dc:format>image/svg+xml</dc:format>
        <dc:type
           rdf:resource="http://purl.org/dc/dcmitype/StillImage" />
        <dc:title />
      </cc:Work>
    </rdf:RDF>
  </metadata>
  <g
     inkscape:label="Layer 1"
     inkscape:groupmode="layer"
     id="layer1"
     transform="translate(-114.237,-198.96013)">
    <path
       d="m 435.30981,198.96517 c -20.5687,-0.41825 -24.2882,25.32806 -36.4218,34.63872 -38.4845,8.12279 -81.2689,13.70781 -109.721,43.48472 -15.1916,16.96647 -43.2438,37.86775 -27.3899,63.17374 1.4398,13.89336 27.0034,16.11552 22.2922,29.6636 -7.0245,10.61717 12.5406,7.47179 12.5,15.42496 2.7767,17.6593 10.1802,36.50879 -7.1269,50.86984 -14.0296,17.30338 -32.1948,-1.92405 -49.5535,-2.23583 -59.131,-10.72746 -120.35718,35.99236 -124.8494,95.54164 -7.93796,60.0993 44.1631,118.97707 105.3246,118.78999 47.3099,1.99856 93.1348,-30.61041 106.6128,-75.59482 21.7118,-37.61321 12.8035,13.23783 39.5744,14.9763 13.6506,0.4487 22.4375,2.56664 29.1326,-6.29228 -0.5324,-5.61698 -9.4658,-7.95545 -13.9359,-9.08706 -4.4693,-1.13086 -4.4732,-1.05481 -7.201,-10.37103 -2.7479,-11.39133 -3.1624,-13.94658 -2.7096,-23.55989 25.8339,-28.14037 52.8829,-68.15647 80.7598,-95.11808 21.5994,19.03047 -19.8638,37.48449 -20.8639,59.75765 -20.5028,53.36571 10.2558,119.01587 65.0151,137.36414 55.797,21.96445 124.7908,-11.91533 141.1128,-69.23864 19.3425,-56.37822 -18.1093,-123.14301 -76.6632,-136.52532 -30.3663,-7.97295 -64.034,-1.79249 -89.5404,16.38091 -6.4437,-14.83331 1.39,-29.24991 12.4575,-39.19478 10.2073,4.8656 33.5975,3.79632 25.0419,-17.17639 -1.5224,-10.41792 -29.7106,-30.58759 -13.9867,-11.5868 8.5919,24.04586 -17.4906,-1.24567 -19.4351,-10.66205 -15.8827,-2.75526 -21.5821,-13.12451 -24.7637,-28.29471 -7.0233,-17.91257 -17.6578,-34.92391 -24.0999,-52.75279 -0.7963,-10.58068 3.0402,-17.28742 14.6163,-16.9505 13.7172,-11.9952 26.3079,-34.30259 27.8812,-53.29046 -6.5804,-11.57538 -20.6313,-20.58414 -34.0593,-22.13478 z m -61.2589,123.99912 c 13.9489,15.07362 13.7452,38.79478 32.2835,50.31692 6.4193,5.64283 40.4353,29.88416 18.0534,29.18297 -7.5143,-1.80312 -19.8654,4.03821 -23.6054,-3.73016 -9.6719,-25.75321 -32.1086,-42.74248 -53.3498,-58.81769 -13.5856,-11.69023 17.9437,-12.33207 26.6018,-16.94672 l 0,-0.004 z m 56.3834,34.64936 c 15.9658,1.09359 11.0544,25.63756 -0.8014,8.58666 -3.0497,-2.267 -4.7455,-8.35699 0.8014,-8.58666 z m -122.5174,30.77999 c 38.0007,-2.45943 19.5179,27.74565 0.5016,9.38517 -0.7297,-3.09592 -0.4409,-6.25044 -0.5016,-9.38517 z m 8.3082,25.89312 c 23.5202,-10.7533 20.5904,10.28332 17.7779,21.23812 -0.9642,31.47814 -16.6522,-4.72489 -17.7779,-21.23812 z m 80.0778,-0.56277 c 16.3165,1.11715 34.2212,-3.17658 49.1488,4.1165 0.2955,22.91658 -22.6487,40.24277 -34.1921,59.35381 -12.2987,11.13964 -26.4923,41.4816 -44.6075,40.29523 -3.143,-11.53964 -2.4653,-19.42893 -2.8471,-34.48585 2.4937,-25.69386 14.5541,-50.46901 32.4979,-69.27969 z m -89.3612,14.07054 c 7.0726,9.34411 26.8864,43.94938 12.3756,42.21241 -19.5927,-6.84973 -31.7011,-21.66022 -12.3756,-42.21241 z m 227.1268,15.9178 c 55.0678,-1.69438 102.9987,51.01503 95.6914,105.18158 -3.9516,54.44662 -61.5517,96.3054 -115.0914,83.71702 -54.0701,-9.37985 -90.2488,-70.12863 -72.5316,-121.65856 5.4898,-17.11706 23.7811,-55.69966 34.7512,-21.86173 14.8776,22.70665 28.7906,47.6461 50.7817,64.30231 21.6451,10.2643 31.5404,-28.21791 7.9058,-29.91686 -25.4548,5.65654 -39.1622,-18.05244 -48.3699,-37.5415 -12.4141,-14.90553 -13.4035,-29.66434 8.3114,-34.27213 12.1092,-5.27171 25.3319,-7.96538 38.5514,-7.95013 z m -310.9035,1.40686 c 15.926,0.77345 43.2848,3.9713 49.6173,17.05626 -8.9397,18.1095 -19.1136,35.62809 -31.4943,51.65156 -27.56,-9.75857 -55.428,20.90814 -34.2576,44.91369 18.4183,20.741 38.6162,-0.79472 53.2889,-9.93729 19.5596,0 39.1196,0 58.6793,0 -3.0852,53.26938 -57.5879,95.697 -110.4936,86.05324 -54.5871,-6.67707 -93.80696,-65.78298 -78.50213,-118.18313 10.1031,-41.30133 50.28503,-72.24484 93.16213,-71.55433 z m 56.2943,22.07395 c 12.8362,1.53846 28.8422,15.60447 23.0817,29.2362 -12.3373,14.67969 43.9593,37.80084 4.2053,37.74761 -17.5907,0.90875 -35.2122,0.44106 -52.8187,0.55513 -5.1785,-8.58895 -8.5647,-17.51099 -0.7774,-25.95471 8.1151,-14.2599 17.3878,-27.82016 26.3091,-41.58498 z"
       style="fill:#333333;fill-opacity:1"
       id="path2237-7"
       inkscape:connector-curvature="0" />
  </g>
</svg>
